<svg width="1024" height="768" xmlns="http://www.w3.org/2000/svg">
 <defs>
  <filter id="svg_25_blur">
   <feGaussianBlur stdDeviation="0" in="SourceGraphic"/>
  </filter>
 </defs>
 <g>
  <title>background</title>
  <rect fill="none" id="canvas_background" height="770" width="1026" y="-1" x="-1"/>
 </g>
 <g>
  <title>Layer 1</title>
  <g id="svg_1">
   <g id="svg_2">
    <path fill="#ffffff" id="svg_3" d="m654.99823,152.980545l16,0c13.255005,0 24,-10.744949 24,-23.999908l0,-15.999985c0,-13.255028 -10.744995,-24.000046 -24,-24.000046l-16,0c-4.417969,0 -8,3.582008 -8,8.000015l0,16.000031l-16,0l0,-41.064079l-18.127991,2.264008c-22.567017,2.107002 -45.039001,-4.908012 -62.400024,-19.480019c-10.459961,-7.940998 -25.033936,-7.545998 -35.047974,0.952c-2.653015,1.915001 -6.234985,1.915001 -8.888,0c-10.015991,-8.494995 -24.589996,-8.887997 -35.048004,-0.944c-17.362,14.569004 -39.833984,21.58102 -62.399994,19.472019l-18.087982,-2.264008l0,41.064079l-15.999939,0l0,-16.000031c0,-4.418007 -3.58197,-8.000015 -7.999969,-8.000015l-15.999939,0c-13.254944,0 -23.999908,10.745018 -23.999908,24.000046l0,15.999985c0,13.254959 10.744965,23.999908 23.999908,23.999908l15.999939,0c4.417999,0 7.999969,-3.58197 7.999969,-7.999969l0,-15.999939l15.999939,0l0,63.999832l-15.999939,0l0,-16c0,-4.417999 -3.58197,-7.999985 -7.999969,-7.999985l-15.999939,0c-13.254944,0 -23.999908,10.74498 -23.999908,23.999985l0,16c0,13.25499 10.744965,24 23.999908,24l15.999939,0c4.417999,0 7.999969,-3.582001 7.999969,-8l0,-16l15.999939,0l0,64l-15.999939,0l0,-16c0,-4.417999 -3.58197,-8 -7.999969,-8l-15.999939,0c-13.254944,0 -23.999908,10.744995 -23.999908,24l0,16c0,13.255005 10.744965,24 23.999908,24l15.999939,0c4.417999,0 7.999969,-3.582001 7.999969,-8l0,-16l15.999939,0l0,17.007996l1.247986,1.959991c13.867981,21.714996 24.244995,45.470001 30.751984,70.399994l0,150.632019l16,0l0,-16l16,0l0,16l16,0l0,-16l16,0l0,16l16,0l0,-16l16,0l0,16l16,0l0,-16l16,0l0,16l16,0l0,-16l16,0l0,16l16,0l0,-150.632019c6.507019,-24.929993 16.884033,-48.684998 30.752014,-70.399994l1.247986,-1.960022l0,-17.007996l16,0l0,16c0,4.417999 3.582031,8 8,8l16,0c13.255005,0 24,-10.744995 24,-24l0,-16c0,-13.254974 -10.744995,-24 -24,-24l-16,0c-4.417969,0 -8,3.582001 -8,8l0,16l-16,0l0,-64l16,0l0,16c0,4.417999 3.582031,8 8,8l16,0c13.255005,0 24,-10.744995 24,-24l0,-16c0,-13.25499 -10.744995,-23.999969 -24,-23.999969l-16,0c-4.417969,0 -8,3.581985 -8,7.999969l0,16l-16,0l0,-63.999817l16,0l0,15.999939c0,4.418015 3.581055,7.999985 8,7.999985zm8,-47.999908l8,0c4.41803,0 8,3.582008 8,8.000015l0,15.999985c0,4.417999 -3.58197,7.999969 -8,7.999969l-8,0l0,-31.999969zm-303.999847,31.999969l-7.999969,0c-4.417969,0 -7.999969,-3.58197 -7.999969,-7.999969l0,-15.999985c0,-4.418007 3.582001,-8.000015 7.999969,-8.000015l7.999969,0l0,31.999969zm0,79.999863l-7.999969,0c-4.417969,0 -7.999969,-3.582001 -7.999969,-8l0,-16c0,-4.417999 3.582001,-8 7.999969,-8l7.999969,0l0,32zm0,80l-7.999969,0c-4.417969,0 -7.999969,-3.582001 -7.999969,-8l0,-16c0,-4.417999 3.582001,-8 7.999969,-8l7.999969,0l0,32zm95.999878,200l-16,0l0,-80l16,0l0,80zm32,0l-16,0l0,-80l16,0l0,80zm32.000031,0l-16.000031,0l0,-80l16.000031,0l0,80zm31.999939,0l-16,0l0,-80l16,0l0,80zm32,0l-16,0l0,-80l16,0l0,80zm0,-96l-144,0l0,-16l144,0l0,16zm1.936035,-32l-147.872009,0c-6.777008,-23.852997 -16.899017,-46.626007 -30.063995,-67.639984l0,-211.295876l0.143982,0c26.796997,2.657005 53.541016,-5.531013 74.256012,-22.736046c1.556,-1.378006 3.526001,-2.197006 5.600006,-2.328003c3.53598,-0.011002 6.973999,1.160004 9.767975,3.328003c8.414001,6.375015 20.042053,6.375015 28.456055,0c2.796936,-2.167 6.237976,-3.338005 9.77594,-3.328003c2.072998,0.128998 4.04303,0.945 5.600037,2.32c20.70697,17.210037 47.445007,25.407051 74.23999,22.760048l0.143982,0l0.015991,211.279877c-13.165955,21.013977 -23.286987,43.786987 -30.063965,67.639984zm78.063965,-104l8,0c4.41803,0 8,3.582001 8,8l0,16c0,4.417999 -3.58197,8 -8,8l-8,0l0,-32zm0,-80l8,0c4.41803,0 8,3.582001 8,8l0,16c0,4.417999 -3.58197,8 -8,8l-8,0l0,-32z"/>
   </g>
  </g>
  <g id="svg_4">
   <g id="svg_5">
    <path fill="#ffffff" id="svg_6" d="m446.99826,176.980469c-2.731995,0.026001 -5.437988,0.524002 -8,1.472l0,-34.943878c2.562012,0.947998 5.268005,1.444992 8,1.471985c13.255005,0 24,-10.744949 24,-23.999931s-10.744995,-24.000023 -24,-24.000023s-24,10.745018 -24,24.000023l0,79.999825c0,13.25499 10.744995,24 24,24c2.731995,-0.027008 5.437988,-0.524002 8,-1.472l0,34.944016c-2.562012,-0.947998 -5.268005,-1.445007 -8,-1.472015c-13.255005,0 -24,10.744995 -24,24s10.744995,24 24,24s24,-10.744995 24,-24l0,-80c0,-13.255005 -10.746002,-24 -24,-24zm0,-63.999817c4.417999,0 8,3.581993 8,7.999992s-3.582001,7.999992 -8,7.999992s-8,-3.581985 -8,-7.999992s3.580994,-7.999992 8,-7.999992zm0,175.999817c-4.417999,0 -8,-3.582001 -8,-8s3.582001,-8 8,-8s8,3.582001 8,8s-3.582001,8 -8,8zm0,-80c-4.417999,0 -8,-3.582001 -8,-8s3.582001,-8 8,-8s8,3.582001 8,8s-3.582001,8 -8,8z"/>
   </g>
  </g>
  <g id="svg_7">
   <g id="svg_8">
    <path fill="#ffffff" id="svg_9" d="m574.99823,224.980469c13.255005,0 24,-10.74501 24,-24l0,-79.999825c0,-13.255005 -10.744995,-24.000023 -24,-24.000023s-24,10.745018 -24,24.000023s10.744995,23.999931 24,23.999931c2.731995,-0.025986 5.437988,-0.523987 8,-1.471985l0,34.943878c-2.562012,-0.947998 -5.268005,-1.445007 -8,-1.472c-13.255005,0 -24,10.744995 -24,24l0,80c0,13.255005 10.744995,24 24,24s24,-10.744995 24,-24s-10.744995,-24 -24,-24c-2.731995,0.026001 -5.437988,0.524017 -8,1.472015l0,-34.944016c2.562012,0.946991 5.268005,1.444992 8,1.472zm0,-95.999832c-4.417969,0 -8,-3.581985 -8,-7.999992s3.582031,-7.999992 8,-7.999992s8,3.581993 8,7.999992s-3.58197,7.999992 -8,7.999992zm0,63.999832c4.41803,0 8,3.582001 8,8s-3.58197,8 -8,8s-8,-3.582001 -8,-8s3.581055,-8 8,-8zm0,80c4.41803,0 8,3.582001 8,8s-3.58197,8 -8,8s-8,-3.582001 -8,-8s3.581055,-8 8,-8z"/>
   </g>
  </g>
  <g id="svg_10"/>
  <g id="svg_11"/>
  <g id="svg_12"/>
  <g id="svg_13"/>
  <g id="svg_14"/>
  <g id="svg_15"/>
  <g id="svg_16"/>
  <g id="svg_17"/>
  <g id="svg_18"/>
  <g id="svg_19"/>
  <g id="svg_20"/>
  <g id="svg_21"/>
  <g id="svg_22"/>
  <g id="svg_23"/>
  <g id="svg_24"/>
  <text font-style="normal" filter="url(#svg_25_blur)" font-weight="normal" xml:space="preserve" text-anchor="start" font-family="'Simonetta', serif" font-size="121" id="svg_25" y="661.009067" x="13.983673" stroke-width="0" stroke="#000" fill="#ffffff">Guitar Harmony</text>
 </g>
</svg>