<?xml version="1.0" encoding="UTF-8" standalone="no"?>
<!DOCTYPE svg PUBLIC "-//W3C//DTD SVG 1.1//EN" "http://www.w3.org/Graphics/SVG/1.1/DTD/svg11.dtd">
<svg version="1.1" xmlns="http://www.w3.org/2000/svg" xmlns:xlink="http://www.w3.org/1999/xlink" preserveAspectRatio="xMidYMid meet" viewBox="0 0 20 20" width="20" height="20"><defs><path d="M20 3.75C20 3.75 20 3.75 20 3.75C20 5.25 20 6.08 20 6.25C20 6.25 20 6.25 20 6.25C15.5 6.25 13 6.25 12.5 6.25C12.5 6.25 12.5 6.25 12.5 6.25C12.5 4.75 12.5 3.92 12.5 3.75C12.5 3.75 12.5 3.75 12.5 3.75C17 3.75 19.5 3.75 20 3.75Z" id="b4pm5ZNpo"></path><path d="M11.25 8.75L11.25 1.25L3.75 1.25L3.75 3.75L0 3.75L0 6.25L3.75 6.25L3.75 8.75L11.25 8.75Z" id="c2U29kefML"></path><path d="M7.5 13.75C7.5 13.75 7.5 13.75 7.5 13.75C7.5 15.25 7.5 16.08 7.5 16.25C7.5 16.25 7.5 16.25 7.5 16.25C3 16.25 0.5 16.25 0 16.25C0 16.25 0 16.25 0 16.25C0 14.75 0 13.92 0 13.75C0 13.75 0 13.75 0 13.75C4.5 13.75 7 13.75 7.5 13.75Z" id="c1sRSDe9Iw"></path><path d="M8.75 11.25L8.75 18.75L16.25 18.75L16.25 16.25L20 16.25L20 13.75L16.25 13.75L16.25 11.25L8.75 11.25Z" id="b220SvoAkp"></path></defs><g><g><g><use xlink:href="#b4pm5ZNpo" opacity="1" fill="#ff5269" fill-opacity="1"></use><g><use xlink:href="#b4pm5ZNpo" opacity="1" fill-opacity="0" stroke="#000000" stroke-width="1" stroke-opacity="0"></use></g></g><g><use xlink:href="#c2U29kefML" opacity="1" fill="#ff5269" fill-opacity="1"></use><g><use xlink:href="#c2U29kefML" opacity="1" fill-opacity="0" stroke="#000000" stroke-width="1" stroke-opacity="0"></use></g></g><g><use xlink:href="#c1sRSDe9Iw" opacity="1" fill="#ff5269" fill-opacity="1"></use><g><use xlink:href="#c1sRSDe9Iw" opacity="1" fill-opacity="0" stroke="#000000" stroke-width="1" stroke-opacity="0"></use></g></g><g><use xlink:href="#b220SvoAkp" opacity="1" fill="#ff5269" fill-opacity="1"></use><g><use xlink:href="#b220SvoAkp" opacity="1" fill-opacity="0" stroke="#000000" stroke-width="1" stroke-opacity="0"></use></g></g></g></g></svg>