<?xml version="1.0" standalone="no"?>
<!DOCTYPE svg PUBLIC "-//W3C//DTD SVG 1.1//EN" "http://www.w3.org/Graphics/SVG/1.1/DTD/svg11.dtd" >
<svg xmlns="http://www.w3.org/2000/svg" xmlns:xlink="http://www.w3.org/1999/xlink" version="1.1">
<metadata>
Created by FontForge 20170910 at Tue May 29 17:40:53 2018
 By Jimmy Wärting
</metadata>
<defs>
<font id="AlgeriaOne" horiz-adv-x="675" >
  <font-face 
    font-family="Algeria One"
    font-weight="400"
    font-stretch="normal"
    units-per-em="1000"
    panose-1="2 0 0 0 0 0 0 0 0 0"
    ascent="800"
    descent="-200"
    x-height="671"
    cap-height="671"
    bbox="-73 -276 1138 853"
    underline-thickness="50"
    underline-position="-100"
    unicode-range="U+000D-2122"
  />
<missing-glyph horiz-adv-x="300" 
 />
    <glyph glyph-name=".notdef" horiz-adv-x="300" 
 />
    <glyph glyph-name="nonmarkingreturn" unicode="&#xd;" horiz-adv-x="500" 
 />
    <glyph glyph-name="space" unicode=" " horiz-adv-x="300" 
 />
    <glyph glyph-name="exclam" unicode="!" horiz-adv-x="278" 
d="M248 696q-24 -62 -38.5 -130t-21.5 -137.5t-9 -136.5t-2 -127h-14q0 60 1.5 128.5t9 139t21.5 140t40 130.5l13 -7v0zM214 713q-27 -61 -42 -129.5t-22.5 -139.5t-9.5 -142t-2 -137h-49q0 65 -4.5 135.5t-12 135t-18.5 118t-24 85.5q46 7 90 22t94 52zM180 61
q0 -29 -18.5 -48t-47.5 -19t-47.5 19t-18.5 48t18.5 48.5t47.5 19.5t47.5 -19.5t18.5 -48.5zM212 50q0 -38 -21.5 -62.5t-64.5 -24.5q-20 0 -38.5 9t-25.5 26l4 4q8 -10 21.5 -17.5t36.5 -7.5q39 0 57 22t18 53q0 15 -6 29t-15 22l2 3q13 -5 22.5 -20.5t9.5 -35.5z" />
    <glyph glyph-name="quotedbl" unicode="&#x22;" horiz-adv-x="333" 
d="M142 705q10 -31 10 -66q0 -29 -7.5 -56t-22 -50t-36 -39.5t-48.5 -23.5l-15 8q27 7 48 22.5t35.5 37.5t22 48t7.5 55q0 32 -11 68zM100 712q8 -19 12 -38t4 -37q0 -28 -8.5 -53.5t-24 -45.5t-36.5 -33t-46 -16l-1 7q19 15 28 41t9 54q0 21 -5 41t-16 36q42 13 84 44z
M288 705q10 -31 10 -66q0 -29 -7.5 -56t-22 -50t-36 -39.5t-48.5 -23.5l-15 8q27 7 48 22.5t35.5 37.5t22 48t7.5 55q0 32 -11 68zM246 712q8 -19 12 -38t4 -37q0 -28 -8.5 -53.5t-24 -45.5t-36.5 -33t-46 -16l-1 7q19 15 28 41t9 54q0 21 -5 41t-16 36q42 13 84 44z" />
    <glyph glyph-name="numbersign" unicode="#" horiz-adv-x="541" 
d="M78 -37l-10 15h68l48 214h83l4 20h-106l-44 -212h-65l39 177h-51l-7 15h61l4 20h-72l13 62h72l21 97h-52l-7 15h62l4 21h-72l13 62h72l43 202h64l-43 -202h23l38 183l12 -12l-36 -171h69l43 202h63l-43 -202h23l39 187l14 -11l-38 -176h34l-13 -62h-72l-28 -133h22
l25 112h71l13 67l12 -15l-13 -67h-73l-20 -97h35l-14 -62h-72l-43 -212h-64l37 177h-67l-49 -214h-70zM306 -22l48 214h70l13 63l12 -15l-13 -63h-70l-48 -214h-69l-11 15h68zM207 407l-29 -133h23l25 112h82l5 21h-106zM236 371l-20 -97h68l21 97h-69z" />
    <glyph glyph-name="dollar" unicode="$" horiz-adv-x="602" 
d="M528 607q-23 -38 -41.5 -73.5t-37.5 -78.5l-12 6q17 41 36 77t46 79l9 -10v0zM516 199q0 -45 -16.5 -78.5t-45.5 -56t-67.5 -35t-81.5 -14.5v-58h-53v24q-22 4 -41.5 11.5t-37.5 14.5t-35.5 12.5t-33.5 5.5q-25 0 -49 -10l-9 12q31 13 59 13q18 0 35 -5.5t34 -12.5
t36 -14.5t42 -11.5v22q-19 4 -38 11l-38 14t-38.5 12.5t-40.5 5.5q-18 0 -38 -5t-29 -10q25 39 51.5 87.5t44.5 94.5q3 -26 12 -53t24.5 -49.5t37.5 -39.5t52 -24v12q-87 25 -100 136l18 -14q6 -35 23 -65t59 -47v178q-30 8 -59 18t-53.5 24t-42.5 34t-26 49l5 4
q11 -26 30 -44t42.5 -31t50 -21.5t53.5 -16.5v24q-38 10 -74 23t-63.5 34.5t-44.5 53t-17 77.5q0 42 16.5 72.5t44.5 50.5t64 30.5t74 11.5v59h53v-63q12 -2 22 -4v57l13 -8v-51q28 -5 56.5 -15t57.5 -10q12 0 24.5 4t23.5 9q-23 -38 -43.5 -76.5t-37.5 -81.5
q-13 45 -39.5 80.5t-76.5 51.5v-212l22 -6v189q17 -6 34 -17.5t26 -25.5l-4 -5q-8 7 -19.5 14t-22.5 12v-171q34 -11 65.5 -26t56 -36.5t39 -51.5t14.5 -72zM552 195q0 -50 -17 -87t-46.5 -63t-67.5 -41.5t-80 -21.5v-63h-67l-14 15h67v61q42 5 80 19t67 38.5t46 59.5t17 83
q0 51 -22.5 85t-51.5 55l4 5q33 -16 59 -54t26 -91zM252 573q-27 -5 -44.5 -17t-17.5 -38q0 -27 18 -48.5t44 -32.5v136zM252 426q-35 14 -56 35.5t-21 56.5q0 34 23 49.5t54 19.5v23q-17 -2 -35 -7.5t-32 -16.5t-23 -27t-9 -39q0 -25 8 -42.5t21.5 -30t31.5 -21t38 -14.5
v14zM422 159q0 27 -9.5 47.5t-26 35.5t-37.5 25t-44 18v-224q11 0 22 3v189q25 -10 49 -27.5t38 -43.5l-6 -2q-12 17 -31 29.5t-36 19.5v-161q32 11 56.5 32.5t24.5 58.5z" />
    <glyph glyph-name="percent" unicode="%" horiz-adv-x="800" 
d="M323 481q0 -36 -7.5 -72t-25.5 -64t-47 -45.5t-72 -17.5q-42 0 -71 17.5t-47 45.5t-25.5 64t-7.5 72t7.5 71t25 63.5t46.5 46t72 17.5t72 -17.5t47 -46t25.5 -63.5t7.5 -71zM356 471q0 -37 -9 -76t-30 -71.5t-55 -53.5t-85 -21q-46 0 -83.5 21.5t-54.5 64.5l5 3
q17 -33 49.5 -54t83.5 -21q45 0 76.5 19t51 49t28.5 67t9 73q0 18 -2.5 38.5t-7 40.5t-12.5 38t-18 30l6 4q30 -32 39 -74t9 -77zM252 481q0 23 -3 50.5t-11.5 51.5t-24.5 40.5t-42 16.5q-24 0 -39.5 -16.5t-24.5 -40.5t-12 -51.5t-3 -50.5q0 -22 3 -50t12 -52.5t24.5 -41.5
t40.5 -17q26 0 42 17t24.5 41.5t11 52.5t2.5 50zM219 589q-9 13 -20.5 17.5t-22.5 4.5q-19 0 -29 -14.5t-15 -35t-6 -43t-1 -37.5q0 -17 1.5 -38t7 -42t16 -39t27.5 -27l-1 -6q-20 4 -32.5 20.5t-20 39t-10 47t-2.5 45.5q0 18 1.5 42t8 46.5t19.5 38t35 15.5q15 0 29 -8.5
t19 -24.5zM187 0h-66l458 671h61zM209 -39h-58l-15 15h64l455 675l9 -12zM747 187q0 -36 -7.5 -72t-25.5 -64t-47 -45.5t-72 -17.5q-42 0 -71 17.5t-47 45.5t-25.5 64t-7.5 72t7.5 71t25 63.5t46.5 46t72 17.5t72 -17.5t47 -46t25.5 -63.5t7.5 -71zM780 177q0 -37 -9 -76
t-30 -71.5t-55 -53.5t-85 -21q-46 0 -83.5 21.5t-54.5 64.5l5 3q17 -33 49.5 -54t83.5 -21q45 0 76.5 19t51 49t28.5 67t9 73q0 18 -2.5 38.5t-7 40.5t-12.5 38t-18 30l6 4q30 -32 39 -74t9 -77zM676 187q0 23 -3 50.5t-11.5 51.5t-24.5 40.5t-42 16.5q-24 0 -39.5 -16.5
t-24.5 -40.5t-12 -51.5t-3 -50.5q0 -22 3 -50t12 -52.5t24.5 -41.5t40.5 -17q26 0 42 17t24.5 41.5t11 52.5t2.5 50zM643 295q-9 13 -20.5 17.5t-22.5 4.5q-19 0 -29 -14.5t-15 -35t-6 -43t-1 -37.5q0 -17 1.5 -38t7 -42t16 -39t27.5 -27l-1 -6q-20 4 -32.5 20.5t-20 39
t-10 47t-2.5 45.5q0 18 1.5 42t8 46.5t19.5 38t35 15.5q15 0 29 -8.5t19 -24.5z" />
    <glyph glyph-name="ampersand" unicode="&#x26;" horiz-adv-x="729" 
d="M647 80q-6 -5 -15 -7t-18 -2q-11 0 -23 7t-24 17.5t-23 24t-20 25.5q20 36 35.5 67.5t41.5 61.5l7 -17q-13 -17 -21.5 -29.5t-15.5 -25t-13.5 -25.5t-15.5 -30q7 -10 17 -21.5t20 -21t20 -16t18 -6.5t14.5 1t14.5 3l1 -6v0zM700 69q0 -11 -9 -25t-25.5 -26.5t-39.5 -21.5
t-51 -9q-43 0 -72.5 20.5t-54.5 52.5q-48 -40 -97.5 -57t-112.5 -17q-49 0 -89 13.5t-68.5 39.5t-44.5 64.5t-16 88.5q0 44 16 79t42 63t60.5 50t72.5 39q-17 33 -32.5 69t-15.5 74q0 31 12 53.5t32.5 37t47.5 21.5t58 7q60 0 96.5 -33t36.5 -94q0 -31 -11 -53t-29 -39
t-40.5 -30.5t-46.5 -25.5q11 -23 27 -50.5t34 -56t36.5 -55t33.5 -45.5q2 8 3 17t2 17q-29 38 -56 79.5t-48 83.5q23 12 44.5 26.5t37.5 33.5t25.5 42.5t9.5 55.5q0 31 -14 57.5t-34 40.5l5 3q23 -10 40.5 -38.5t17.5 -62.5q0 -32 -9 -56.5t-24 -44t-35.5 -35t-43.5 -28.5
q20 -34 41.5 -68t44.5 -66q1 7 1 15.5v15.5q0 19 -1.5 37t-3.5 36q32 -22 66 -36.5t72 -25.5q-31 -35 -51.5 -76.5t-43.5 -82.5q9 -14 21 -30t26.5 -29.5t31 -23t35.5 -9.5q13 0 25 5t21.5 11t16.5 11t10 5q6 0 11.5 -3t5.5 -11zM708 36q-9 -36 -45.5 -60.5t-87.5 -24.5
q-44 0 -74 16t-56 39q-22 -16 -43.5 -27.5t-45 -19t-50 -11t-58.5 -3.5q-25 0 -52.5 5t-52.5 15t-45 25.5t-29 36.5l6 4q10 -17 29.5 -30t43 -22t49.5 -14t51 -5q59 0 106 16.5t91 49.5q26 -26 55.5 -43t74.5 -17q91 0 128 73zM385 564q0 36 -17.5 55.5t-52.5 19.5
q-63 0 -63 -61q0 -34 14.5 -63t28.5 -58l21 11q-14 26 -27 55t-13 55q0 19 11.5 30.5t36.5 11.5q9 0 24 -6t23 -20l-7 -2q-12 8 -22.5 10.5t-17.5 2.5q-33 0 -33 -27q0 -23 12.5 -51t25.5 -51q23 15 39.5 35.5t16.5 52.5zM409 104q-19 23 -39.5 51.5t-40.5 59t-39 61.5
t-35 60q-42 -17 -66 -53t-24 -90q0 -27 7 -51.5t19.5 -43.5t29 -30.5t35.5 -14.5v-7q-26 0 -45.5 12.5t-33 33t-20.5 47t-7 54.5q0 54 25 95t72 62l-11 22q-53 -24 -81.5 -70t-28.5 -104q0 -29 7.5 -57.5t23 -52t39.5 -38t57 -14.5q45 0 86 16.5t70 51.5z" />
    <glyph glyph-name="quotesingle" unicode="'" horiz-adv-x="218" 
d="M167 705q10 -21 13 -38.5t3 -35.5q0 -33 -12 -60t-32 -47.5t-45 -34.5t-51 -21l-19 7q68 19 105.5 60t37.5 102q0 38 -19 76zM125 712q8 -21 11.5 -39.5t3.5 -35.5q0 -34 -13 -58.5t-33 -42.5t-44.5 -29t-47.5 -18l-2 7q23 16 35 41.5t12 53.5q0 21 -6.5 41t-20.5 36
q54 14 105 44z" />
    <glyph glyph-name="parenleft" unicode="(" horiz-adv-x="380" 
d="M330 673q-29 -2 -50 -21.5t-35.5 -51.5t-23.5 -73t-13.5 -85.5t-6 -90t-1.5 -86.5q0 -69 4.5 -135.5t14.5 -121.5t27 -95.5t41 -56.5l-2 -8q-30 14 -49 53.5t-30.5 96t-15.5 125.5t-4 142q0 38 1 83t6 90.5t14 89t25 77.5t40 56t58 26v-14v0zM330 -222q-55 2 -97.5 24.5
t-73.5 58.5t-52 83.5t-33.5 100.5t-18 109.5t-5.5 110.5q0 89 13 174.5t45 153.5t86 110.5t136 46.5v-38q-40 -2 -67.5 -23t-46.5 -55t-30 -78t-16.5 -92.5t-7 -99.5t-1.5 -99q0 -47 1.5 -98t7.5 -100t17 -94t30 -79t46.5 -55t66.5 -23v-38v0zM335 -258q-96 0 -155 46
t-92 133l7 2q18 -38 41 -69t52 -52.5t65.5 -33.5t81.5 -12h15v53l14 -10v-57h-29z" />
    <glyph glyph-name="parenright" unicode=")" horiz-adv-x="417" 
d="M50 -184q58 3 92 47t51 110t21.5 143.5t4.5 148.5q0 48 -1.5 99t-7 99.5t-16.5 92.5t-30 78t-47 54.5t-67 23.5v38q82 -4 136 -46.5t86 -110.5t45 -153.5t13 -174.5q0 -54 -5.5 -110.5t-18 -109.5t-33.5 -100.5t-52 -83.5t-73.5 -58.5t-97.5 -24.5v38zM183 497
q-6 30 -14.5 60t-22 55t-33.5 41.5t-47 18.5l-7 15q34 -2 57.5 -20t38.5 -46t23 -60.5t12 -62.5zM367 258q0 -38 -3.5 -89.5t-14.5 -107t-31 -110t-52 -99t-79 -73t-111 -32.5l-15 14q63 1 109.5 27t79 68t52.5 95.5t31 108.5t15 107t4 91q0 134 -26.5 230.5t-64.5 159.5
l9 3q45 -64 71 -167t26 -226z" />
    <glyph glyph-name="asterisk" unicode="*" horiz-adv-x="424" 
d="M206 455l-16 29l-40 -150l-80 46l69 85l-85 -9l-23 12l121 13l17 21l-149 -15l22 92l130 -49l-30 152l91 -12l-32 -139l25 9l29 119l10 -18l-22 -94l106 39l4 -91l-148 9l137 -105l-72 -55l-54 94l-23 -97l-19 -9zM377 471l-5 105l15 -13l5 -107l-82 5l84 -58l-73 -60
h-21l71 58l-107 76z" />
    <glyph glyph-name="plus" unicode="+" horiz-adv-x="472" 
d="M285 221v-140h-71l-15 15h71v140h136v67l15 -15v-67h-136zM248 258v-140h-62v103h-110l-13 15h123v22h-136v62h136v140h62v-140h22v126l15 -10v-116h99v-62h-136z" />
    <glyph glyph-name="comma" unicode="," horiz-adv-x="271" 
d="M62 -72q15 2 30.5 7t28.5 15.5t21.5 27.5t9.5 43h-4q-6 -13 -20.5 -20.5t-28.5 -7.5q-21 0 -40 15.5t-19 52.5q0 26 19 46.5t48 20.5q19 0 34 -7t24.5 -19t14.5 -27.5t5 -31.5q0 -35 -8.5 -60t-23.5 -42t-35.5 -27t-43.5 -15zM195 95q12 -13 19 -32.5t7 -36.5
q0 -69 -29 -103.5t-84 -50.5l-17 11q50 11 82.5 43.5t32.5 99.5q0 16 -5 34t-14 32zM53 -1q9 -14 23 -19t27 -5q14 0 31 6l-8 -14q-11 -4 -25 -4t-29 6.5t-25 24.5z" />
    <glyph glyph-name="hyphen" unicode="-" horiz-adv-x="423" 
d="M50 253v67h284v-67h-284zM358 308l15 -13v-81h-298l-13 14h296v80z" />
    <glyph glyph-name="period" unicode="." horiz-adv-x="261" 
d="M172 61q0 -29 -18.5 -48t-47.5 -19t-47.5 19t-18.5 48t18.5 48.5t47.5 19.5t47.5 -19.5t18.5 -48.5zM211 49q0 -41 -23 -66.5t-70 -25.5q-20 0 -37.5 9t-25.5 26l4 4q8 -10 21.5 -17.5t36.5 -7.5q43 0 61 23.5t18 54.5q0 15 -6.5 31t-15.5 24l3 4q13 -5 23.5 -22
t10.5 -37z" />
    <glyph glyph-name="slash" unicode="/" horiz-adv-x="422" 
d="M52 -222h-82l347 946h79zM79 -261h-80l-14 15h82l346 951l9 -12z" />
    <glyph glyph-name="zero" unicode="0" horiz-adv-x="610" 
d="M551 336q0 -63 -13.5 -125.5t-44.5 -112.5t-82 -81t-125 -31q-75 0 -125.5 31t-82 81t-45 112.5t-13.5 125.5t13.5 125.5t44 112t81.5 80.5t126 31t126 -31t82 -80.5t44.5 -112t13.5 -125.5zM590 332q0 -68 -14.5 -136.5t-49 -123.5t-91.5 -89.5t-142 -34.5
q-90 0 -148.5 37t-85.5 109l5 3q26 -58 83.5 -96t145.5 -38q78 0 132 32t87 84.5t48 118.5t15 134q0 29 -3.5 62t-11 64.5t-19.5 60.5t-30 50l6 3q20 -20 34 -48t22.5 -60t12.5 -66t4 -66zM439 336q0 27 -2 59.5t-7.5 65.5t-15.5 64.5t-27 56t-42 39t-59 14.5
q-35 0 -59.5 -14.5t-41.5 -39t-27.5 -56t-16 -64.5t-7.5 -65.5t-2 -59.5q0 -26 1.5 -58.5t7 -65.5t15.5 -65t27.5 -56.5t42.5 -39.5t60 -15t60 15t42 39.5t27 56.5t15.5 65t7 65.5t1.5 58.5zM376 549q-19 27 -41.5 38.5t-45.5 11.5q-28 0 -47 -14.5t-32.5 -37.5t-21 -52
t-11.5 -58.5t-5 -56t-1 -44.5t0.5 -45t4 -57t11 -60.5t20.5 -56t33.5 -42.5t49.5 -21v-7q-33 0 -55.5 16t-37 41t-23 57t-12.5 64t-5 61t-1 50q0 20 1.5 48.5t6 59.5t13 61t23.5 54t36.5 39t52.5 15q27 0 52.5 -15t42.5 -45z" />
    <glyph glyph-name="one" unicode="1" horiz-adv-x="409" 
d="M111 -39l-14 15h246l16 24l-74 71v594l15 -12v-575l79 -75l-27 -42h-241zM79 0l76 68v443q-12 -8 -26.5 -11.5t-37.5 -3.5q-25 0 -47 14t-30 35l3 5q13 -20 32.5 -29.5t41.5 -9.5q21 0 35.5 3.5t28.5 14.5v26l-3 3q-15 -13 -31 -18t-39 -5q-12 0 -25 3.5t-23.5 11
t-17 18.5t-6.5 26q0 14 6.5 23.5t20.5 9.5q11 0 18.5 -7.5t7.5 -20.5q0 -5 -2 -7.5t-3 -7.5q6 -5 13.5 -6t15.5 -1q22 0 38 10.5t27 25.5t18 31t11 27h80v-603l72 -68h-254z" />
    <glyph glyph-name="two" unicode="2" horiz-adv-x="566" 
d="M366 553q-17 26 -48 38t-58 12q-18 0 -36 -5t-31.5 -14.5t-22 -23.5t-8.5 -32q0 -29 13 -51t30 -25v-4q-26 0 -42 24t-16 56q0 23 9.5 40t25 28t36 16.5t42.5 5.5q32 0 63 -15t48 -47zM527 491q0 -64 -22 -107t-56.5 -74t-77 -54.5t-83.5 -47.5t-76 -53.5t-54 -71.5h194
q24 0 44.5 1t37.5 8t31.5 20.5t26.5 39.5h5v-152h-477q2 75 30 125t69 85.5t88.5 63t87.5 57t67 67.5t27 95q0 72 -36 108.5t-100 36.5q-21 0 -44 -5.5t-42 -18.5t-31.5 -34t-12.5 -52q0 -38 18.5 -64t58.5 -26q23 0 37 8.5t29 16.5l7 -2q-8 -37 -34.5 -64.5t-79.5 -27.5
q-28 0 -52.5 9.5t-43 27.5t-29 44t-10.5 59q0 44 16 77t45.5 55t69.5 33t88 11q55 0 101 -11.5t78.5 -35.5t50.5 -60.5t18 -86.5q0 -58 -23.5 -97.5t-60.5 -68.5t-82 -52.5t-87.5 -49.5t-77 -59t-50.5 -81h28q19 44 54 75t76.5 56.5t85 50t78.5 55t57.5 71.5t22.5 100
q0 45 -18.5 80t-42.5 52l5 1q13 -5 26 -18.5t23 -31.5t16 -39.5t6 -43.5zM304 437q-4 -21 -16 -40.5t-29.5 -33.5t-40.5 -22.5t-49 -8.5q-20 0 -40.5 5.5t-38 15.5t-29.5 24.5t-15 32.5l2 3q17 -35 50.5 -50.5t70.5 -15.5q24 0 45 8t37.5 21.5t27 31t14.5 37.5zM49 -39
l-14 15h487v171l14 -9v-177h-487z" />
    <glyph glyph-name="three" unicode="3" horiz-adv-x="560" 
d="M345 565q-17 20 -46 27.5t-52 7.5q-46 0 -68 -16t-22 -39q0 -22 6 -34t14 -18v-3q-14 2 -24.5 15.5t-10.5 39.5q0 35 27 52.5t78 17.5q29 0 57 -10.5t43 -36.5zM505 510q0 -68 -31 -107.5t-77 -59.5q43 -17 71 -54t28 -109q0 -53 -21 -89.5t-55.5 -60t-78.5 -34
t-90 -10.5q-99 0 -153 47.5t-78 133.5q32 7 58 19.5t52 32.5q-2 -16 -2.5 -27t-0.5 -25q0 -64 33 -97.5t88 -33.5q64 0 99 37.5t35 109.5q0 28 -7 55.5t-24.5 49t-46 34.5t-70.5 13q-13 0 -26 -2l-26 -4q4 14 8 27.5t9 27.5q8 -1 17 -1.5t17 -0.5q25 0 49 10t43 29t31 45
t12 58q0 57 -35.5 85t-89.5 28q-22 0 -44 -4t-40 -14t-29.5 -27t-11.5 -42q0 -29 13.5 -49.5t40.5 -20.5q10 0 19 4.5l17 8.5q-10 -24 -29 -38.5t-46 -14.5q-45 0 -71 26.5t-26 71.5q0 39 19.5 67t49.5 45.5t66 26t69 8.5q40 0 80 -8t72.5 -27t53 -50.5t20.5 -79.5
q0 -63 -29 -103t-89 -54v-5q8 -2 15 -3.5t14 -4.5q49 19 81.5 57t32.5 103q0 19 -5.5 37.5t-14 33.5t-18 26.5t-17.5 17.5l4 2q10 -4 21.5 -15.5t21 -27.5t16 -35.5t6.5 -38.5zM234 459q-16 -26 -37 -41t-59 -15q-31 0 -55 15t-34 40l2 3q14 -22 37 -32.5t50 -10.5
q30 0 53 16t35 42zM360 230q-14 25 -47.5 45.5t-78.5 20.5q-10 0 -20.5 -1.5t-23.5 -3.5l-5 14q12 2 24.5 3.5t24.5 1.5q49 0 83.5 -22t45.5 -55zM530 180q0 -67 -25.5 -111t-64.5 -70.5t-86.5 -37t-91.5 -10.5q-78 0 -129.5 28t-74.5 76l5 4q28 -45 76 -69t123 -24
q43 0 88 10.5t82 35.5t60 66t23 102q0 32 -10.5 62t-22.5 46l5 1q6 -5 13.5 -16t14 -26t11 -32t4.5 -35zM263 45q-22 0 -42 8t-35.5 23.5t-25 38.5t-9.5 52q0 14 1 31.5t3 26.5l14 -10q-2 -8 -2.5 -22.5t-0.5 -25.5q0 -26 8.5 -47t22 -37t31 -24.5t35.5 -8.5v-5z" />
    <glyph glyph-name="four" unicode="4" horiz-adv-x="607" 
d="M552 154q0 -15 -8 -27.5t-29 -12.5q-14 0 -24.5 8.5t-10.5 23.5q0 6 2 13t8 12q-5 5 -14 6.5t-15 1.5h-44v-111l72 -68h-254l76 68v72h-282l-14 15h296v24h-306q34 42 68.5 102t62 126t44.5 132.5t17 121.5v10h116q0 -74 -24 -141.5t-59 -125t-74.5 -104t-70.5 -77.5h30
q43 46 82.5 98t70 108.5t49 116.5t18.5 122l14 -9q0 -59 -17.5 -117.5t-46.5 -114t-68 -107.5t-82 -97h176v222q38 21 62 41.5t44 45.5v-309h24v299l15 -12v-287h9q35 0 61 -18t26 -51zM587 148q0 -12 -2.5 -25t-10 -23.5t-20.5 -17t-34 -6.5q-17 0 -34.5 7.5t-27.5 25.5h-2
v-31l79 -75l-27 -42h-241l-14 15h246l16 24l-74 71v84h15q2 -20 9 -32t16.5 -19t20 -9.5t18.5 -2.5q31 0 41.5 18.5t10.5 37.5q0 17 -9 32t-23 24l4 3q16 -4 29.5 -21.5t13.5 -37.5z" />
    <glyph glyph-name="five" unicode="5" horiz-adv-x="589" 
d="M524 686q0 -72 -37.5 -110.5t-105.5 -38.5h-219v-112q17 14 51.5 25.5t70.5 11.5q111 0 173.5 -58t62.5 -176q0 -123 -66.5 -182.5t-182.5 -59.5q-52 0 -92 10t-70 31.5t-51.5 55t-37.5 80.5q25 8 54.5 20.5t62.5 38.5q-3 -32 -3 -64t10.5 -55t29 -38t43.5 -22t54 -7
q71 0 105.5 52t34.5 138q0 40 -7 73.5t-23 58.5t-43 39t-67 14q-18 0 -39 -6t-40.5 -19t-36 -33.5t-25.5 -49.5l-66 33v335h324q9 0 20.5 1t22.5 4t18.5 9t7.5 17q0 7 -4 11q-6 -7 -18 -7q-11 0 -18.5 6.5t-7.5 17.5q0 13 8 20.5t20 7.5q26 0 39 -21t13 -47q0 -23 -6.5 -44
t-20 -36.5t-35 -24.5t-51.5 -9h-253v-186q10 15 24 25v137h234q58 0 93 35t35 99q0 11 -5 28t-16 25l4 5q14 -5 23 -23t9 -35zM382 305q-14 30 -42.5 47t-63.5 17q-26 0 -46 -10t-35.5 -26.5t-26 -38t-17.5 -45.5l-76 38l-7 22l74 -37q17 50 50 82.5t84 32.5q43 0 72.5 -22
t40.5 -58zM559 221q0 -71 -21 -122.5t-58.5 -84.5t-91 -49t-117.5 -16q-79 0 -133.5 25.5t-79.5 76.5l5 4q35 -47 83 -69t125 -22q62 0 112.5 15t86.5 46t55.5 79.5t19.5 116.5q0 45 -15 88t-39 72l6 3q26 -23 44 -68t18 -95zM274 45q-55 0 -85 29.5t-30 77.5q0 16 1 33.5
t3 32.5l14 -6q-3 -29 -3 -60q0 -40 26 -67t74 -32v-8v0z" />
    <glyph glyph-name="six" unicode="6" horiz-adv-x="572" 
d="M512 524q-14 -6 -36.5 -17t-44.5 -25l-16 6q20 14 42.5 27.5t48.5 23.5l6 -15v0zM357 570q-27 30 -72 30q-33 0 -54.5 -17t-34.5 -44t-19.5 -60t-9.5 -65l-16 -24q2 36 7.5 75.5t20 73t40 55t66.5 21.5q22 0 43.5 -10t35.5 -30zM382 323q-14 23 -36 37t-54 14
q-33 0 -55 -28t-36 -66l-6 -1q3 19 10.5 38.5t19 35.5t28 26.5t38.5 10.5q35 0 58 -17.5t36 -46.5zM510 232q0 -54 -15.5 -99t-45.5 -77.5t-73 -51t-98 -18.5q-72 0 -121 32.5t-79.5 83.5t-44 112.5t-13.5 120.5q0 69 16 132t48.5 111.5t82.5 77.5t118 29q77 0 125.5 -29
t86.5 -94q-25 -10 -54 -26t-50 -33q0 62 -27 98t-82 36q-37 0 -63.5 -15t-44 -39.5t-27.5 -56.5t-15 -65.5t-6.5 -66t-1.5 -59.5q0 -43 5 -95t21.5 -97.5t46.5 -76t80 -30.5q40 0 66 18t41.5 46.5t21.5 63.5t6 68q0 32 -5 64.5t-18.5 58.5t-37.5 42.5t-62 16.5
q-30 0 -51 -11.5t-34 -30t-19.5 -40.5t-7.5 -43q0 -7 -6 -9.5t-12 -2.5q-12 0 -15.5 13.5t-3.5 22.5q1 31 13.5 58t33 47t48 31.5t59.5 11.5q53 0 93 -17t67 -48t40.5 -73t13.5 -91zM552 223q0 -61 -19 -112t-53.5 -87.5t-83 -56.5t-108.5 -20q-74 0 -131 33t-79 92l5 3
q33 -56 83 -84t121 -28q57 0 102.5 18.5t78 53t50 82t17.5 106.5q0 48 -17 93.5t-41 71.5l4 4q15 -11 28 -29.5t22.5 -41.5t15 -48t5.5 -50zM293 46q-38 0 -63.5 19t-42 50t-24.5 70t-10 78l16 -1q3 -35 9.5 -70.5t21 -64.5t37 -49t56.5 -24v-8v0z" />
    <glyph glyph-name="seven" unicode="7" horiz-adv-x="556" 
d="M534 657q-2 -58 -17 -107.5t-35.5 -95.5t-44 -90t-43.5 -91t-33 -98.5t-13 -112.5v-101h-133l-15 15h132v85q0 61 13 113.5t33.5 100.5t44 93.5t44.5 92.5t36 97.5t18 108.5l13 -10v0zM497 671q0 -62 -14 -111.5t-35 -94t-45.5 -86.5t-45.5 -89t-35 -102.5t-14 -125.5
v-62h-122v32q0 73 14 131t36.5 105t50 84.5t54 69.5t49.5 60t36 55h-246q-1 -21 -4.5 -42.5t-13 -38.5t-27.5 -28t-48 -11q-22 0 -38 11t-22 24v4q11 -13 26 -18.5t33 -5.5q28 0 44 10.5t24 27t10 38t2 44.5h267q3 9 3 17q0 2 -0.5 4t-0.5 3h-293v-18q0 -21 -1.5 -39.5
t-8 -32.5t-19 -22t-33.5 -8q-26 0 -45.5 11.5t-19.5 37.5q0 11 6 20t20 9q13 0 19 -7.5t6 -17.5q0 -11 -7 -18q3 -4 12 -4q8 0 12.5 5.5t6.5 13.5t2.5 16.5t0.5 14.5v134h404z" />
    <glyph glyph-name="eight" unicode="8" horiz-adv-x="612" 
d="M428 569q-5 16 -26 24.5t-39 8.5q-16 0 -22 -5.5t-9 -12.5t-8 -12.5t-20 -6.5l-3 2q10 5 13 13.5t7.5 16.5t13 13.5t28.5 5.5q23 0 43.5 -12.5t25.5 -32.5zM550 187q0 -51 -21 -88.5t-57 -62.5t-83 -37.5t-98 -12.5q-47 0 -95.5 9.5t-87.5 32.5t-63.5 62t-24.5 98
q0 43 15.5 73.5t39.5 52t53.5 37t58.5 28.5q-23 10 -46 23t-42.5 31.5t-31.5 43t-12 57.5q0 35 17 61.5t43.5 48.5t59 39.5t63.5 34.5t56 34t38 37q-11 3 -18.5 10.5t-7.5 21.5t9 23t23 9q22 0 31 -14t9 -31q0 -27 -17 -48t-42 -38t-54.5 -33t-54.5 -34t-42 -40.5t-17 -52.5
q0 -27 18 -47.5t44 -36.5t55 -27t51 -19l32 14q-20 6 -49.5 17t-58 25.5t-48.5 33t-20 40.5q0 26 16.5 45t41.5 36t53.5 33t53.5 35t41.5 42.5t16.5 54.5q0 8 -3 19.5t-16 20.5l3 1q17 -5 23.5 -18.5t6.5 -22.5q0 -34 -16.5 -59t-41 -45t-53.5 -36.5t-53.5 -32.5t-41 -33.5
t-16.5 -39.5q0 -18 21 -34.5t49.5 -30.5t59 -25t48.5 -17q30 18 53 42.5t23 54.5q0 39 -19.5 61.5t-57.5 22.5q-17 0 -37.5 -6.5t-25.5 -24.5q-2 -7 -6.5 -14t-15.5 -7t-16.5 6.5t-5.5 15.5q0 16 10.5 29t26 22t33.5 14t34 5q59 0 94 -32t35 -92q0 -27 -10 -48t-26.5 -38
t-38 -30.5t-43.5 -25.5q38 -16 70 -37.5t55.5 -49.5t36.5 -62t13 -74zM592 187q0 -63 -27 -108.5t-70 -75t-96.5 -43t-107.5 -13.5q-23 0 -50 3.5t-54 12.5t-51.5 24t-42.5 37v4q21 -18 45.5 -31t50.5 -20.5t52 -11t50 -3.5q53 0 104 13t91 41t64.5 70t24.5 101
q0 36 -11.5 69t-31.5 61.5t-46.5 52t-57.5 41.5q17 10 33 23t28 28.5t19.5 35.5t7.5 45q0 23 -12 53t-33 44h2q13 -5 24 -15.5t18.5 -24t12 -28.5t4.5 -29q0 -47 -21 -78t-53 -53q58 -36 96 -92.5t38 -132.5zM452 161q0 37 -14.5 64t-38.5 47.5t-54 36t-61 27.5
q-26 -13 -50 -27t-43 -31.5t-30.5 -40t-11.5 -51.5q0 -32 13.5 -56.5t35.5 -42t51 -26.5t60 -9v-6q-33 0 -64.5 8.5t-57 26t-41 44t-15.5 62.5q0 54 36 90t98 66q-8 3 -15.5 6t-14.5 7q-23 -12 -46 -26.5t-41 -34.5t-29.5 -45t-11.5 -58q0 -43 15 -72.5t40.5 -48t58.5 -27
t69 -8.5q32 0 61 7.5t51.5 23t36 39t13.5 55.5z" />
    <glyph glyph-name="nine" unicode="9" horiz-adv-x="570" 
d="M337 569q-11 14 -34 22t-45 8q-50 0 -79.5 -38.5t-29.5 -105.5t29.5 -105.5t74.5 -44.5l-1 -8q-54 0 -86 43.5t-32 114.5q0 69 31 114t93 45q23 0 47.5 -11t38.5 -31zM511 372q0 -92 -26 -165.5t-76 -124.5t-123.5 -78t-169.5 -27q-8 0 -19 0.5t-19 2.5l6 31
q133 0 207.5 66.5t103.5 191.5q-27 -38 -72 -57.5t-92 -19.5q-58 0 -106 20t-73 73l7 5q31 -48 75 -65t98 -17q57 0 101 26.5t67 70.5q2 16 3 31.5t1 32.5q0 42 -5.5 89t-21.5 87t-45.5 66t-77.5 26q-35 0 -62 -15t-45 -40t-27.5 -58t-9.5 -69q0 -30 7 -60t22.5 -54
t39.5 -39t59 -15q50 0 81.5 24t39.5 73q1 6 5.5 15t13.5 9q11 0 14 -8.5t3 -17.5q0 -31 -13 -58t-35.5 -47t-53 -31.5t-65.5 -11.5q-102 0 -160 58.5t-58 160.5q0 53 18 96t50.5 73t77 46.5t98.5 16.5q66 0 114 -27.5t80 -71.5t47.5 -100.5t15.5 -113.5zM550 362
q0 -100 -29 -179t-84.5 -133.5t-136.5 -83t-184 -28.5q-7 0 -11.5 1t-9.5 1l-10 15q8 -1 15.5 -1.5t15.5 -0.5q100 0 178.5 27.5t131.5 80t81 128.5t28 173q0 33 -5.5 68t-16.5 67.5t-27.5 60.5t-38.5 47l5 3q24 -17 42.5 -44t31 -60.5t18.5 -70t6 -71.5z" />
    <glyph glyph-name="colon" unicode=":" horiz-adv-x="261" 
d="M172 414q0 -29 -18.5 -48t-47.5 -19t-47.5 19t-18.5 48t18.5 48.5t47.5 19.5t47.5 -19.5t18.5 -48.5zM211 402q0 -41 -23 -67t-70 -26q-20 0 -37.5 9.5t-25.5 26.5l4 4q8 -10 21.5 -17.5t36.5 -7.5q43 0 61 23.5t18 54.5q0 15 -6.5 31t-15.5 24l3 4q13 -5 23.5 -22
t10.5 -37zM172 61q0 -29 -18.5 -48t-47.5 -19t-47.5 19t-18.5 48t18.5 48.5t47.5 19.5t47.5 -19.5t18.5 -48.5zM211 49q0 -41 -23 -67t-70 -26q-20 0 -37.5 9.5t-25.5 26.5l4 4q8 -10 21.5 -17.5t36.5 -7.5q43 0 61 23.5t18 54.5q0 15 -6.5 31t-15.5 24l3 4q13 -5 23.5 -22
t10.5 -37z" />
    <glyph glyph-name="semicolon" unicode=";" horiz-adv-x="270" 
d="M172 414q0 -29 -18.5 -48t-47.5 -19t-47.5 19t-18.5 48t18.5 48.5t47.5 19.5t47.5 -19.5t18.5 -48.5zM211 402q0 -41 -23 -67t-70 -26q-20 0 -37.5 9.5t-25.5 26.5l4 4q8 -10 21.5 -17.5t36.5 -7.5q43 0 61 23.5t18 54.5q0 15 -6.5 31t-15.5 24l3 4q13 -5 23.5 -22
t10.5 -37zM62 -72q15 2 30.5 7t28.5 15.5t21.5 27.5t9.5 43h-4q-6 -13 -20.5 -20.5t-28.5 -7.5q-21 0 -40 15.5t-19 52.5q0 26 19 46.5t48 20.5q19 0 34 -7t24.5 -19t14.5 -27.5t5 -31.5q0 -35 -8.5 -60t-23.5 -42t-35.5 -27t-43.5 -15zM194 95q12 -13 19 -32.5t7 -36.5
q0 -69 -28.5 -103.5t-83.5 -50.5l-17 11q50 11 82 43.5t32 99.5q0 16 -5 34t-14 32zM53 -1q9 -14 23 -19t27 -5q14 0 31 6l-8 -14q-11 -4 -25 -4t-29 6.5t-25 24.5z" />
    <glyph glyph-name="less" unicode="&#x3c;" horiz-adv-x="545" 
d="M167 218l283 122v122l15 -13v-119l-281 -120l241 -109v-101l-365 195v74l365 195v-101l-285 -126v-6zM450 -41v128l15 -12v-140l-380 197l-13 24z" />
    <glyph glyph-name="equal" unicode="=" horiz-adv-x="435" 
d="M36 332v67h308v-67h-308zM368 387l15 -13v-81h-322l-13 14h320v80zM36 192v67h308v-67h-308zM368 247l15 -13v-81h-322l-13 14h320v80z" />
    <glyph glyph-name="greater" unicode="&#x3e;" horiz-adv-x="545" 
d="M319 210l-222 94l-8 19l248 -105l28 13v6l-285 126v101l365 -195v-74l-365 -195v101zM470 176v81l15 -10v-80l-362 -189h-31z" />
    <glyph glyph-name="question" unicode="?" horiz-adv-x="481" 
d="M457 506q0 -50 -15 -85t-37 -61t-48 -46t-48.5 -41.5t-37.5 -47t-16 -61.5h-13q0 39 15 66.5t37 49.5t48 42.5t48 45.5t37 58t15 81q0 43 -15 74t-41 51l3 3q31 -14 49.5 -48.5t18.5 -80.5zM282 573q-11 14 -30.5 19.5t-36.5 5.5q-26 0 -38 -11t-12 -22q0 -18 21 -34.5
t46 -21.5v-10q-11 -6 -31 -20.5t-41.5 -33t-42.5 -40t-35 -41.5l-9 12q9 14 24.5 31t34 34t39.5 33t41 28q-26 6 -45.5 24.5t-19.5 38.5t18 33.5t48 13.5q22 0 43 -10t28 -27zM420 511q0 -44 -14.5 -75t-36.5 -55.5t-48 -45t-48 -42.5t-36.5 -49.5t-14.5 -65.5
q0 -9 -6 -15.5t-15 -6.5t-15 6t-9.5 15t-4.5 19.5t-1 18.5q0 54 20 95t44.5 77t44.5 71.5t20 78.5t-21.5 71.5t-69.5 28.5q-37 0 -62 -19t-25 -53q0 -24 16 -41.5t34 -25.5q-29 -17 -58.5 -40t-55.5 -59q-13 20 -28 53t-15 70q0 40 15 70t41 50t61 30t76 10q43 0 82 -10
t67.5 -30.5t45.5 -53t17 -77.5zM268 61q0 -29 -18.5 -48t-47.5 -19t-47.5 19t-18.5 48t18.5 48.5t47.5 19.5t47.5 -19.5t18.5 -48.5zM300 50q0 -38 -21.5 -62.5t-64.5 -24.5q-20 0 -38 10t-23 27l1 2q8 -10 21.5 -17.5t36.5 -7.5q39 0 57 22t18 53q0 15 -6.5 29.5
t-15.5 22.5h1q13 -4 23.5 -19t10.5 -35z" />
    <glyph glyph-name="at" unicode="@" horiz-adv-x="773" 
d="M419 88q-22 -34 -55.5 -51t-69.5 -17q-48 0 -76 32t-28 97q0 42 13.5 86t37.5 80t56.5 58.5t69.5 22.5q29 0 48 -12t26 -32h4l7 28h79l-43 -192l-3 -15t-3.5 -20.5t-2.5 -20t-1 -13.5q0 -25 14 -36t34 -11q18 0 33.5 10.5t27 29.5t18.5 45.5t7 57.5q0 61 -16 112
t-47.5 87.5t-77 57t-103.5 20.5q-56 0 -102 -21t-78 -58.5t-49.5 -88t-17.5 -109.5q0 -60 16.5 -112t48 -90.5t77 -60t104.5 -21.5q32 0 68.5 8.5t62.5 25.5l22 -49q-29 -16 -70.5 -26.5t-82.5 -10.5q-72 0 -131 25.5t-100 70.5t-63.5 106.5t-22.5 133.5q0 71 23.5 131
t65.5 104t100.5 68.5t128.5 24.5t128 -24t99.5 -67t64.5 -103.5t23 -133.5q0 -37 -8.5 -71.5t-27.5 -61.5t-49.5 -43t-73.5 -16q-34 0 -62 14.5t-39 50.5h-4zM379 350q-24 0 -44.5 -21.5t-35.5 -53t-24 -66.5t-9 -63q0 -13 1.5 -26.5t6 -25t12.5 -18.5t22 -7q26 0 47.5 21.5
t36.5 52t23 64.5t8 59q0 12 -1.5 26.5t-6 27.5t-13 21.5t-23.5 8.5zM517 91q-19 5 -19 28q0 4 1 13t2.5 18.5t3.5 18.5t3 15l40 181l13 -14l-38 -170l-3 -15t-3.5 -20t-2.5 -18t-1 -9q0 -8 4.5 -13t9.5 -7zM209 36q18 -20 39 -28t50 -8q32 0 63.5 11t55.5 36q19 -29 48 -39
t59 -10q50 0 85 18.5t57 48.5t32 69t10 81q0 71 -19 123.5t-56 97.5l8 5q42 -51 62 -103.5t20 -122.5q0 -45 -11 -86.5t-34.5 -74t-61.5 -52t-92 -19.5q-29 0 -57.5 9.5t-50.5 32.5q-26 -20 -56 -30t-62 -10q-30 0 -55 11t-39 34zM179 61q-36 63 -36 152q0 54 16 100
t45.5 80.5t71 54t92.5 19.5t90 -15.5t67 -42.5l-6 -7q-29 23 -67.5 36.5t-83.5 13.5q-47 0 -86 -18.5t-66.5 -51t-42.5 -76t-15 -93.5q0 -41 5.5 -79t22.5 -67zM401 298q-8 16 -19 16q-16 0 -30.5 -18t-25.5 -44.5t-17.5 -56.5t-6.5 -54q0 -14 4 -28t10 -21l-5 -9
q-13 6 -18 22.5t-5 35.5q0 27 7.5 59.5t20.5 61t30 47.5t36 19q20 0 27 -23zM571 -106q-46 -29 -98.5 -42t-105.5 -13q-47 0 -90.5 10.5t-81 31t-67 51t-47.5 71.5l7 5q41 -76 114.5 -115.5t164.5 -39.5q40 0 90 9.5t95 37.5l-25 54l18 -8z" />
    <glyph glyph-name="B" unicode="B" horiz-adv-x="662" 
d="M617 493q0 -32 -9 -57t-24.5 -44.5t-36.5 -33t-44 -22.5q45 -23 73.5 -63t28.5 -94q0 -58 -20 -93.5t-53 -54.5t-75.5 -25t-87.5 -6h-339l76 68v220q-39 -3 -76 -10l-8 14q18 4 39.5 6.5t44.5 4.5v25q-19 -2 -41 -4t-45 -7l23 69q14 -2 34 -4t29 -2v186l-58 32
q26 21 59 37t69 27.5t72.5 17t71.5 5.5q45 0 91 -9t83 -30.5t60.5 -57.5t23.5 -90q0 -51 -34.5 -88t-90.5 -52v-3q17 -4 32 -11q22 8 43 20.5t37.5 31t26.5 42.5t10 55q0 42 -19 74.5t-42 53.5l4 2q12 -8 25 -20t23.5 -28.5t17 -37t6.5 -44.5zM642 169q0 -72 -26.5 -113.5
t-67 -62.5t-90 -26.5t-94.5 -5.5h-290l-20 15h310q45 0 92 5t85 24.5t62 58t24 105.5q0 24 -6.5 45.5t-17 39.5t-22.5 32.5t-24 23.5l3 3q14 -8 28.5 -21.5t26.5 -32t19.5 -41.5t7.5 -49zM461 507q0 64 -38.5 96t-98.5 32q-29 0 -59.5 -7.5t-51.5 -21.5v-230h24v216
q19 9 43 15t46 6q13 0 29 -2.5t31.5 -8.5t29 -15.5t22.5 -23.5l-2 -3q-22 20 -53 29.5t-57 9.5q-17 0 -37 -4.5t-37 -11.5v-207h25q33 0 66 4t59.5 18t42.5 39.5t16 69.5zM479 189q0 50 -21 78t-53 41.5t-72 16.5t-77 3h-43v-277h24v252h39q25 0 50 -2t48 -8t43 -17.5
t37 -30.5l-4 -5q-20 18 -41.5 27.5t-43.5 14t-42 5.5t-35 1h-36v-237h39q49 0 84.5 6.5t58.5 22.5t34 42.5t11 66.5z" />
    <glyph glyph-name="C" unicode="C" horiz-adv-x="611" 
d="M591 618q-18 -28 -41.5 -78.5t-49.5 -116.5l-12 10q22 57 44 106.5t49 93.5zM566 655q-13 -22 -27 -48t-26.5 -53t-23.5 -52.5t-19 -46.5l-4 2q-1 30 -8 61t-23.5 57t-43 42.5t-65.5 16.5q-59 0 -95.5 -32t-56.5 -78t-27 -97.5t-7 -91.5q0 -54 9.5 -107.5t31 -95.5
t56 -68.5t85.5 -26.5q41 0 73.5 13.5t55 37t34.5 56t12 71.5q0 7 4.5 16t18.5 9q12 0 16.5 -9.5t4.5 -20.5q0 -51 -15 -92t-44 -70.5t-71.5 -45.5t-97.5 -16q-76 0 -131 27.5t-91 75t-53.5 110.5t-17.5 135q0 74 17.5 138t54 111.5t91.5 74.5t130 27q36 0 61.5 -7.5
t46.5 -16t41 -16t45 -7.5q13 0 28.5 5t26.5 13zM573 179q0 -53 -18.5 -96t-53 -73t-82.5 -46.5t-106 -16.5t-101 16t-64 46l3 5q29 -26 67.5 -39t94.5 -13q60 0 107 18t79.5 50.5t49.5 78t17 101.5l5 -1q1 -8 1.5 -15t0.5 -15zM421 559q-19 22 -44.5 29.5t-47.5 7.5
q-47 0 -76 -26.5t-45.5 -65.5t-22.5 -84.5t-6 -84.5q0 -100 30.5 -172.5t79.5 -101.5l-3 -7q-30 12 -53 38.5t-38 64t-23 83t-8 95.5q0 37 6 85t24 90.5t50 71.5t85 29q30 0 57 -12t42 -38z" />
    <glyph glyph-name="D" unicode="D" 
d="M611 337q0 -93 -23 -157t-64.5 -104t-100 -58t-130.5 -18h-273l76 68v533l-76 70h273q318 0 318 -334zM655 327q0 -97 -22.5 -166t-67.5 -113.5t-113 -65.5t-159 -21h-229l-20 15h249q88 0 153 20t108 62.5t64.5 109t21.5 159.5q0 37 -5.5 74.5t-16.5 71.5t-27 63.5
t-36 51.5l5 2q22 -19 39.5 -47.5t30 -63t19 -73.5t6.5 -79zM494 338q0 143 -49 212.5t-161 69.5h-81v-569h24v545h77q16 0 33 -2t33.5 -7.5t30.5 -15.5t23 -26l-3 -3q-11 13 -25.5 20.5t-30.5 11.5t-32 5.5t-29 1.5h-62v-530h42q60 0 100.5 20.5t65 58t34.5 90.5t10 118z
" />
    <glyph glyph-name="E" unicode="E" horiz-adv-x="668" 
d="M616 642q-33 -45 -53.5 -82.5t-36.5 -75.5l-13 10q6 16 16 36t22.5 41.5t26.5 43t29 39.5l9 -12v0zM446 234v224l15 -14v-224zM32 0l76 69v227q-26 0 -46 -13t-29 -26l-12 9q15 18 36 31t51 14v24q-26 0 -53.5 -13.5t-44.5 -32.5q0 45 27.5 71t70.5 27v214l-76 70h556
q-29 -39 -51 -78.5t-44 -83.5q-11 24 -22.5 44.5t-27.5 35.5t-38.5 23t-55.5 8h-134v-233h24v209h110q14 0 31 -2t33.5 -8t30 -15.5t20.5 -24.5l-4 -3q-10 12 -24.5 19.5t-30.5 11.5t-31 5.5t-25 1.5h-95v-194h99l66 86h3v-224h-3l-66 86h-138v-284h24v260h114l11 -15h-110
v-245h49q42 0 71 3.5t51.5 16.5t42.5 37.5t43 66.5q10 -29 20 -51.5t21 -42.5t25 -39.5t32 -41.5h-577zM627 -39h-561l-13 15h565l20 23q-19 23 -33 42.5t-25.5 38t-20 37t-15.5 41.5l20 -8q5 -16 12.5 -31.5t18 -33.5t26 -39t37.5 -48z" />
    <glyph glyph-name="F" unicode="F" horiz-adv-x="616" 
d="M616 642q-33 -45 -52.5 -81t-36.5 -75l-13 10q6 16 16 35.5t22 40.5t26 42.5t29 39.5l9 -12v0zM446 221v224l15 -14v-224zM588 671q-29 -39 -51 -78.5t-44 -83.5q-11 24 -23 44.5t-28 35.5t-38 23t-55 8h-134v-246h24v222h110q14 0 30.5 -2t32 -8t28.5 -15.5t20 -24.5
l-6 -2q-21 22 -52 29.5t-53 7.5h-95v-207h99l66 86h3v-224h-3l-66 86h-138v-254l76 -68h-259l76 68v215q-23 0 -43 -14t-32 -27l-12 9q14 17 35.5 31t51.5 16v24q-26 0 -53.5 -13.5t-44.5 -32.5q0 45 27.5 71t70.5 27v227l-76 70h556v0zM239 298h114l13 -15h-112v-207
l81 -73l-27 -42h-242l-15 15h248l16 24l-76 69v229z" />
    <glyph glyph-name="G" unicode="G" 
d="M622 628q-23 -42 -45 -87t-45 -95l-12 12q23 50 46 95.5t46 89.5zM540 303v-235l66 -68h-294q-78 0 -133 24.5t-90.5 69.5t-52 107t-16.5 137q0 72 17 135.5t52.5 110.5t90 74t129.5 27q37 0 65.5 -6.5t54 -14t51 -13.5t57.5 -6q14 0 31 5.5t28 14.5l4 -3
q-58 -91 -100 -191l-4 2q-5 33 -18 62t-34 51t-51 35t-69 13q-53 0 -88.5 -27.5t-56.5 -70t-30 -95t-9 -103.5q0 -54 9 -105.5t32 -92t63 -65t103 -24.5h86v238h-73q-8 0 -23 1t-31 4.5t-29.5 11.5t-19.5 23l2 2q20 -17 44 -22.5t57 -5.5h73v25h-97q-15 0 -31.5 3t-30.5 11
t-23 22t-9 37q0 21 11.5 37.5t34.5 16.5q17 0 27 -10.5t10 -27.5q0 -25 -26 -30q7 -5 15.5 -6t19.5 -1h281zM453 538q-26 29 -55 43t-72 14q-39 0 -66.5 -20t-45.5 -55t-26.5 -82t-8.5 -100q0 -47 8 -90t24 -78t40.5 -60t56.5 -36l-2 -7q-38 9 -64.5 34.5t-44 62.5t-25.5 82
t-8 92q0 52 8.5 101t27.5 87t49.5 61t75.5 23q40 0 74.5 -15.5t60.5 -53.5zM312 -39q-65 0 -109.5 17.5t-62.5 42.5l4 5q23 -23 67 -36.5t101 -13.5h307l16 24l-71 75v218l65 67l10 -10l-60 -64v-204l76 -79l-27 -42h-316z" />
    <glyph glyph-name="H" unicode="H" horiz-adv-x="738" 
d="M449 -39l-15 15h248l16 24l-76 69v521l68 64l10 -11l-63 -59v-508l81 -73l-27 -42h-242zM246 289q24 -3 54 -5.5t62 -2.5q15 0 32.5 1t35 2.5t33.5 3t28 3.5v25q-11 -2 -27 -3.5t-34 -3t-35.5 -2.5t-32.5 -1q-38 0 -73.5 2.5t-66.5 7.5v-248l76 -68h-260l77 68v215
q-32 -2 -47 -10.5t-26 -19.5l-10 10q16 15 33.5 24t49.5 11v24q-26 -1 -52 -11t-43 -28q0 45 26.5 68.5t68.5 27.5v222l-77 70h259l-75 -70v-224l24 -3v216l68 64l10 -11l-63 -59v-212q20 -3 44.5 -4t54.5 -1q14 0 32 0.5t36 2t34.5 3t28.5 3.5v225l-76 70h258l-75 -70v-533
l75 -68h-258l76 68v209q-25 -5 -61 -7.5t-68 -2.5q-28 0 -54.5 1.5t-46.5 3.5v-196l81 -73l-27 -42h-242l-15 15h248l16 24l-76 69v220z" />
    <glyph glyph-name="I" unicode="I" horiz-adv-x="343" 
d="M54 -39l-15 15h248l16 24l-76 69v521l68 64l10 -11l-63 -59v-508l81 -73l-27 -42h-242zM20 0l76 68v533l-76 70h259l-76 -70v-533l76 -68h-259z" />
    <glyph glyph-name="J" unicode="J" horiz-adv-x="547" 
d="M464 584v-369q0 -23 4.5 -35t25.5 -20q-8 -58 -28.5 -98.5t-53.5 -66t-77 -37t-97 -11.5q-48 0 -91 19t-60 45l4 7q9 -11 25.5 -21t36 -18t42 -12.5t43.5 -4.5q48 0 89 10t72 33t51 59t28 89q-18 8 -23.5 21.5t-5.5 40.5v375l68 64l10 -11zM425 601v-386q0 -15 1 -25.5
t3.5 -18.5t8 -14.5t14.5 -13.5q-11 -77 -67 -117t-150 -40q-69 0 -116.5 32.5t-69.5 91.5q-8 21 -15 45.5t-24 42.5q33 16 65.5 35t66.5 51l2 -3q-8 -21 -10 -45.5t-2 -52.5q0 -24 6 -50t18 -47.5t30.5 -35t44.5 -13.5q27 0 44 10.5t26.5 28t13 39t3.5 44.5v442l-76 70h259z
M236 48q-38 5 -58.5 43t-20.5 88q0 29 1.5 52.5t6.5 43.5l13 -12q-4 -19 -5 -39t-1 -45q0 -50 20 -84.5t49 -39.5z" />
    <glyph glyph-name="K" unicode="K" horiz-adv-x="715" 
d="M429 -39l-16 15h258l15 24l-97 72l-177 359l59 75q19 25 38 46t41 38.5t48.5 32.5t61.5 27l13 -11q-35 -13 -62 -27.5t-49.5 -32t-42 -39t-39.5 -46.5l-51 -65l171 -347l105 -78l-25 -43h-251zM323 3l-27 -42h-244l-15 15h250l16 24l-76 69v139l94 114l-11 24l-107 -129
v-149l76 -68h-259l76 68v533l-76 70h259l-76 -70v-311l24 30v270l68 64l10 -11l-63 -59v-246l173 208q10 11 16.5 27t6.5 32q0 14 -6.5 24.5t-16.5 18t-22 13t-22 10.5h278q-71 -26 -119 -68.5t-89 -95.5l-58 -73l180 -366l94 -68h-263l52 68l-118 239l-86 -105v-126z" />
    <glyph glyph-name="L" unicode="L" horiz-adv-x="629" 
d="M20 0l76 68v533l-76 70h259l-76 -70v-550h24v539l68 64l10 -11l-63 -59v-533h64q54 0 95.5 36t60.5 118h5q7 -35 16.5 -63t21 -52t25.5 -46t32 -44h-542zM582 -39h-526l-20 15h537l16 23q-38 45 -62.5 98t-35.5 105l21 -14q7 -36 30.5 -86.5t65.5 -102.5z" />
    <glyph glyph-name="M" unicode="M" horiz-adv-x="797" 
d="M474 0l76 68v340l-165 -447h-38l-15 15h43l175 474v71l-192 -521h-36l-138 408v-262q0 -39 5.5 -63.5t16 -39t24 -22t30.5 -14.5l10 -4l-23 -42h-190l-15 15h196l11 22q-20 7 -34.5 16.5t-25 25t-15.5 41t-5 65.5v306l-21 62h-3v-354q0 -22 1.5 -45t8.5 -45t22 -40
t41 -30h-198q42 24 59 62.5t17 96.5v442l-76 70h278l-78 -70l146 -428l14 36l-132 384l66 60l10 -11l-59 -53l123 -358l145 386l-59 54h259l-76 -70v-533l76 -68h-259zM508 -39l-15 15h248l16 24l-76 69v521l68 64l10 -11l-63 -59v-508l81 -73l-27 -42h-242z" />
    <glyph glyph-name="N" unicode="N" horiz-adv-x="635" 
d="M625 645q-18 -10 -29.5 -22t-18 -28t-8.5 -36.5t-2 -47.5v-550h-102l-15 15h102v535q0 22 1.5 44t8 41t20 34t36.5 23l7 -8v0zM601 671q-26 -12 -41 -30t-22 -40t-8.5 -45t-1.5 -45v-511h-97l-247 472v-332q0 -42 7 -66.5t19 -38t28 -20.5t33 -15l-24 -39h-192l-15 15
h198l12 19q-20 7 -35 16t-25 24t-15.5 40t-5.5 65v361l-19 33h-5v-374q0 -22 1.5 -45t8.5 -45t22 -40t41 -30h-198q42 24 59 63t17 96v442l-76 70h274l-66 -59l251 -479v54l-221 420l53 46l9 -11l-44 -39l203 -385v295q0 58 -17 96t-59 62h198v0z" />
    <glyph glyph-name="O" unicode="O" horiz-adv-x="655" 
d="M635 335q0 -78 -19.5 -148.5t-60 -123.5t-102 -84.5t-144.5 -31.5q-36 0 -67 7.5t-56 20.5t-43.5 29t-29.5 34l5 4q33 -35 80 -57.5t111 -22.5q79 0 137.5 29.5t97 80.5t57.5 119t19 144q0 51 -10 96.5t-27 84t-40 68.5t-48 50l6 3q65 -42 99.5 -120.5t34.5 -181.5z
M596 335q0 -74 -18.5 -137.5t-54.5 -110.5t-90 -74t-125 -27q-75 0 -129 28t-89.5 75.5t-52.5 111t-17 134.5q0 76 18.5 140t54.5 110.5t90 73t125 26.5q78 0 132.5 -29t89 -78t50.5 -112t16 -131zM475 335q0 39 -7.5 91t-26 98t-51 78t-82.5 32q-34 0 -59.5 -14.5
t-44 -38.5t-31 -55t-19.5 -64.5t-10 -66.5t-3 -60q0 -55 9 -108.5t29.5 -95.5t52 -68t76.5 -26q44 0 75.5 26t52 68t30 95.5t9.5 108.5zM405 553q-22 23 -45.5 32.5t-49.5 9.5q-39 0 -64.5 -29t-40 -69.5t-20 -85.5t-5.5 -76q0 -48 8 -93t22.5 -82t34.5 -62.5t44 -35.5
l-2 -7q-31 10 -53.5 36.5t-37.5 64.5t-22.5 84.5t-7.5 94.5q0 21 2.5 49t8.5 58.5t16.5 60.5t26.5 53.5t38 38t52 14.5q27 0 54.5 -12.5t46.5 -40.5z" />
    <glyph glyph-name="P" unicode="P" horiz-adv-x="624" 
d="M578 488q0 -66 -27 -106t-67 -61.5t-86.5 -28t-85.5 -6.5q-24 0 -51 1.5t-50 4.5v-224l76 -68h-259l76 68v189q-26 0 -38.5 -6.5t-23.5 -16.5l-15 6q11 11 28 21.5t49 10.5v24q-29 0 -53 -9.5t-41 -29.5q0 45 26 68t68 27v249l-76 70h276q46 0 94.5 -4.5t88.5 -23
t65.5 -55t25.5 -100.5zM457 487q0 36 -12 61.5t-33 41t-49.5 23t-60.5 7.5h-91v-274q3 -1 12.5 -2t11.5 -1v253h77q16 0 33.5 -2t34.5 -7.5t31 -15.5t23 -26l-2 -3q-11 13 -26 20.5t-31.5 11.5t-33 5.5t-29.5 1.5h-62v-239q5 -1 20 -1.5t27 -0.5q29 0 57.5 6.5t51.5 23
t37 45t14 72.5zM235 268q17 -2 36 -3.5t37 -1.5q45 0 96 6.5t94.5 30t72 68t28.5 119.5q0 47 -18.5 84t-47.5 58l5 6q34 -19 55 -59.5t21 -88.5q0 -81 -31 -128t-77 -71.5t-99.5 -31.5t-98.5 -7q-30 0 -58 3v-176l81 -73l-27 -42h-242l-15 15h248l16 24l-76 69v199z" />
    <glyph glyph-name="Q" unicode="Q" horiz-adv-x="656" 
d="M635 335q0 -48 -7.5 -94.5t-23.5 -88.5t-39.5 -77.5t-55.5 -61.5q5 -4 13 -5.5t13 -1.5q29 0 53 8l11 -13q-21 -6 -37 -7.5t-27 -1.5q-19 0 -29 5t-21 16q34 24 59.5 59t42 76.5t25 89t8.5 97.5q0 52 -10 97.5t-27.5 84t-40 68t-46.5 49.5l4 4q65 -42 100 -119.5
t35 -183.5zM606 -23q-23 -23 -44.5 -53t-29.5 -55q-51 2 -89 22.5t-58 63.5q-38 -8 -75 -8q-72 0 -123.5 27t-72.5 64l4 4q33 -35 80.5 -57.5t111.5 -22.5q36 0 68 6l-10 23q-14 -2 -28.5 -3.5t-29.5 -1.5q-73 0 -127.5 27t-90.5 74.5t-54 111t-18 136.5q0 76 18.5 140.5
t54.5 111t89.5 72.5t124.5 26t125 -26t90.5 -72.5t55 -110.5t18.5 -141q0 -106 -37.5 -190.5t-112.5 -126.5q18 -21 36.5 -36t48.5 -15q21 0 37.5 3t35.5 11zM636 -45q-20 -20 -35.5 -43t-23.5 -40l-18 -2q14 29 28.5 49.5t37.5 47.5l11 -12v0zM475 335q0 27 -3 59.5
t-10.5 65.5t-19.5 64.5t-30.5 56t-44 39t-58.5 14.5q-34 0 -59.5 -14.5t-44.5 -39t-31 -56t-19.5 -64.5t-10.5 -65.5t-3 -59.5q0 -57 10 -110.5t30.5 -95t52 -67t75.5 -25.5q17 0 35 5q-12 20 -27.5 36t-38.5 18l29 39q29 -1 53.5 -18.5t38.5 -37.5q8 6 16 18q-19 22 -39 38
t-50 20l11 12q30 -7 48 -20t39 -37q26 42 38.5 102.5t12.5 122.5zM404 553q-22 23 -45 32.5t-47 9.5q-28 0 -48.5 -14t-35 -36.5t-24 -51t-15 -57.5t-7.5 -55.5t-2 -45.5q0 -47 8 -92t22 -82t34 -63t44 -36l-2 -7q-31 10 -53.5 37t-37.5 65t-22 84t-7 94q0 32 5.5 78.5
t21.5 90t44.5 74.5t74.5 31q27 0 53.5 -13t44.5 -40z" />
    <glyph glyph-name="R" unicode="R" horiz-adv-x="649" 
d="M448 299q22 -44 42 -78t43.5 -66t53.5 -66.5t72 -79.5q-51 -14 -100.5 -31t-90.5 -44l-16 8q35 23 84 42.5t97 30.5q-37 39 -65.5 73t-52 67.5t-44.5 70.5t-42 82q31 10 61 26t53 39t37 53.5t14 70.5q0 48 -17.5 82t-42.5 55l5 3q26 -14 48 -50.5t22 -89.5
q0 -42 -13.5 -73.5t-35.5 -55t-51.5 -40.5t-60.5 -29zM449 509q0 64 -33.5 95t-96.5 31q-32 0 -64 -8.5t-53 -22.5v-265l24 3v246q20 11 47.5 16.5t53.5 5.5q28 0 55 -9.5t44 -35.5l-7 -3q-19 21 -43.5 27.5t-48.5 6.5q-20 0 -44.5 -4.5t-41.5 -12.5v-235q36 4 73 13.5
t67 28.5t49 48.5t19 74.5zM226 268q30 2 59.5 6.5t59.5 10.5q-3 5 -5.5 11t-4.5 12q-35 -8 -70.5 -12t-62.5 -6v-222l76 -68h-259l76 68v176q-13 -1 -21.5 -2t-16 -2t-15.5 -2.5t-20 -3.5l-10 15q18 3 37.5 5.5t45.5 4.5v25q-19 -2 -40.5 -4t-44.5 -7l23 69q7 -1 16 -2
l18 -2t16.5 -1.5t11.5 -0.5v230l-65 32q26 22 60 38t71.5 27t76.5 16.5t75 5.5q46 0 92 -7.5t82.5 -28.5t59.5 -57t23 -93q0 -36 -14.5 -64.5t-38.5 -49.5t-56 -36.5t-66 -25.5q19 -44 39 -81.5t42.5 -72.5t50 -69.5t62.5 -72.5q-22 -6 -40 -12t-35 -12.5t-34 -15.5t-38 -21
q-6 37 -16.5 77t-23.5 79.5t-26.5 77.5t-25.5 71q-27 -5 -54.5 -9.5t-54.5 -7.5v-178l81 -73l-27 -42h-242l-15 15h248l16 24l-76 69v199z" />
    <glyph glyph-name="S" unicode="S" horiz-adv-x="622" 
d="M410 555q-21 20 -54 32t-62 12q-38 0 -61.5 -16t-23.5 -48q0 -33 19 -57.5t45 -38.5l-3 -6q-32 12 -54 36t-22 66t29 60.5t71 18.5q30 0 65 -13t58 -44zM563 189q0 -51 -19.5 -89.5t-53 -63.5t-78.5 -37.5t-96 -12.5q-36 0 -67 8.5t-59.5 18t-56 18t-56.5 8.5
q-19 0 -40 -6t-32 -11q27 43 56 95t48 103q6 -39 20 -73t38.5 -59t60.5 -39t86 -14q28 0 54.5 6.5t46.5 20t32.5 34t12.5 49.5q0 56 -29.5 85.5t-74.5 46.5t-96.5 29t-96.5 33t-74.5 59t-29.5 107q0 47 19 81t50 56t71 32.5t82 10.5q40 0 70 -6t55 -13.5t46 -13.5t43 -6
q12 0 25 4.5t24 11.5l4 -2q-26 -42 -48 -82.5t-41 -88.5l-3 2q-6 31 -19.5 57.5t-34 46t-48 31t-61.5 11.5q-21 0 -43 -4.5t-40 -16t-30 -30.5t-12 -48q0 -36 17 -59t44.5 -38.5t63 -26.5t73 -22t73 -25.5t63 -37t44.5 -56.5t17 -84zM449 168q-21 28 -54.5 44.5t-71.5 28.5
t-77.5 22.5t-73.5 26t-59 40t-34 64.5l4 4q16 -38 44.5 -60.5t63.5 -36.5t73.5 -23.5t74 -22t65.5 -32t48 -53.5zM602 184q0 -63 -24.5 -108t-64.5 -73.5t-91.5 -42t-105.5 -13.5q-33 0 -64.5 8.5t-61 18t-57.5 18t-56 8.5q-14 0 -27.5 -3.5t-26.5 -8.5l-10 12q15 7 31 11
t33 4q26 0 54 -8.5t58 -18t62 -18t65 -8.5q53 0 102.5 12.5t87 39.5t60 69t22.5 101q0 57 -22.5 92t-54.5 60l2 4q36 -15 62.5 -56.5t26.5 -99.5zM323 45q-85 1 -128 37.5t-52 115.5l20 -15q4 -25 14.5 -47.5t29.5 -40.5t47.5 -29.5t69.5 -13.5zM575 629q-26 -42 -45 -80
t-40 -86l-13 10q19 45 39.5 84t49.5 86z" />
    <glyph glyph-name="T" unicode="T" horiz-adv-x="686" 
d="M636 671q-20 -37 -39 -81t-32 -85q-6 41 -22.5 64t-41 34.5t-55.5 14t-65 2.5v-552l77 -68h-260l76 68v513q-38 0 -63.5 -3t-42.5 -13.5t-27 -31t-17 -54.5l-12 7q6 37 18.5 59t32 33t47 14.5t64.5 3.5v24q-34 0 -64.5 -2.5t-55 -14t-41 -34.5t-22.5 -64
q-6 18 -14.5 39.5t-18 43.5t-19.5 43.5t-19 39.5h616v0zM666 647q-21 -41 -38 -79t-35 -88l-14 11q9 22 17.5 42.5l17 41t18.5 42t24 44.5l10 -14v0zM405 595q49 -1 88.5 -10.5t54.5 -41.5l-7 -2q-14 22 -46.5 30t-74.5 10v-505l81 -73l-27 -42h-242l-15 15h248l16 24
l-76 69v526z" />
    <glyph glyph-name="U" unicode="U" horiz-adv-x="648" 
d="M574 584v-371q0 -26 6 -36t26 -20q-9 -58 -34.5 -98t-63.5 -65t-86.5 -36t-102.5 -11q-65 0 -121 16.5t-92 63.5l6 4q35 -38 90.5 -53.5t116.5 -15.5q49 0 94 10t81 32t61 58t34 89q-17 11 -23 22.5t-6 39.5v377l68 64l10 -11zM321 48q-33 6 -53 22.5t-31.5 39t-15.5 50
t-4 55.5v375l69 64l10 -11l-64 -59v-369q0 -60 19.5 -102.5t73.5 -55.5zM535 601v-388q0 -30 5 -44t23 -28q-18 -78 -84 -116.5t-169 -38.5q-44 0 -85 8.5t-75 27t-58 48t-34 71.5q18 14 23 28t5 44v388l-76 70h259l-76 -70v-388q0 -36 7 -68t24 -56t45 -38t70 -14
q43 0 71 15t45 40t24 56.5t7 64.5v388l-76 70h201z" />
    <glyph glyph-name="V" unicode="V" horiz-adv-x="691" 
d="M759 803q-36 -44 -61 -79.5t-45 -72t-37.5 -78t-37.5 -96.5l-150 -400l68 -76l-21 -40h-245l-14 15h249l13 24l-67 74l153 408q19 50 35.5 91t37 79.5t46.5 77.5t64 84zM730 830q-39 -46 -66.5 -86t-48.5 -80t-38 -82t-36 -92l-158 -422l65 -68h-245l65 68l-196 533
l-72 70h258l-73 -70l171 -463l15 35l-157 421l61 60l10 -11l-54 -53l148 -396l112 305q7 18 17 57.5t10 86.5q0 27 -9.5 57t-29.5 44q29 5 62 14.5t66 21t64.5 25t58.5 25.5z" />
    <glyph glyph-name="W" unicode="W" horiz-adv-x="889" 
d="M772 1l-21 -40h-241l-14 15h245l13 24l-85 85l108 400q13 47 28 89.5t34.5 82t45 78.5t59.5 80l12 -12q-68 -78 -105.5 -160.5t-58.5 -158.5l-106 -394zM455 1l-21 -40h-248l-14 15h252l13 24l-83 83l89 338l-13 45l-99 -372l7 -26l70 -68h-252l68 68l-156 533l-68 70
h248l-68 -70l123 -418l13 46l-109 365l59 60l10 -10l-52 -54l99 -335l109 416h51l139 -483l12 47l-125 432l19 -12l114 -392l76 294q4 14 7.5 38t3.5 45q0 26 -9.5 55.5t-30.5 49.5q21 4 50.5 12t61.5 19t64.5 24.5t61.5 29.5q-50 -60 -96 -140t-75 -189l-108 -404l7 -29
l70 -68h-245l66 66l-95 327l-81 -304z" />
    <glyph glyph-name="Y" unicode="Y" horiz-adv-x="706" 
d="M501 3l-27 -42h-242l-15 15h248l16 24l-76 69v208l164 269q26 42 53.5 82.5t55 75.5t53 62.5t46.5 44.5l9 -13q-54 -46 -107.5 -117.5t-101.5 -150.5l-157 -257v-197zM762 830q-26 -20 -48.5 -44.5t-43 -51t-37.5 -52t-31 -47.5l-221 -351v-216l76 -68h-259l76 68v214
l-199 319l-75 70h252l-55 -64l164 -262l15 24l-148 236l43 51l11 -10l-36 -42l138 -222l135 214q26 43 26 81q0 25 -9 39.5t-27 27.5q21 5 50.5 13.5t63 19.5t69.5 24.5t70 28.5z" />
    <glyph glyph-name="Z" unicode="Z" horiz-adv-x="674" 
d="M229 51h69q42 0 71 3.5t51.5 16.5t42.5 37.5t43 66.5q10 -29 20 -51.5t21.5 -42.5t25 -39.5t31.5 -41.5h-578l368 581h-68q-42 0 -68 -4.5t-44.5 -16.5t-33.5 -34t-33 -57l-14 6q19 36 34 59t34.5 36.5t48 19t76.5 5.5h77l16 25h-93q-43 0 -74.5 -4.5t-55.5 -17.5
t-42.5 -37t-35.5 -64q-10 28 -20.5 51.5t-22.5 44t-25.5 39.5t-29.5 39h563l-400 -620h28l394 612l14 -11zM622 -39h-552l-19 15h563l19 23q-18 23 -32.5 42.5t-25.5 38t-19.5 37t-15.5 41.5l19 -8q11 -29 31.5 -63.5t63.5 -88.5z" />
    <glyph glyph-name="bracketleft" unicode="[" horiz-adv-x="330" 
d="M79 -261l-15 15h199l17 21l-94 86h-25v768h30l82 78l10 -11l-87 -81h-20v-739h16l108 -100l-28 -37h-193zM50 -222v946h207l-76 -70h-45v-807h45l76 -69h-207z" />
    <glyph glyph-name="backslash" unicode="\" horiz-adv-x="417" 
d="M467 -261h-112l-14 15h101l-324 956l24 -13zM319 -222l-319 946h81l318 -946h-80z" />
    <glyph glyph-name="bracketright" unicode="]" horiz-adv-x="346" 
d="M50 -222l76 69h44v767h-22l-12 15h34v25h-44l-76 70h207v-946h-207zM83 -261l-15 15h213v953l15 -15v-953h-213z" />
    <glyph glyph-name="asciicircum" unicode="^" horiz-adv-x="497" 
d="M241 562l-79 -149l-99 16l-11 19l103 -18l79 148l-13 28l-79 -150l-92 15l140 200h68l126 -200l-93 -15zM324 421l-16 13l114 20l-135 209l21 -5l139 -214z" />
    <glyph glyph-name="underscore" unicode="_" horiz-adv-x="739" 
d="M-11 -276v45h761v-45h-761z" />
    <glyph glyph-name="grave" unicode="`" horiz-adv-x="315" 
d="M275 643q-23 0 -37.5 -0.5t-24 -1.5t-15.5 -1.5t-11 -1.5l-9 11q12 3 28 4.5t51 1.5q-15 32 -34 60.5t-41 56.5l19 -5q13 -18 23 -32t18 -28t16 -29t17 -35zM229 669q-17 0 -31.5 -1.5t-33.5 -6.5q-6 8 -17 20t-23.5 25t-26 25.5t-25.5 21.5l86 22q7 -8 17.5 -22.5
t21.5 -31t20 -31t12 -21.5z" />
    <glyph glyph-name="braceleft" unicode="{" horiz-adv-x="370" 
d="M320 -220q-63 0 -103.5 14.5t-64.5 40t-35.5 59.5t-16 72.5t-6.5 79.5t-7.5 80t-18 74.5t-38.5 63.5q26 28 38.5 63.5t18 75t7.5 80t6.5 79.5t16 73t35.5 59t64.5 40t103.5 15v-38q-49 0 -74.5 -26.5t-37.5 -68.5t-16 -93t-9 -101t-16.5 -92t-39.5 -65q22 -15 34 -42
t18 -61t8.5 -72.5t5.5 -76t9.5 -72.5t20 -62t37 -43.5t60.5 -17.5v-38zM357 -259h-37q-52 0 -88.5 6.5t-61 21t-39 38t-23.5 57.5l5 2q13 -29 28 -50t38.5 -34.5t57 -20t83.5 -6.5h22v56l15 -13v-57zM320 672q-32 0 -49.5 -24t-26.5 -61.5t-12.5 -84t-8.5 -91.5t-14 -84
t-28 -62q19 -24 28.5 -63.5t15 -84.5t9 -91t10.5 -85t19.5 -65.5t35.5 -32.5l-1 -9q-28 6 -44 35t-24.5 70t-12.5 90t-9.5 95t-15.5 83.5t-29 57.5q21 21 30.5 61t14 86.5t8.5 95t14.5 88.5t31 65t58.5 25h22v56l15 -13v-57h-37z" />
    <glyph glyph-name="bar" unicode="|" horiz-adv-x="345" 
d="M139 -261l-14 15h95v961l15 -15v-961h-96zM110 -222v946h86v-946h-86z" />
    <glyph glyph-name="braceright" unicode="}" horiz-adv-x="417" 
d="M204 285q-24 19 -35 54.5t-16.5 77.5t-8.5 86t-10 81t-21.5 61.5t-42.5 27.5l-10 14q36 0 56 -21.5t29.5 -56.5t13 -78.5t7.5 -87.5t12.5 -85t28.5 -69zM387 244q-23 -19 -34 -50.5t-16.5 -70t-8 -81.5t-9 -85t-19.5 -80.5t-39.5 -68t-69.5 -47.5t-109 -19l-14 15
q65 0 107.5 16t68.5 43.5t38.5 63.5t18.5 76t8.5 82t7.5 80.5t16.5 71t34.5 55.5q-19 26 -30 62t-18 75t-11 79t-8 75.5t-10.5 63.5t-17.5 44l4 5q16 -14 25 -42.5t14.5 -65t9.5 -78t11 -82t18.5 -76.5t31.5 -61zM50 -182q37 1 60.5 17.5t37 43.5t20 62t9.5 72.5t5.5 76
t8.5 72.5t18 61t34 42q-28 23 -39.5 65t-16.5 92t-9 101t-16 93t-37.5 68.5t-74.5 26.5v38q84 0 129 -25.5t65.5 -67t25 -94.5t8.5 -106.5t15.5 -104t46.5 -87.5q-26 -28 -38.5 -63.5t-18 -74.5t-7.5 -80t-6.5 -79.5t-16 -72.5t-35.5 -59.5t-64.5 -40t-103.5 -14.5v38z" />
    <glyph glyph-name="asciitilde" unicode="~" horiz-adv-x="482" 
d="M170 334q-20 0 -34 -11t-26 -28l-40 37q18 33 41 51t61 18q23 0 40.5 -6.5t33 -15t30 -15t31.5 -6.5q20 0 33.5 11t25.5 28l40 -37q-18 -33 -40 -51t-57 -18q-18 0 -35 6.5t-34 15t-34.5 15t-35.5 6.5zM117 259q10 26 25.5 36t32.5 10q18 0 33.5 -7t32 -15t33.5 -15
t38 -7q39 0 64.5 20.5t43.5 57.5l12 -10q-19 -35 -47 -59t-73 -24q-21 0 -38.5 6.5t-33.5 15t-32 15t-33 6.5q-20 0 -32 -15.5t-18 -34.5h-12l-58 61l6 14z" />
    <glyph glyph-name="Euro" unicode="&#x20ac;" horiz-adv-x="679" 
d="M655 619q-18 -28 -41.5 -78.5t-49.5 -116.5l-13 11q22 57 44 106t49 94zM634 212q1 -5 1.5 -14t0.5 -17q0 -53 -18.5 -95.5t-52.5 -72.5t-82 -46t-107 -16q-58 0 -101 16.5t-64 46.5l3 4q29 -26 67 -39t95 -13q60 0 107 17.5t79.5 50t49.5 78t17 101.5zM203 334v-15
t1 -14h135l-20 -53h-110q6 -38 18.5 -76t34 -69t54 -50.5t77.5 -19.5q40 0 69.5 14t49.5 38.5t31.5 57t14.5 68.5q1 9 6 18.5t19 9.5q12 0 16.5 -8t4.5 -22q0 -51 -15 -92.5t-44 -71.5t-71.5 -46.5t-97.5 -16.5q-59 0 -106 17.5t-81.5 48.5t-57.5 73t-35 92h-58l-12 14h67
q-2 5 -2.5 10.5t-1.5 10.5h-69l20 53h44q-1 7 -1 14v14v1h-47l-11 15h58v11t1 10h-64l20 52h50q9 58 31 106.5t57.5 83t84.5 54t113 19.5q38 0 63.5 -7t46 -15t39.5 -15t45 -7q14 0 30.5 5t28.5 12q-13 -22 -27 -48t-26.5 -53t-23.5 -52.5t-19 -46.5q-5 28 -13 59t-23.5 57
t-41 43t-65.5 17q-45 0 -77 -18.5t-53 -48.5t-33 -68t-18 -77h25q5 34 16 68t29.5 60.5t46.5 43t67 16.5q30 0 57 -13.5t41 -36.5l-5 -3q-19 22 -45 30t-48 8q-35 0 -60 -14.5t-42.5 -38.5t-27.5 -55.5t-15 -64.5h134l-20 -52h-158q-1 -5 -1 -10.5v-10.5h175l24 62l12 -15
l-24 -62h-187zM257 216q14 -55 38.5 -96t56.5 -60l-4 -6q-42 18 -70 66t-40 111h97l24 63l12 -15l-24 -63h-90z" />
    <glyph glyph-name="bullet" unicode="&#x2022;" horiz-adv-x="263" 
d="M247 371q0 -51 -31 -82t-82 -31q-49 0 -81 31t-32 82q0 49 32 81t81 32q51 0 82 -32t31 -81z" />
    <glyph glyph-name="currency" unicode="&#xa4;" horiz-adv-x="657" 
d="M154 593l37 -39q50 29 120 29q49 0 85 -13t68 -39l51 52l45 -44l-51 -51q48 -63 48 -154q0 -47 -11.5 -85.5t-36.5 -68.5l19 -19q29 35 41.5 79.5t12.5 93.5q0 85 -40 151l36 36l4 -18l-21 -21q17 -32 26.5 -69.5t9.5 -78.5q0 -54 -14.5 -101.5t-43.5 -82.5l21 -20
l-45 -45l-51 51q-31 -25 -68 -38t-85 -13q-93 0 -155 53l-52 -53l-44 45l53 52q-24 29 -35.5 67.5t-11.5 84.5q0 90 47 152l-53 53l44 44l52 -53q11 10 23 17l-45 46h20zM460 334q0 35 -8 69.5t-26 62t-46 44.5t-68 17q-34 0 -62 -14.5t-47.5 -40.5t-30 -61t-10.5 -77
q0 -39 9 -73.5t28 -61t47 -42t66 -15.5t66 16t46 42.5t27 61t9 72.5zM104 49l55 56q65 -45 152 -45q46 0 82 10.5t68 32.5l54 -54l60 60v-22l-60 -60l-56 56q-62 -38 -148 -38q-42 0 -80 10.5t-70 29.5l-57 -58l-43 46v22zM308 162q-30 3 -52.5 17.5t-38 37.5t-23 53
t-7.5 64q0 36 9 67t25.5 53.5t39.5 35t52 12.5q23 0 43.5 -7.5t34.5 -21.5l-9 -8q-30 22 -69 22q-25 0 -45.5 -11.5t-35 -32t-22.5 -48.5t-8 -61q0 -31 7 -58t20.5 -48.5t34 -35.5t46.5 -18z" />
    <glyph glyph-name="brokenbar" unicode="&#xa6;" horiz-adv-x="345" 
d="M139 280l-14 15h95v367l15 -15v-367h-96zM110 319v352h86v-352h-86zM139 -260l-14 15h95v367l15 -15v-367h-96zM110 -221v352h86v-352h-86z" />
    <glyph glyph-name="copyright" unicode="&#xa9;" horiz-adv-x="829" 
d="M601 269q-7 -29 -23.5 -53t-41 -41.5t-55.5 -27.5t-66 -10q-44 0 -80 14.5t-62 41t-40 63.5t-14 83q0 40 14.5 76.5t40.5 64.5t62.5 44.5t80.5 16.5q69 0 118.5 -37t65.5 -95h-73q-11 30 -40.5 49.5t-70.5 19.5q-26 0 -50 -9.5t-42.5 -27t-29.5 -43.5t-11 -59
q0 -35 11 -61t29 -43t42 -25.5t51 -8.5q40 0 71 18t44 50h69zM61 336q0 79 26 144t72.5 111.5t111.5 72.5t143 26t143.5 -26t112 -72.5t72.5 -111.5t26 -144t-26 -144t-72.5 -111.5t-112 -72t-143.5 -25.5q-75 0 -139.5 25.5t-112 72t-74.5 111.5t-27 144zM414 43
q62 0 115 22t91.5 61.5t60.5 93t22 116.5q0 62 -22 116t-60.5 93.5t-91.5 62t-115 22.5t-114.5 -22.5t-91 -62t-60.5 -93.5t-22 -116q0 -63 22 -116.5t60.5 -93t91 -61.5t114.5 -22z" />
    <glyph glyph-name="registered" unicode="&#xae;" horiz-adv-x="829" 
d="M261 532h175q37 0 63 -9.5t42.5 -26t24 -38t7.5 -45.5q0 -44 -19.5 -74t-74.5 -41l105 -155h-81l-101 151h-76v-151h-65v389zM437 357q35 0 53.5 12.5t18.5 45.5q0 28 -18.5 41.5t-53.5 13.5h-111v-113h111zM61 336q0 79 26 144t72.5 111.5t111.5 72.5t143 26t143.5 -26
t112 -72.5t72.5 -111.5t26 -144t-26 -144t-72.5 -111.5t-112 -72t-143.5 -25.5q-75 0 -139.5 25.5t-112 72t-74.5 111.5t-27 144zM414 43q62 0 115 22t91.5 61.5t60.5 93t22 116.5q0 62 -22 116t-60.5 93.5t-91.5 62t-115 22.5t-114.5 -22.5t-91 -62t-60.5 -93.5t-22 -116
q0 -63 22 -116.5t60.5 -93t91 -61.5t114.5 -22z" />
    <glyph glyph-name="degree" unicode="&#xb0;" horiz-adv-x="277" 
d="M182 647q0 -19 -7 -35t-19.5 -28t-29 -18.5t-35.5 -6.5q-39 0 -65 25t-26 63q0 41 26 66t65 25q38 0 64.5 -25t26.5 -66zM217 635q0 -55 -31 -83t-81 -28q-32 0 -55 14.5t-34 34.5l5 3q28 -37 84 -37q45 0 71 25t26 71q0 23 -7 43t-24 35l3 3q22 -13 32.5 -34.5
t10.5 -46.5zM40 647q0 -22 15 -36t36 -14t36 14t15 36q0 23 -15 37.5t-36 14.5t-36 -14.5t-15 -37.5zM64 610q-7 12 -7 25q0 23 13 35.5t35 12.5q5 0 10.5 -1t10.5 -4l2 -7q-8 2 -16 2q-18 0 -31.5 -8.5t-13.5 -31.5q0 -4 0.5 -10.5t1.5 -11.5z" />
    <glyph glyph-name="plusminus" unicode="&#xb1;" horiz-adv-x="473" 
d="M291 301v-140h-71l-15 15h71v140h136v67l15 -15v-67h-136zM254 338v-140h-62v103h-110l-13 15h123v22h-136v62h136v140h62v-140h22v126l15 -10v-116h99v-62h-136zM56 88v63h334v-63h-334zM414 139l15 -13v-77h-348l-13 14h346v76z" />
    <glyph glyph-name="paragraph" unicode="&#xb6;" horiz-adv-x="569" 
d="M334 -260v844h87v25h-113v-844h-63v412q-66 2 -108 24.5t-64 57.5l5 6q32 -34 72 -51t95 -19v31q-49 0 -89 16.5t-68 46.5t-43 71t-15 90q0 48 14 89t40.5 70t64 45.5t84.5 16.5h251v-906h-63v804h-72v-844h-73l-16 15h74zM509 -260v908l15 -14v-909h-73l-16 15h74z" />
    <glyph glyph-name="quoteleft" unicode="&#x2018;" horiz-adv-x="241" 
d="M163 652q-15 -2 -30.5 -7t-28.5 -15.5t-21.5 -27.5t-9.5 -43h4q6 13 20.5 20.5t28.5 7.5q21 0 40 -15.5t19 -52.5q0 -26 -19 -46.5t-48 -20.5q-20 0 -34.5 7t-24 19t-14.5 27.5t-5 31.5q0 35 8.5 60t23.5 42t35.5 27t43.5 15zM221 512q0 -42 -25 -67.5t-71 -25.5
q-20 0 -37.5 9.5t-25.5 25.5l4 4q8 -10 21.5 -17t36.5 -7q40 0 61 22.5t21 56.5q0 15 -6.5 30t-15.5 23l3 4q13 -5 23.5 -21.5t10.5 -36.5zM102 592q14 18 39 28t48 14l-20 47l18 -7l22 -50q-22 -2 -43.5 -8.5t-38.5 -17.5z" />
    <glyph glyph-name="quoteright" unicode="&#x2019;" horiz-adv-x="271" 
d="M62 481q15 2 30.5 7t28.5 15.5t21.5 27.5t9.5 43h-4q-6 -13 -20.5 -20.5t-28.5 -7.5q-21 0 -40 15.5t-19 52.5q0 26 19 46.5t48 20.5q19 0 34 -7t24.5 -19t14.5 -27.5t5 -31.5q0 -35 -8.5 -60t-23.5 -42t-35.5 -27t-43.5 -15zM195 648q12 -13 19 -32.5t7 -36.5
q0 -69 -29 -103.5t-84 -50.5l-17 11q50 11 82.5 43.5t32.5 99.5q0 16 -5 34t-14 32zM53 552q9 -14 23 -19t27 -5q14 0 31 6l-8 -14q-11 -4 -25 -4t-29 6.5t-25 24.5z" />
    <glyph glyph-name="quotesinglbase" unicode="&#x201a;" horiz-adv-x="271" 
d="M62 -72q15 2 30.5 7t28.5 15.5t21.5 27.5t9.5 43h-4q-6 -13 -20.5 -20.5t-28.5 -7.5q-21 0 -40 15.5t-19 52.5q0 26 19 46.5t48 20.5q19 0 34 -7t24.5 -19t14.5 -27.5t5 -31.5q0 -35 -8.5 -60t-23.5 -42t-35.5 -27t-43.5 -15zM195 95q12 -13 19 -32.5t7 -36.5
q0 -69 -29 -103.5t-84 -50.5l-17 11q50 11 82.5 43.5t32.5 99.5q0 16 -5 34t-14 32zM53 -1q9 -14 23 -19t27 -5q14 0 31 6l-8 -14q-11 -4 -25 -4t-29 6.5t-25 24.5z" />
    <glyph glyph-name="quotedblleft" unicode="&#x201c;" horiz-adv-x="414" 
d="M336 652q-15 -2 -30.5 -7t-28.5 -15.5t-21.5 -27.5t-9.5 -43h4q6 13 20.5 20.5t28.5 7.5q21 0 40 -15.5t19 -52.5q0 -26 -19 -46.5t-48 -20.5q-20 0 -34.5 7t-24 19t-14.5 27.5t-5 31.5q0 35 8.5 60t23.5 42t35.5 27t43.5 15zM275 592q14 18 39 28t48 14l-20 47l18 -7
l22 -50q-22 -2 -43.5 -8.5t-38.5 -17.5zM163 652q-15 -2 -30.5 -7t-28.5 -15.5t-21.5 -27.5t-9.5 -43h4q6 13 20.5 20.5t28.5 7.5q21 0 40 -15.5t19 -52.5q0 -26 -19 -46.5t-48 -20.5q-20 0 -34.5 7t-24 19t-14.5 27.5t-5 31.5q0 35 8.5 60t23.5 42t35.5 27t43.5 15z
M203 487q15 -31 40.5 -43t48.5 -12q40 0 63.5 23.5t23.5 57.5q0 15 -6.5 30t-15.5 23l3 4q13 -5 23.5 -21.5t10.5 -36.5q0 -42 -27.5 -68.5t-73.5 -26.5q-27 0 -50.5 10t-37.5 33q-8 -16 -28 -28.5t-52 -12.5q-20 0 -37.5 9.5t-25.5 25.5l4 4q8 -10 21.5 -17t36.5 -7
q32 0 52 14.5t27 38.5zM102 592q14 18 39 28t48 14l-20 47l18 -7l22 -50q-22 -2 -43.5 -8.5t-38.5 -17.5z" />
    <glyph glyph-name="quotedblright" unicode="&#x201d;" horiz-adv-x="444" 
d="M62 481q15 2 30.5 7t28.5 15.5t21.5 27.5t9.5 43h-4q-6 -13 -20.5 -20.5t-28.5 -7.5q-21 0 -40 15.5t-19 52.5q0 26 19 46.5t48 20.5q19 0 34 -7t24.5 -19t14.5 -27.5t5 -31.5q0 -35 -8 -60t-22.5 -41.5t-35 -26.5t-45.5 -16zM53 552q9 -14 23 -19t27 -5q14 0 31 6
l-8 -14q-11 -4 -25 -4t-29 6.5t-25 24.5zM216 535q-11 -46 -35.5 -71t-72.5 -39l-17 11q47 11 78.5 40t36.5 88q14 -21 33 -28.5t33 -7.5q8 0 17.5 1.5t17.5 4.5l-8 -16q-6 -2 -14 -3t-14 -1q-14 0 -28 4.5t-27 16.5zM235 481q15 2 30.5 7t28.5 15.5t21.5 27.5t9.5 43h-4
q-6 -13 -20.5 -20.5t-28.5 -7.5q-21 0 -40 15.5t-19 52.5q0 26 19 46.5t48 20.5q19 0 34 -7t24.5 -19t14.5 -27.5t5 -31.5q0 -35 -8.5 -60t-23.5 -42t-35.5 -27t-43.5 -15zM368 648q12 -13 19 -32.5t7 -36.5q0 -69 -29 -103.5t-84 -50.5l-17 11q50 11 82.5 43.5t32.5 99.5
q0 16 -5 34t-14 32z" />
    <glyph glyph-name="quotedblbase" unicode="&#x201e;" horiz-adv-x="444" 
d="M62 -72q15 2 30.5 7t28.5 15.5t21.5 27.5t9.5 43h-4q-6 -13 -20.5 -20.5t-28.5 -7.5q-21 0 -40 15.5t-19 52.5q0 26 19 46.5t48 20.5q19 0 34 -7t24.5 -19t14.5 -27.5t5 -31.5q0 -35 -8 -60t-22.5 -41.5t-35 -26.5t-45.5 -16zM53 -1q9 -14 23 -19t27 -5q14 0 31 6l-8 -14
q-11 -4 -25 -4t-29 6.5t-25 24.5zM216 -18q-11 -46 -35.5 -71t-72.5 -39l-17 11q47 11 78.5 40t36.5 88q14 -21 33 -28.5t33 -7.5q8 0 17.5 1.5t17.5 4.5l-8 -16q-6 -2 -14 -3t-14 -1q-14 0 -28 4.5t-27 16.5zM235 -72q15 2 30.5 7t28.5 15.5t21.5 27.5t9.5 43h-4
q-6 -13 -20.5 -20.5t-28.5 -7.5q-21 0 -40 15.5t-19 52.5q0 26 19 46.5t48 20.5q19 0 34 -7t24.5 -19t14.5 -27.5t5 -31.5q0 -35 -8.5 -60t-23.5 -42t-35.5 -27t-43.5 -15zM368 95q12 -13 19 -32.5t7 -36.5q0 -69 -29 -103.5t-84 -50.5l-17 11q50 11 82.5 43.5t32.5 99.5
q0 16 -5 34t-14 32z" />
    <glyph glyph-name="ellipsis" unicode="&#x2026;" horiz-adv-x="1019" 
d="M937 61q0 -29 -18.5 -48t-47.5 -19t-47.5 19t-18.5 48t18.5 48.5t47.5 19.5t47.5 -19.5t18.5 -48.5zM976 49q0 -41 -23 -66.5t-70 -25.5q-20 0 -37.5 9t-25.5 26l4 4q8 -10 21.5 -17.5t36.5 -7.5q43 0 61 23.5t18 54.5q0 15 -6.5 31t-15.5 24l3 4q13 -5 23.5 -22
t10.5 -37zM565 61q0 -29 -18.5 -48t-47.5 -19t-47.5 19t-18.5 48t18.5 48.5t47.5 19.5t47.5 -19.5t18.5 -48.5zM604 49q0 -41 -23 -66.5t-70 -25.5q-20 0 -37.5 9t-25.5 26l4 4q8 -10 21.5 -17.5t36.5 -7.5q43 0 61 23.5t18 54.5q0 15 -6.5 31t-15.5 24l3 4q13 -5 23.5 -22
t10.5 -37zM192 61q0 -29 -18.5 -48t-47.5 -19t-47.5 19t-18.5 48t18.5 48.5t47.5 19.5t47.5 -19.5t18.5 -48.5zM231 49q0 -41 -23 -66.5t-70 -25.5q-20 0 -37.5 9t-25.5 26l4 4q8 -10 21.5 -17.5t36.5 -7.5q43 0 61 23.5t18 54.5q0 15 -6.5 31t-15.5 24l3 4q13 -5 23.5 -22
t10.5 -37z" />
    <glyph glyph-name="perthousand" unicode="&#x2030;" horiz-adv-x="1158" 
d="M323 481q0 -36 -7.5 -72t-25.5 -64t-47 -45.5t-72 -17.5q-42 0 -71 17.5t-47 45.5t-25.5 64t-7.5 72t7.5 71t25 63.5t46.5 46t72 17.5t72 -17.5t47 -46t25.5 -63.5t7.5 -71zM356 471q0 -37 -9 -76t-30 -71.5t-55 -53.5t-85 -21q-46 0 -83.5 21.5t-54.5 64.5l5 3
q17 -33 49.5 -54t83.5 -21q45 0 76.5 19t51 49t28.5 67t9 73q0 18 -2.5 38.5t-7 40.5t-12.5 38t-18 30l6 4q30 -32 39 -74t9 -77zM252 481q0 23 -3 50.5t-11.5 51.5t-24.5 40.5t-42 16.5q-24 0 -39.5 -16.5t-24.5 -40.5t-12 -51.5t-3 -50.5q0 -22 3 -50t12 -52.5t24.5 -41.5
t40.5 -17q26 0 42 17t24.5 41.5t11 52.5t2.5 50zM219 589q-9 13 -20.5 17.5t-22.5 4.5q-19 0 -29 -14.5t-15 -35t-6 -43t-1 -37.5q0 -17 1.5 -38t7 -42t16 -39t27.5 -27l-1 -6q-20 4 -32.5 20.5t-20 39t-10 47t-2.5 45.5q0 18 1.5 42t8 46.5t19.5 38t35 15.5q15 0 29 -8.5
t19 -24.5zM187 0h-66l458 671h61zM209 -39h-58l-15 15h64l455 675l9 -12zM747 187q0 -36 -7.5 -72t-25.5 -64t-47 -45.5t-72 -17.5q-42 0 -71 17.5t-47 45.5t-25.5 64t-7.5 72t7.5 71t25 63.5t46.5 46t72 17.5t72 -17.5t47 -46t25.5 -63.5t7.5 -71zM780 177q0 -37 -9 -76
t-30 -71.5t-55 -53.5t-85 -21q-46 0 -83.5 21.5t-54.5 64.5l5 3q17 -33 49.5 -54t83.5 -21q45 0 76.5 19t51 49t28.5 67t9 73q0 18 -2.5 38.5t-7 40.5t-12.5 38t-18 30l6 4q30 -32 39 -74t9 -77zM676 187q0 23 -3 50.5t-11.5 51.5t-24.5 40.5t-42 16.5q-24 0 -39.5 -16.5
t-24.5 -40.5t-12 -51.5t-3 -50.5q0 -22 3 -50t12 -52.5t24.5 -41.5t40.5 -17q26 0 42 17t24.5 41.5t11 52.5t2.5 50zM643 295q-9 13 -20.5 17.5t-22.5 4.5q-19 0 -29 -14.5t-15 -35t-6 -43t-1 -37.5q0 -17 1.5 -38t7 -42t16 -39t27.5 -27l-1 -6q-20 4 -32.5 20.5t-20 39
t-10 47t-2.5 45.5q0 18 1.5 42t8 46.5t19.5 38t35 15.5q15 0 29 -8.5t19 -24.5zM1105 187q0 -36 -7.5 -72t-25.5 -64t-47 -45.5t-72 -17.5q-42 0 -71 17.5t-47 45.5t-25.5 64t-7.5 72t7.5 71t25 63.5t46.5 46t72 17.5t72 -17.5t47 -46t25.5 -63.5t7.5 -71zM1138 177
q0 -37 -9 -76t-30 -71.5t-55 -53.5t-85 -21q-46 0 -83.5 21.5t-54.5 64.5l5 3q17 -33 49.5 -54t83.5 -21q45 0 76.5 19t51 49t28.5 67t9 73q0 18 -2.5 38.5t-7 40.5t-12.5 38t-18 30l6 4q30 -32 39 -74t9 -77zM1034 187q0 23 -3 50.5t-11.5 51.5t-24.5 40.5t-42 16.5
q-24 0 -39.5 -16.5t-24.5 -40.5t-12 -51.5t-3 -50.5q0 -22 3 -50t12 -52.5t24.5 -41.5t40.5 -17q26 0 42 17t24.5 41.5t11 52.5t2.5 50zM1001 295q-9 13 -20.5 17.5t-22.5 4.5q-19 0 -29 -14.5t-15 -35t-6 -43t-1 -37.5q0 -17 1.5 -38t7 -42t16 -39t27.5 -27l-1 -6
q-20 4 -32.5 20.5t-20 39t-10 47t-2.5 45.5q0 18 1.5 42t8 46.5t19.5 38t35 15.5q15 0 29 -8.5t19 -24.5z" />
    <glyph glyph-name="trademark" unicode="&#x2122;" horiz-adv-x="567" 
d="M117 620h-72v51h194v-51h-72v-193h-50v193zM278 671h65l54 -153h4l53 153h68v-244h-51v151h-3l-52 -151h-31l-56 153h-3v-153h-48v244z" />
    <glyph glyph-name="afii61352" unicode="&#x2116;" horiz-adv-x="990" 
d="M615 645q-18 -10 -29.5 -22t-18 -28t-8.5 -36.5t-2 -47.5v-550h-102l-15 15h102v535q0 22 1.5 44t8 41t20 34t36.5 23l7 -8v0zM591 671q-26 -12 -41 -30t-22 -40t-8.5 -45t-1.5 -45v-511h-97l-237 467v-327q0 -39 6 -63t16.5 -38t24.5 -21.5t30 -13.5l10 -4l-24 -39h-188
l-15 15h194l12 19q-20 7 -35 16t-25 24t-15.5 40t-5.5 65v356l-19 38h-5v-374q0 -22 1.5 -45t8.5 -45t22 -40t41 -30h-198q42 24 59.5 64.5t17.5 94.5v442l-77 70h274l-66 -59l241 -479v54l-211 420l53 46l9 -11l-44 -39l193 -385v295q0 58 -17 96t-59 62h198v0zM911 497
q0 -38 -9 -71t-28 -57.5t-47 -38.5t-66 -14t-66.5 14t-47.5 38.5t-28.5 57.5t-9.5 71q0 40 9.5 74t28.5 59t47 39t66 14q37 0 65.5 -14t47.5 -39t28.5 -59t9.5 -74zM945 497q0 -43 -10 -82t-31 -69t-54 -47.5t-80 -17.5q-38 0 -71 19.5t-47 44.5q17 -19 49.5 -33t68.5 -14
q41 0 71 16t49.5 43.5t29 63.5t9.5 76q0 18 -3.5 37.5t-9 37.5t-12.5 33t-15 24q11 -7 21 -21.5t18 -33t12.5 -39t4.5 -38.5zM823 498q0 19 -1.5 46.5t-7.5 52t-18.5 42t-35.5 17.5q-22 0 -34.5 -16.5t-19 -41t-8.5 -52t-2 -48.5q0 -29 3.5 -56.5t11 -49t19.5 -35t30 -13.5
q19 0 31 13.5t19 35t10 49t3 56.5zM803 599q-5 13 -14.5 20.5t-20.5 7.5q-13 0 -20.5 -16.5t-11.5 -38.5t-5 -43.5t-1 -30.5t1 -32t5 -47t10.5 -43.5t17.5 -20.5v-4q-18 0 -28 19t-15 43.5t-6 49t-1 35.5q0 12 1 35t6 46.5t15.5 41t29.5 17.5q14 0 24.5 -8.5t15.5 -28.5z
M645 164l-14 14h295v67l12 -10v-71h-293zM618 201v54h287v-54h-287z" />
    <glyph glyph-name="endash" unicode="&#x2013;" horiz-adv-x="583" 
d="M50 253v67h444v-67h-444zM518 308l15 -13v-81h-458l-13 14h456v80z" />
    <glyph glyph-name="emdash" unicode="&#x2014;" horiz-adv-x="733" 
d="M50 253v67h594v-67h-594zM668 308l15 -13v-81h-608l-13 14h606v80z" />
    <glyph glyph-name="periodcentered" unicode="&#xb7;" horiz-adv-x="264" 
d="M181 337q0 -28 -19 -47.5t-47 -19.5t-47 19.5t-19 47.5t19 48t47 20t47 -20t19 -48zM213 326q0 -37 -22 -62t-63 -25q-18 0 -37.5 10t-24.5 27l1 2q8 -10 22.5 -17.5t35.5 -7.5q38 0 56.5 23t18.5 52q0 14 -7 29t-15 23h2q11 -5 22 -21t11 -33z" />
    <glyph glyph-name="guilsinglleft" unicode="&#x2039;" horiz-adv-x="333" 
d="M50 256l122 192h79l-121 -193l121 -194h-79zM296 36l-137 219l113 180l7 -18l-103 -162l147 -234h-114l-15 15h102z" />
    <glyph glyph-name="logicalnot" unicode="&#xac;" horiz-adv-x="753" 
d="M50 338h612v-252h-62v151h-523l-13 14h536v25h-550v62zM688 324l15 -13v-264h-80l-13 14h78v263z" />
    <glyph glyph-name="guilsinglright" unicode="&#x203a;" horiz-adv-x="318" 
d="M129 61h-79l121 194l-121 193h79l122 -192zM143 36l137 220l-118 185l23 -10l113 -175l-146 -235h-83l-12 15h86z" />
    <glyph glyph-name="guillemotleft" unicode="&#xab;" horiz-adv-x="499" 
d="M50 256l122 192h79l-121 -193l121 -194h-79zM296 36l-137 219l113 180l7 -18l-103 -162l147 -234h-114l-15 15h102zM216 256l122 192h79l-121 -193l121 -194h-79zM462 36l-137 219l113 180l7 -18l-103 -162l147 -234h-114l-15 15h102z" />
    <glyph glyph-name="guillemotright" unicode="&#xbb;" horiz-adv-x="485" 
d="M296 61h-79l121 194l-121 193h79l122 -192zM310 36l137 220l-118 185l23 -10l113 -175l-146 -235h-83l-12 15h86zM129 61h-79l121 194l-121 193h79l122 -192zM143 36l137 220l-118 185l23 -10l113 -175l-146 -235h-83l-12 15h86z" />
    <glyph glyph-name="dagger" unicode="&#x2020;" horiz-adv-x="518" 
d="M61 402h137v25h-148v80h148v193h81v-193h25v183l15 -16v-167h109v-80h-149v-527h-81v487h-126zM205 -125h99v527h149v90l15 -14v-91h-149v-527h-99z" />
    <glyph glyph-name="daggerdbl" unicode="&#x2021;" horiz-adv-x="518" 
d="M61 68h137v25h-148v80h148v214h-126l-11 15h137v25h-148v80h148v193h81v-193h25v183l15 -16v-167h109v-80h-149v-254h25v229h149v90l15 -14v-91h-149v-214h109v-80h-149v-193h-81v153h-126zM319 53v-193h-99l-15 15h99v193h149v90l15 -14v-91h-149z" />
    <glyph glyph-name="afii10017" unicode="&#x410;" horiz-adv-x="726" 
d="M354 225q26 32 59 62l-76 213l-60 -176q17 -16 38.5 -43.5t38.5 -55.5zM333 195q3 5 5.5 9t6.5 9q-18 31 -42.5 60.5t-42.5 46.5l69 201l-13 34l-82 -239q59 -54 99 -121zM424 0l70 63l-42 118q-23 -20 -43.5 -46t-34.5 -50l-14 7q17 26 38 53.5t47 50.5l-9 26
q-26 -26 -49.5 -55.5t-45.5 -61.5q-21 33 -45.5 64t-52.5 57l-40 -115q-11 -32 -16 -57t-5 -48q0 -18 9 -37t23.5 -37.5t33.5 -35.5t40 -31q-48 -7 -90.5 -14t-82.5 -16t-79 -21.5t-81 -30.5l-15 9q85 38 163.5 54.5t150.5 27.5q-15 11 -30.5 25.5t-28 31.5t-20.5 36t-8 39
q0 23 7 53.5t16 57.5l41 119l-20 19l-46 -134q-11 -31 -17 -56.5t-6 -58.5t14 -62t49 -53q-22 -3 -53.5 -8.5t-68.5 -14.5t-77 -22.5t-79 -32.5q23 24 50 60.5t53.5 79t49.5 88t38 87.5l53 153q-34 20 -67 30l33 76q14 -8 28.5 -17.5t28.5 -20.5l6 17q-14 13 -25.5 21.5
t-28.5 17.5l6 13q14 -8 26.5 -16.5t26.5 -21.5l78 231l-48 60h230l-51 -60l92 -259l23 14l-86 238l41 52l11 -11l-35 -44l82 -229l28 12l27 -75q-18 -4 -34.5 -9.5t-32.5 -13.5l81 -223l77 -63h-264zM648 80l91 -76l-25 -43h-258l-15 15h263l15 24l-84 71l-73 203
q14 8 33 11t33 5q-9 20 -17 42t-14 42l18 -5q14 -43 35 -93q-17 0 -35.5 -2t-32.5 -9z" />
    <glyph glyph-name="A" unicode="A" horiz-adv-x="765" 
d="M370 225q26 32 59 62l-76 213l-60 -176q17 -16 38.5 -43.5t38.5 -55.5zM349 195q3 5 5.5 9t6.5 9q-18 31 -42.5 60.5t-42.5 46.5l69 201l-13 34l-82 -239q59 -55 99 -121zM440 0l70 63l-42 118q-23 -20 -43.5 -46t-34.5 -50l-14 7q17 26 38 53.5t47 50.5l-9 26
q-26 -26 -49.5 -55.5t-45.5 -61.5q-21 33 -45.5 64t-52.5 57l-40 -115q-11 -32 -16 -57t-5 -48q0 -18 9 -37t23.5 -37.5t33.5 -35.5t40 -31q-48 -7 -90.5 -14t-82.5 -16t-79 -21.5t-81 -30.5l-15 9q85 38 163.5 54.5t150.5 27.5q-15 11 -30.5 25.5t-28 31.5t-20.5 36t-8 39
q0 23 7 53.5t16 57.5l41 119l-20 19l-46 -134q-11 -31 -17 -56.5t-6 -58.5t14 -62t49 -53q-22 -3 -53.5 -8.5t-68.5 -14.5t-77 -22.5t-79 -32.5q23 24 50 60.5t53.5 79t49.5 88t38 87.5l53 153q-35 20 -67 30l33 76q14 -8 28.5 -17.5t28.5 -20.5l6 17q-14 13 -25.5 21.5
t-28.5 17.5l6 13q14 -8 26.5 -16.5t26.5 -21.5l78 231l-48 60h230l-51 -60l92 -259l23 14l-86 238l41 52l11 -11l-35 -44l82 -229l28 12l27 -75q-18 -4 -34.5 -9.5t-32.5 -13.5l81 -223l77 -63h-264zM664 80l91 -76l-25 -43h-258l-15 15h263l15 24l-84 71l-73 203
q14 8 33 11t33 5q-18 41 -31 84l18 -5q7 -22 15.5 -45t19.5 -48q-17 0 -35.5 -2t-32.5 -9z" />
    <glyph glyph-name="afii10019" unicode="&#x412;" 
d="M78 500q27 3 47.5 14t37.5 23.5t31.5 25t31.5 18.5v-205h24v216q19 9 43 15t46 6q13 0 29 -2.5t31.5 -8.5t29 -15.5t22.5 -23.5l-2 -3q-22 20 -53 29.5t-57 9.5q-17 0 -37 -4.5t-37 -11.5v-207h25q33 0 66 4t59.5 18t42.5 39.5t16 69.5q0 64 -38.5 96t-98.5 32
q-61 0 -98 -17t-64 -37t-51.5 -37t-58.5 -17q-12 0 -25 4t-24 14.5t-18.5 28t-7.5 44.5q31 -6 55 -6q37 0 66 11.5t59.5 25t68.5 25t94 11.5q45 0 91 -9t83 -30.5t60.5 -57.5t23.5 -90q0 -51 -34 -88t-91 -52v-3q8 -2 16 -4.5t16 -6.5q22 8 43 20.5t37.5 30.5t26.5 42.5
t10 55.5q0 42 -19 74.5t-42 53.5l4 2q12 -8 25 -20.5t23.5 -28.5t17 -36.5t6.5 -44.5q0 -32 -9 -57t-24.5 -44.5t-36.5 -33t-44 -22.5q45 -23 73.5 -63t28.5 -94q0 -59 -20 -94t-53 -54t-75.5 -25t-87.5 -6h-339l76 68v220q-20 -2 -38.5 -4t-37.5 -6l-8 14q18 4 39.5 6.5
t44.5 4.5v25q-19 -2 -41 -4t-45 -7l23 69q14 -2 34 -4t29 -2v75zM377 -24q45 0 92 5t85 24.5t62 58t24 105.5q0 24 -6.5 45.5t-17 40t-22.5 32.5t-24 23l3 3q14 -8 28.5 -21.5t26.5 -32t19.5 -41.5t7.5 -49q0 -72 -26.5 -113.5t-67 -62.5t-90 -26.5t-94.5 -5.5h-290l-20 15
h310zM250 51v252h39q51 0 97.5 -10.5t80.5 -47.5l-4 -5q-20 18 -41.5 27.5t-43.5 14t-42 5.5t-35 1h-36v-237h39q49 0 84.5 6.5t58.5 22.5t34 42.5t11 66.5q0 50 -21 78t-53 41.5t-72 16.5t-77 3h-43v-277h24z" />
    <glyph glyph-name="afii10022" unicode="&#x415;" horiz-adv-x="668" 
d="M616 642q-33 -45 -53.5 -82.5t-36.5 -75.5l-13 10q6 16 16 36t22.5 41.5t26.5 43t29 39.5zM446 234v224l15 -14v-224zM32 0l76 69v227q-26 0 -46 -13t-29 -26l-12 9q15 18 36 31t51 14v24q-26 0 -53.5 -13.5t-44.5 -32.5q0 45 27.5 71t70.5 27v214l-76 70h556
q-29 -39 -51 -78.5t-44 -83.5q-11 24 -22.5 44.5t-27.5 35.5t-38.5 23t-55.5 8h-134v-233h24v209h110q14 0 31 -2t33.5 -8t30 -15.5t20.5 -24.5l-4 -3q-10 12 -24.5 19.5t-30.5 11.5t-31 5.5t-25 1.5h-95v-194h99l66 86h3v-224h-3l-66 86h-138v-284h24v260h114l11 -15h-110
v-245h49q42 0 71 3.5t51.5 16.5t42.5 37.5t43 66.5q10 -29 20 -51.5t21 -42.5t25 -39.5t32 -41.5h-577zM627 -39h-561l-13 15h565l20 23q-19 23 -33 42.5t-25.5 38t-20 37t-15.5 41.5l20 -8q5 -16 12.5 -31.5t18 -33.5t26 -39t37.5 -48z" />
    <glyph glyph-name="afii10031" unicode="&#x41d;" horiz-adv-x="719" 
d="M621 601q0 64 18 120t41 96l12 -7q-25 -48 -40.5 -96.5t-15.5 -112.5v-525l81 -73l-27 -42h-242l-15 15h248l16 24l-76 69v532zM245 289h245v28h-269v-249l76 -68h-259l76 68v205q-26 -2 -41 -8.5t-32 -20.5l-10 9q14 15 33.5 24.5t49.5 10.5v25q-26 -1 -52 -11t-43 -28
q0 45 26.5 73t68.5 32v222l-76 70h259l-76 -70v-223h24v212l68 64l10 -11l-63 -59v-207h230v223q0 70 -45 105q58 25 109.5 58t99.5 68l3 -4q-29 -48 -44.5 -108.5t-15.5 -117.5v-533l76 -68h-259l76 68v209h-230v-201l81 -73l-27 -42h-242l-15 15h248l16 24l-76 69v220z
" />
    <glyph glyph-name="afii10030" unicode="&#x41c;" horiz-adv-x="797" 
d="M474 0l77 68v340l-166 -447h-38l-15 15h43l176 474v71l-193 -521h-35l-139 408v-248q0 -56 5 -94t20 -67.5t42.5 -55.5t73.5 -59q-53 -14 -91 -25t-70 -23.5t-63 -29t-69 -42.5l-17 7q36 25 66.5 42t61.5 30t66.5 24t82.5 23q-41 29 -65 56.5t-36.5 58t-16.5 68t-4 87.5
v292l-21 62h-4v-354q0 -36 3 -73t12.5 -71.5t27.5 -64t48 -51.5q-35 -9 -65.5 -19.5t-59.5 -24.5t-58 -31.5t-60 -39.5q55 73 79.5 171.5t24.5 202.5v442l-77 70h278l-78 -70l147 -428l13 36l-132 384l67 60l9 -11l-58 -53l122 -358l145 386l-59 54h259l-76 -70v-533l76 -68
h-259zM508 -39l-15 15h248l16 24l-76 69v521l68 64l10 -11l-63 -59v-508l81 -73l-27 -42h-242z" />
    <glyph glyph-name="afii10032" unicode="&#x41e;" horiz-adv-x="655" 
d="M638 335q0 -78 -20 -148.5t-61 -123.5t-103 -84.5t-145 -31.5q-36 0 -67 7.5t-56 20.5t-43.5 29t-29.5 34l5 4q33 -35 80 -57.5t111 -22.5q79 0 138 29.5t98 80.5t58.5 118.5t19.5 144.5q0 51 -10.5 96.5t-27.5 83.5t-40 68.5t-48 50.5l6 3q66 -42 100.5 -120.5
t34.5 -181.5zM166 335q-1 88 15 146.5t40 96.5t52.5 61.5t52.5 42.5t40.5 39t16.5 51q0 8 -3 19.5t-16 20.5l3 1q17 -5 23.5 -18.5t6.5 -22.5q0 -34 -16.5 -56t-41 -42.5t-53 -44t-52.5 -61t-39.5 -93.5t-14.5 -140q1 -48 9 -93t22 -81.5t34 -62.5t44 -36l-2 -7
q-31 10 -53.5 36.5t-37.5 64.5t-22.5 84t-7.5 95zM316 604q-8 8 -5.5 18t8.5 15q8 7 24 12t37.5 3.5t46.5 -11t51 -29.5q28 -23 50 -53.5t37 -67t23 -76.5t8 -80q0 -74 -18.5 -137.5t-54.5 -110.5t-90 -74t-125 -27q-75 0 -129 28t-89.5 75.5t-52.5 111t-17 134.5
q0 77 19 132.5t47.5 95.5t63.5 67t68 48t59.5 38t39.5 37q-11 3 -18.5 10.5t-7.5 21.5t9 23t23 9q22 0 31 -14t9 -31q0 -28 -17 -46t-43 -37.5t-55.5 -43.5t-54 -63.5t-40 -99t-12.5 -147.5q0 -55 9 -108.5t29.5 -95.5t52 -68t76.5 -26q46 0 78 22t53 57t32 80t14.5 90.5
t0.5 88.5t-10 75t-20 63t-30.5 53t-38 31.5t-41.5 -1.5q-5 -3 -13.5 -2t-16.5 10z" />
    <glyph glyph-name="afii10020" unicode="&#x413;" horiz-adv-x="604" 
d="M604 642q-33 -45 -52.5 -81t-36.5 -75l-13 10q6 15 15.5 35t21.5 41.5t26.5 42.5t29.5 39zM96 160v441l-76 70h556q-29 -39 -51 -78t-44 -84q-11 24 -23 44.5t-28 35.5t-38.5 23t-54.5 8h-134v-460q0 -72 13 -140t51 -119q-68 -18 -125 -44.5t-119 -71.5q27 36 42 80
t22 92t8 99.5t1 102.5v1zM227 160q0 -50 4 -88.5t13.5 -70t24.5 -58.5t38 -53q-35 -9 -66.5 -19.5t-63 -24t-64 -32t-68.5 -43.5l17 -7q38 26 72.5 44.5t68 32.5t66 23.5t66.5 17.5q-24 29 -42 55t-29 56.5t-16.5 70t-5.5 96.5v421h95q22 0 53 -7.5t52 -29.5l6 2
q-7 15 -20 24.5t-28.5 15.5t-32 8t-30.5 2h-110v-437v1z" />
    <glyph glyph-name="a" unicode="a" horiz-adv-x="765" 
d="M153 387q14 -8 28.5 -17.5t28.5 -20.5l6 17q-14 13 -25.5 21.5t-28.5 17.5l6 13q14 -8 26.5 -16.5t26.5 -21.5l78 231l-48 60h230l-51 -60l92 -259l23 14l-86 238l41 52l11 -11l-35 -44l82 -229l28 12l27 -75q-18 -4 -34.5 -9.5t-32.5 -13.5l81 -223l77 -63h-264l70 63
l-42 118q-23 -20 -43.5 -46t-34.5 -50l-14 7q17 26 38 53.5t47 50.5l-9 26q-26 -25 -50 -54.5t-45 -62.5q-21 33 -45 64t-52 57l-12 -31q-8 -20 -13 -43.5t-5 -47.5q0 -31 21 -56.5t48 -45.5l-29 -41h-242l-14 15h248l18 24q-24 17 -44.5 42t-20.5 62q0 30 6.5 55t15.5 48
l11 30l-20 16l-13 -39q-11 -29 -17 -57t-6 -50q0 -35 14 -57t42 -46v-4h-248v3q65 44 107 106t71 146l9 26q-35 20 -67 30zM370 225q26 32 59 62l-76 213l-60 -176q17 -16 38.5 -43.5t38.5 -55.5zM664 80l91 -76l-25 -43h-261l-14 15h265l15 24l-84 71l-73 203q14 8 33 11
t33 5q-18 41 -31 84l18 -5q7 -22 15.5 -45t19.5 -48q-17 0 -35.5 -2t-32.5 -9zM349 195q3 5 5.5 9t6.5 9q-18 31 -42.5 60.5t-42.5 46.5l69 201l-13 34l-82 -239q59 -55 99 -121z" />
    <glyph glyph-name="b" unicode="b" horiz-adv-x="662" 
d="M617 493q0 -32 -9 -57t-24.5 -44.5t-36.5 -33t-44 -22.5q45 -23 73.5 -63t28.5 -94q0 -58 -20 -93.5t-53 -54.5t-75.5 -25t-87.5 -6h-339l76 68v220q-39 -3 -76 -10l-8 14q18 4 39.5 6.5t44.5 4.5v25q-19 -2 -41 -4t-45 -7l23 69q14 -2 34 -4t29 -2v186l-58 32
q26 21 59 37t69 27.5t72.5 17t71.5 5.5q45 0 91 -9t83 -30.5t60.5 -57.5t23.5 -90q0 -51 -34.5 -88t-90.5 -52v-3q17 -4 32 -11q22 8 43 20.5t37.5 31t26.5 42.5t10 55q0 42 -19 74.5t-42 53.5l4 2q12 -8 25 -20t23.5 -28.5t17 -37t6.5 -44.5zM642 169q0 -72 -26.5 -113.5
t-67 -62.5t-90 -26.5t-94.5 -5.5h-290l-20 15h310q45 0 92 5t85 24.5t62 58t24 105.5q0 24 -6.5 45.5t-17 39.5t-22.5 32.5t-24 23.5l3 3q14 -8 28.5 -21.5t26.5 -32t19.5 -41.5t7.5 -49zM461 507q0 64 -38.5 96t-98.5 32q-29 0 -59.5 -7.5t-51.5 -21.5v-230h24v216
q19 9 43 15t46 6q13 0 29 -2.5t31.5 -8.5t29 -15.5t22.5 -23.5l-2 -3q-22 20 -53 29.5t-57 9.5q-17 0 -37 -4.5t-37 -11.5v-207h25q33 0 66 4t59.5 18t42.5 39.5t16 69.5zM479 189q0 50 -21 78t-53 41.5t-72 16.5t-77 3h-43v-277h24v252h39q25 0 50 -2t48 -8t43 -17.5
t37 -30.5l-4 -5q-20 18 -41.5 27.5t-43.5 14t-42 5.5t-35 1h-36v-237h39q49 0 84.5 6.5t58.5 22.5t34 42.5t11 66.5z" />
    <glyph glyph-name="c" unicode="c" horiz-adv-x="611" 
d="M591 618q-18 -28 -41.5 -78.5t-49.5 -116.5l-12 10q22 57 44 106.5t49 93.5zM566 655q-13 -22 -27 -48t-26.5 -53t-23.5 -52.5t-19 -46.5l-4 2q-1 30 -8 61t-23.5 57t-43 42.5t-65.5 16.5q-59 0 -95.5 -32t-56.5 -78t-27 -97.5t-7 -91.5q0 -54 9.5 -107.5t31 -95.5
t56 -68.5t85.5 -26.5q41 0 73.5 13.5t55 37t34.5 56t12 71.5q0 7 4.5 16t18.5 9q12 0 16.5 -9.5t4.5 -20.5q0 -51 -15 -92t-44 -70.5t-71.5 -45.5t-97.5 -16q-76 0 -131 27.5t-91 75t-53.5 110.5t-17.5 135q0 74 17.5 138t54 111.5t91.5 74.5t130 27q36 0 61.5 -7.5
t46.5 -16t41 -16t45 -7.5q13 0 28.5 5t26.5 13zM573 179q0 -53 -18.5 -96t-53 -73t-82.5 -46.5t-106 -16.5t-101 16t-64 46l3 5q29 -26 67.5 -39t94.5 -13q60 0 107 18t79.5 50.5t49.5 78t17 101.5l5 -1q1 -8 1.5 -15t0.5 -15zM421 559q-19 22 -44.5 29.5t-47.5 7.5
q-47 0 -76 -26.5t-45.5 -65.5t-22.5 -84.5t-6 -84.5q0 -100 30.5 -172.5t79.5 -101.5l-3 -7q-30 12 -53 38.5t-38 64t-23 83t-8 95.5q0 37 6 85t24 90.5t50 71.5t85 29q30 0 57 -12t42 -38z" />
    <glyph glyph-name="d" unicode="d" 
d="M611 337q0 -93 -23 -157t-64.5 -104t-100 -58t-130.5 -18h-273l76 68v533l-76 70h273q318 0 318 -334zM655 327q0 -97 -22.5 -166t-67.5 -113.5t-113 -65.5t-159 -21h-229l-20 15h249q88 0 153 20t108 62.5t64.5 109t21.5 159.5q0 37 -5.5 74.5t-16.5 71.5t-27 63.5
t-36 51.5l5 2q22 -19 39.5 -47.5t30 -63t19 -73.5t6.5 -79zM494 338q0 143 -49 212.5t-161 69.5h-81v-569h24v545h77q16 0 33 -2t33.5 -7.5t30.5 -15.5t23 -26l-3 -3q-11 13 -25.5 20.5t-30.5 11.5t-32 5.5t-29 1.5h-62v-530h42q60 0 100.5 20.5t65 58t34.5 90.5t10 118z
" />
    <glyph glyph-name="e" unicode="e" horiz-adv-x="668" 
d="M616 642q-33 -45 -53.5 -82.5t-36.5 -75.5l-13 10q6 16 16 36t22 42t26.5 43t29.5 39zM446 234v224l15 -14v-224zM32 0l76 69v227q-26 0 -46 -13t-29 -26l-12 9q15 18 36 31t51 14v24q-26 0 -53.5 -13.5t-44.5 -32.5q0 45 27.5 71t70.5 27v214l-76 70h556
q-29 -39 -51 -78t-44 -84q-11 24 -22.5 44.5t-27.5 35.5t-38.5 23t-55.5 8h-134v-233h24v209h110q14 0 31 -2t33.5 -8t30 -15.5t20.5 -24.5l-4 -3q-10 12 -25 19.5t-30.5 11.5t-30.5 5.5t-25 1.5h-95v-194h99l66 86h3v-224h-3l-66 86h-138v-284h24v260h114l11 -15h-110v-245
h49q42 0 71 3.5t52 16.5t42.5 37.5t42.5 66.5q10 -29 20 -51.5t21 -42.5t25 -39.5t32 -41.5h-577zM627 -39h-561l-13 15h565l20 23q-19 23 -33.5 42.5t-25.5 38t-19.5 37.5t-15.5 41l20 -8q5 -16 12 -31.5t18 -33.5t26.5 -39t37.5 -48z" />
    <glyph glyph-name="f" unicode="f" horiz-adv-x="616" 
d="M616 642q-33 -45 -52.5 -81t-36.5 -75l-13 10q6 16 16 35.5t22 40.5t26 42.5t29 39.5zM446 221v224l15 -14v-224zM588 671q-29 -39 -51 -78.5t-44 -83.5q-11 24 -23 44.5t-28 35.5t-38 23t-55 8h-134v-246h24v222h110q14 0 30.5 -2t32 -8t28.5 -15.5t20 -24.5l-6 -2
q-21 22 -52 29.5t-53 7.5h-95v-207h99l66 86h3v-224h-3l-66 86h-138v-254l76 -68h-259l76 68v215q-23 0 -43 -14t-32 -27l-12 9q14 17 35.5 31t51.5 16v24q-26 0 -53.5 -13.5t-44.5 -32.5q0 45 27.5 71t70.5 27v227l-76 70h556zM239 298h114l13 -15h-112v-207l81 -73
l-27 -42h-242l-15 15h248l16 24l-76 69v229z" />
    <glyph glyph-name="g" unicode="g" 
d="M622 628q-23 -42 -45 -87t-45 -95l-12 12q23 50 46 95.5t46 89.5zM540 303v-235l66 -68h-294q-78 0 -133 24.5t-90.5 69.5t-52 107t-16.5 137q0 72 17 135.5t52.5 110.5t90 74t129.5 27q37 0 65.5 -6.5t54 -14t51 -13.5t57.5 -6q14 0 31 5.5t28 14.5l4 -3
q-58 -91 -100 -191l-4 2q-5 33 -18 62t-34 51t-51 35t-69 13q-53 0 -88.5 -27.5t-56.5 -70t-30 -95t-9 -103.5q0 -54 9 -105.5t32 -92t63 -65t103 -24.5h86v238h-73q-8 0 -23 1t-31 4.5t-29.5 11.5t-19.5 23l2 2q20 -17 44 -22.5t57 -5.5h73v25h-97q-15 0 -31.5 3t-30.5 11
t-23 22t-9 37q0 21 11.5 37.5t34.5 16.5q17 0 27 -10.5t10 -27.5q0 -25 -26 -30q7 -5 15.5 -6t19.5 -1h281zM453 538q-26 29 -55 43t-72 14q-39 0 -66.5 -20t-45.5 -55t-26.5 -82t-8.5 -100q0 -47 8 -90t24 -78t40.5 -60t56.5 -36l-2 -7q-38 9 -64.5 34.5t-44 62.5t-25.5 82
t-8 92q0 52 8.5 101t27.5 87t49.5 61t75.5 23q40 0 74.5 -15.5t60.5 -53.5zM312 -39q-65 0 -109.5 17.5t-62.5 42.5l4 5q23 -23 67 -36.5t101 -13.5h307l16 24l-71 75v218l65 67l10 -10l-60 -64v-204l76 -79l-27 -42h-316z" />
    <glyph glyph-name="h" unicode="h" horiz-adv-x="738" 
d="M449 -39l-15 15h248l16 24l-76 69v521l68 64l10 -11l-63 -59v-508l81 -73l-27 -42h-242zM246 289q24 -3 54 -5.5t62 -2.5q15 0 32.5 1t35 2.5t33.5 3t28 3.5v25q-11 -2 -27 -3.5t-34 -3t-35.5 -2.5t-32.5 -1q-38 0 -73.5 2.5t-66.5 7.5v-248l76 -68h-260l77 68v215
q-32 -2 -47 -10.5t-26 -19.5l-10 10q16 15 33.5 24t49.5 11v24q-26 -1 -52 -11t-43 -28q0 45 26.5 68.5t68.5 27.5v222l-77 70h259l-75 -70v-224l24 -3v216l68 64l10 -11l-63 -59v-212q20 -3 44.5 -4t54.5 -1q14 0 32 0.5t36 2t34.5 3t28.5 3.5v225l-76 70h258l-75 -70v-533
l75 -68h-258l76 68v209q-25 -5 -61 -7.5t-68 -2.5q-28 0 -54.5 1.5t-46.5 3.5v-196l81 -73l-27 -42h-242l-15 15h248l16 24l-76 69v220z" />
    <glyph glyph-name="i" unicode="i" horiz-adv-x="343" 
d="M54 -39l-15 15h248l16 24l-76 69v521l68 64l10 -11l-63 -59v-508l81 -73l-27 -42h-242zM20 0l76 68v533l-76 70h259l-76 -70v-533l76 -68h-259z" />
    <glyph glyph-name="j" unicode="j" horiz-adv-x="547" 
d="M464 584v-369q0 -23 4.5 -35t25.5 -20q-8 -58 -28.5 -98.5t-53.5 -66t-77 -37t-97 -11.5q-48 0 -91 19t-60 45l4 7q9 -11 25.5 -21t36 -18t42 -12.5t43.5 -4.5q48 0 89 10t72 33t51 59t28 89q-18 8 -23.5 21.5t-5.5 40.5v375l68 64l10 -11zM425 601v-386q0 -15 1 -25.5
t3.5 -18.5t8 -14.5t14.5 -13.5q-11 -77 -67 -117t-150 -40q-69 0 -116.5 32.5t-69.5 91.5q-8 21 -15 45.5t-24 42.5q33 16 65.5 35t66.5 51l2 -3q-8 -21 -10 -45.5t-2 -52.5q0 -24 6 -50t18 -47.5t30.5 -35t44.5 -13.5q27 0 44 10.5t26.5 28t13 39t3.5 44.5v442l-76 70h259z
M236 48q-38 5 -58.5 43t-20.5 88q0 29 1.5 52.5t6.5 43.5l13 -12q-4 -19 -5 -39t-1 -45q0 -50 20 -84.5t49 -39.5z" />
    <glyph glyph-name="k" unicode="k" horiz-adv-x="715" 
d="M429 -39l-16 15h258l15 24l-97 72l-177 359l59 75q19 25 38 46t41 38.5t48.5 32.5t61.5 27l13 -11q-35 -13 -62 -27.5t-49.5 -32t-42 -39t-39.5 -46.5l-51 -65l171 -347l105 -78l-25 -43h-251zM323 3l-27 -42h-244l-15 15h250l16 24l-76 69v139l94 114l-11 24l-107 -129
v-149l76 -68h-259l76 68v533l-76 70h259l-76 -70v-311l24 30v270l68 64l10 -11l-63 -59v-246l173 208q10 11 16.5 27t6.5 32q0 14 -6.5 24.5t-16.5 18t-22 13t-22 10.5h278q-71 -26 -119 -68.5t-89 -95.5l-58 -73l180 -366l94 -68h-263l52 68l-118 239l-86 -105v-126z" />
    <glyph glyph-name="l" unicode="l" horiz-adv-x="629" 
d="M20 0l76 68v533l-76 70h259l-76 -70v-550h24v539l68 64l10 -11l-63 -59v-533h64q54 0 95.5 36t60.5 118h5q7 -35 16.5 -63t21 -52t25.5 -46t32 -44h-542zM582 -39h-526l-20 15h537l16 23q-38 45 -62.5 98t-35.5 105l21 -14q7 -36 30.5 -86.5t65.5 -102.5z" />
    <glyph glyph-name="m" unicode="m" horiz-adv-x="797" 
d="M474 0l76 68v340l-165 -447h-38l-15 15h43l175 474v71l-192 -521h-36l-138 408v-262q0 -39 5.5 -63.5t16 -39t24 -22t30.5 -14.5l10 -4l-23 -42h-190l-15 15h196l11 22q-20 7 -34.5 16.5t-25 25t-15.5 41t-5 65.5v306l-21 62h-3v-354q0 -22 1.5 -45t8.5 -45t22 -40
t41 -30h-198q42 24 59 62.5t17 96.5v442l-76 70h278l-78 -70l146 -428l14 36l-132 384l66 60l10 -11l-59 -53l123 -358l145 386l-59 54h259l-76 -70v-533l76 -68h-259zM508 -39l-15 15h248l16 24l-76 69v521l68 64l10 -11l-63 -59v-508l81 -73l-27 -42h-242z" />
    <glyph glyph-name="n" unicode="n" horiz-adv-x="635" 
d="M625 645q-18 -10 -29.5 -22t-18 -28t-8.5 -36.5t-2 -47.5v-550h-102l-15 15h102v535q0 22 1.5 44t8 41t20 34t36.5 23zM601 671q-26 -12 -41 -30t-22 -40t-8.5 -45t-1.5 -45v-511h-97l-247 472v-332q0 -42 7 -66.5t19 -38t28 -20.5t33 -15l-24 -39h-192l-15 15h198l12 19
q-20 7 -35 16t-25 24t-15.5 40t-5.5 65v361l-19 33h-5v-374q0 -22 1.5 -45t8.5 -45t22 -40t41 -30h-198q42 24 59 63t17 96v442l-76 70h274l-66 -59l251 -479v54l-221 420l53 46l9 -11l-44 -39l203 -385v295q0 58 -17 96t-59 62h198z" />
    <glyph glyph-name="o" unicode="o" horiz-adv-x="655" 
d="M635 335q0 -78 -19.5 -148.5t-60 -123.5t-102 -84.5t-144.5 -31.5q-36 0 -67 7.5t-56 20.5t-43.5 29t-29.5 34l5 4q33 -35 80 -57.5t111 -22.5q79 0 137.5 29.5t97 80.5t57.5 118.5t19 144.5q0 51 -10 96.5t-27.5 83.5t-40 68.5t-47.5 50.5l6 3q66 -42 100 -120.5
t34 -181.5zM596 335q0 -74 -18.5 -137.5t-54.5 -110.5t-90 -74t-125 -27q-75 0 -129 28t-89.5 75.5t-52.5 111t-17 134.5q0 76 18.5 140t54.5 110.5t90 73t125 26.5q78 0 132.5 -29t89 -78t50.5 -112t16 -131zM475 335q0 39 -7.5 91t-26 98t-51 78t-82.5 32
q-34 0 -59.5 -14.5t-44 -38.5t-31 -55t-19.5 -64.5t-10 -66t-3 -60.5q0 -55 9 -108.5t29.5 -95.5t52 -68t76.5 -26q44 0 75.5 26t52 68t30 95.5t9.5 108.5zM405 553q-22 23 -45.5 32.5t-49.5 9.5q-39 0 -64.5 -29t-40 -69.5t-20 -85.5t-5.5 -76q0 -48 8 -93t22.5 -81.5
t34.5 -62.5t44 -36l-2 -7q-31 10 -53.5 36.5t-37.5 64.5t-22.5 84t-7.5 95q0 21 2.5 49t8.5 58.5t16.5 60.5t26.5 53.5t38 38t52 14.5q27 0 54.5 -12.5t46.5 -40.5z" />
    <glyph glyph-name="p" unicode="p" horiz-adv-x="624" 
d="M578 488q0 -66 -27 -106t-67 -61.5t-86.5 -28t-85.5 -6.5q-24 0 -51 1.5t-50 4.5v-224l76 -68h-259l76 68v189q-26 0 -38.5 -6.5t-23.5 -16.5l-15 6q11 11 28 21.5t49 10.5v24q-29 0 -53 -9.5t-41 -29.5q0 45 26 68t68 27v249l-76 70h276q46 0 94.5 -4.5t88.5 -23
t65.5 -55t25.5 -100.5zM457 487q0 36 -12 61.5t-33 41t-49.5 23t-60.5 7.5h-91v-274q3 -1 12.5 -2t11.5 -1v253h77q16 0 33.5 -2t34.5 -7.5t31 -15.5t23 -26l-2 -3q-11 13 -26 20.5t-31.5 11.5t-33 5.5t-29.5 1.5h-62v-239q5 -1 20 -1.5t27 -0.5q29 0 57.5 6.5t51.5 23
t37 45t14 72.5zM235 268q17 -2 36 -3.5t37 -1.5q45 0 96 6.5t94.5 30t72 68t28.5 119.5q0 47 -18.5 84t-47.5 58l5 6q34 -19 55 -59.5t21 -88.5q0 -81 -31 -128t-77 -71.5t-99.5 -31.5t-98.5 -7q-30 0 -58 3v-176l81 -73l-27 -42h-242l-15 15h248l16 24l-76 69v199z" />
    <glyph glyph-name="q" unicode="q" horiz-adv-x="656" 
d="M635 335q0 -48 -7.5 -94.5t-23.5 -88.5t-39.5 -77.5t-55.5 -61.5q5 -4 13 -5.5t13 -1.5q29 0 53 8l11 -13q-21 -6 -37 -7.5t-27 -1.5q-19 0 -29 5t-21 16q34 24 59.5 59t42 76.5t25 89t8.5 97.5q0 52 -10 97.5t-27.5 84t-40 68t-46.5 49.5l4 4q65 -42 100 -119.5
t35 -183.5zM606 -23q-23 -23 -44.5 -53t-29.5 -55q-51 2 -89 22.5t-58 63.5q-38 -8 -75 -8q-72 0 -123.5 27t-72.5 64l4 4q33 -35 80.5 -57.5t111.5 -22.5q36 0 68 6l-10 23q-14 -2 -28.5 -3.5t-29.5 -1.5q-73 0 -127.5 27t-90.5 74.5t-54 111t-18 136.5q0 76 18.5 140.5
t54.5 111t89.5 72.5t124.5 26t125 -26t90.5 -72.5t55 -110.5t18.5 -141q0 -106 -37.5 -190.5t-112.5 -126.5q18 -21 36.5 -36t48.5 -15q21 0 37.5 3t35.5 11zM636 -45q-20 -20 -35.5 -43t-23.5 -40l-18 -2q14 29 28.5 49.5t37.5 47.5zM475 335q0 27 -3 59.5t-10.5 65.5
t-19.5 64.5t-30.5 56t-44 39t-58.5 14.5q-34 0 -59.5 -14.5t-44.5 -39t-31 -56t-19.5 -64.5t-10.5 -65.5t-3 -59.5q0 -57 10 -110.5t30.5 -95t52 -67t75.5 -25.5q17 0 35 5q-12 20 -27.5 36t-38.5 18l29 39q29 -1 53.5 -18.5t38.5 -37.5q8 6 16 18q-19 22 -39 38t-50 20
l11 12q30 -7 48 -20t39 -37q26 42 38.5 102.5t12.5 122.5zM404 553q-22 23 -45 32.5t-47 9.5q-28 0 -48.5 -14t-35 -36.5t-24 -51t-15 -57.5t-7.5 -55.5t-2 -45.5q0 -47 8 -92t22 -82t34 -63t44 -36l-2 -7q-31 10 -53.5 37t-37.5 65t-22 84t-7 94q0 32 5.5 78.5t21.5 90
t44.5 74.5t74.5 31q27 0 53.5 -13t44.5 -40z" />
    <glyph glyph-name="r" unicode="r" horiz-adv-x="649" 
d="M448 299q22 -44 42 -78t43.5 -66t53.5 -66.5t72 -79.5q-51 -14 -100.5 -31t-90.5 -44l-16 8q35 23 84 42.5t97 30.5q-37 39 -65.5 73t-52 67.5t-44.5 70.5t-42 82q31 10 61 26t53 39t37 53.5t14 70.5q0 48 -17.5 82t-42.5 55l5 3q26 -14 48 -50.5t22 -89.5
q0 -42 -13.5 -73.5t-35.5 -55t-51.5 -40.5t-60.5 -29zM449 509q0 64 -33.5 95t-96.5 31q-32 0 -64 -8.5t-53 -22.5v-265l24 3v246q20 11 47.5 16.5t53.5 5.5q28 0 55 -9.5t44 -35.5l-7 -3q-19 21 -43.5 27.5t-48.5 6.5q-20 0 -44.5 -4.5t-41.5 -12.5v-235q36 4 73 13.5
t67 28.5t49 48.5t19 74.5zM226 268q30 2 59.5 6.5t59.5 10.5q-3 5 -5.5 11t-4.5 12q-35 -8 -70.5 -12t-62.5 -6v-222l76 -68h-259l76 68v176q-13 -1 -21.5 -2t-16 -2t-15.5 -2.5t-20 -3.5l-10 15q18 3 37.5 5.5t45.5 4.5v25q-19 -2 -40.5 -4t-44.5 -7l23 69q7 -1 16 -2
l18 -2t16.5 -1.5t11.5 -0.5v230l-65 32q26 22 60 38t71.5 27t76.5 16.5t75 5.5q46 0 92 -7.5t82.5 -28.5t59.5 -57t23 -93q0 -36 -14.5 -64.5t-38.5 -49.5t-56 -36.5t-66 -25.5q19 -44 39 -81.5t42.5 -72.5t50 -69.5t62.5 -72.5q-22 -6 -40 -12t-35 -12.5t-34 -15.5t-38 -21
q-6 37 -16.5 77t-23.5 79.5t-26.5 77.5t-25.5 71q-27 -5 -54.5 -9.5t-54.5 -7.5v-178l81 -73l-27 -42h-242l-15 15h248l16 24l-76 69v199z" />
    <glyph glyph-name="s" unicode="s" horiz-adv-x="622" 
d="M410 555q-21 20 -54 32t-62 12q-38 0 -61.5 -16t-23.5 -48q0 -33 19 -57.5t45 -38.5l-3 -6q-32 12 -54 36.5t-22 65.5q0 42 29 60.5t71 18.5q30 0 65 -13t58 -44zM563 189q0 -51 -19.5 -89.5t-53 -63.5t-78.5 -37.5t-96 -12.5q-36 0 -67 8.5t-59.5 18t-56 18t-56.5 8.5
q-19 0 -40 -6t-32 -11q27 43 56 95.5t48 102.5q6 -39 20 -73t38.5 -59t60.5 -39t86 -14q28 0 54.5 6.5t46.5 20t32.5 34t12.5 49.5q0 56 -29.5 85.5t-74.5 46.5t-96.5 29t-96.5 33t-74.5 59t-29.5 107q0 47 19 81t50 56t71 32.5t82 10.5q40 0 70 -6t55 -13.5t46 -13.5t43 -6
q12 0 25 4.5t24 11.5l4 -2q-26 -41 -48 -82.5t-41 -88.5l-3 2q-6 31 -19.5 57.5t-34 46t-48 31t-61.5 11.5q-21 0 -43 -4.5t-40 -16t-30 -30.5t-12 -48q0 -36 17 -59t44.5 -38.5t63 -26.5t73 -22t73 -25.5t63 -37t44.5 -56.5t17 -84zM449 168q-21 28 -54.5 45t-71.5 28.5
t-77 22t-73 26t-59.5 40t-34.5 64.5l4 4q16 -38 44.5 -60.5t63.5 -36.5t73 -23.5t74 -22t66 -32t48 -53.5zM602 184q0 -63 -24.5 -108t-64.5 -73.5t-91.5 -42t-105.5 -13.5q-33 0 -64.5 8.5t-61 18t-57.5 18t-56 8.5q-14 0 -27.5 -3.5t-26.5 -8.5l-10 12q15 7 31 11t33 4
q26 0 54 -8.5t58 -18t62 -18t65 -8.5q53 0 102.5 12.5t87 39.5t60 69t22.5 101q0 56 -22.5 91.5t-54.5 60.5l2 4q36 -15 62.5 -56.5t26.5 -99.5zM323 45q-85 1 -128 37.5t-52 115.5l20 -15q4 -25 14.5 -47.5t29.5 -40.5t47.5 -29.5t69.5 -13.5zM575 629q-26 -42 -45 -80
t-40 -86l-13 10q19 45 39.5 84t49.5 86z" />
    <glyph glyph-name="t" unicode="t" horiz-adv-x="686" 
d="M636 671q-20 -37 -39 -81t-32 -85q-6 41 -22.5 64t-41 34.5t-55.5 14t-65 2.5v-552l77 -68h-260l76 68v513q-38 0 -63.5 -3t-42.5 -13.5t-27 -31t-17 -54.5l-12 7q6 37 18.5 59t32 33t47 14.5t64.5 3.5v24q-34 0 -64.5 -2.5t-55 -14t-41 -34.5t-22.5 -64
q-6 18 -14.5 39.5t-18 43.5t-19.5 43.5t-19 39.5h616zM666 647q-21 -41 -38 -79t-35 -88l-14 11q9 22 17.5 42.5l17 41t18.5 42t24 44.5zM405 595q49 -1 88.5 -10.5t54.5 -41.5l-7 -2q-14 22 -46.5 30t-74.5 10v-505l81 -73l-27 -42h-242l-15 15h248l16 24l-76 69v526z" />
    <glyph glyph-name="u" unicode="u" horiz-adv-x="648" 
d="M574 584v-371q0 -26 6 -36t26 -20q-9 -58 -34.5 -98t-63.5 -65t-86.5 -36t-102.5 -11q-65 0 -121 16.5t-92 63.5l6 4q35 -38 90.5 -53.5t116.5 -15.5q49 0 94 10t81.5 32t61 58t33.5 89q-17 11 -23 22.5t-6 39.5v377l68 64l10 -11zM321 48q-33 6 -53 22.5t-31.5 39
t-15.5 49.5t-4 56v375l69 64l10 -11l-64 -59v-369q0 -59 19.5 -102t73.5 -56zM535 601v-388q0 -15 1 -25.5t4 -18.5t8.5 -14.5t14.5 -13.5q-18 -78 -84 -116.5t-169 -38.5q-44 0 -85 8.5t-75 27t-58 48t-34 71.5q9 7 14.5 13.5t8.5 14.5t4 18.5t1 25.5v388l-76 70h259
l-76 -70v-388q0 -36 7 -68t24 -56t45 -38t70 -14q43 0 71 15t45 40t24 56.5t7 64.5v388l-76 70h201z" />
    <glyph glyph-name="v" unicode="v" horiz-adv-x="691" 
d="M759 803q-36 -44 -61 -79.5t-45 -72t-37.5 -78t-37.5 -96.5l-150 -400l68 -76l-21 -40h-245l-14 15h249l13 24l-67 74l153 408q19 50 35.5 91t37 79.5t46.5 77.5t64 84zM730 830q-39 -46 -66.5 -86t-48.5 -80t-38 -82t-36 -92l-158 -422l65 -68h-245l65 68l-196 533
l-72 70h258l-73 -70l171 -463l15 35l-157 421l61 60l10 -11l-54 -53l148 -396l112 305q7 18 17 57.5t10 86.5q0 27 -9.5 57t-29.5 44q29 5 62 14.5t66 21t64.5 25t58.5 25.5z" />
    <glyph glyph-name="w" unicode="w" horiz-adv-x="889" 
d="M772 1l-21 -40h-241l-14 15h245l13 24l-85 85l108 400q13 47 28 89.5t34.5 82t45 78.5t59.5 80l12 -12q-68 -78 -105.5 -160.5t-58.5 -158.5l-106 -394zM455 1l-21 -40h-248l-14 15h252l13 24l-83 83l89 338l-13 45l-99 -372l7 -26l70 -68h-252l68 68l-156 533l-68 70
h248l-68 -70l123 -418l13 46l-109 365l59 60l10 -10l-52 -54l99 -335l109 416h51l139 -483l12 47l-125 432l19 -12l114 -392l76 294q4 14 7.5 38t3.5 45q0 26 -9.5 55.5t-30.5 49.5q21 4 50.5 12t61.5 19t64.5 24.5t61.5 29.5q-50 -60 -96 -140t-75 -189l-108 -404l7 -29
l70 -68h-245l66 66l-95 327l-81 -304z" />
    <glyph glyph-name="x" unicode="x" horiz-adv-x="740" 
d="M447 -39l-15 15h269l14 24l-94 74l-197 292l149 217l104 68l8 -12l-102 -67l-141 -205l190 -283l103 -81l-23 -42h-265zM414 0l59 68l-118 174l-116 -169l63 -72l-33 -40h-218l-15 15h225l21 25l-63 69l128 185l-15 21l-143 -207l64 -69h-233l109 71l173 250l-190 280
l-88 70h263l-58 -60l135 -199l15 21l-118 175l43 47l11 -10l-36 -38l109 -161l106 155l-59 70h229l-109 -70l-161 -234l203 -299l89 -68h-272z" />
    <glyph glyph-name="y" unicode="y" horiz-adv-x="706" 
d="M501 3l-27 -42h-242l-15 15h248l16 24l-76 69v208l164 269q26 42 53.5 82.5t55 75.5t53 62.5t46.5 44.5l9 -13q-54 -46 -107.5 -117.5t-101.5 -150.5l-157 -257v-197zM762 830q-26 -20 -48.5 -44.5t-43 -51t-37.5 -52t-31 -47.5l-221 -351v-216l76 -68h-259l76 68v214
l-199 319l-75 70h252l-55 -64l164 -262l15 24l-148 236l43 51l11 -10l-36 -42l138 -222l135 214q26 43 26 81q0 25 -9 39.5t-27 27.5q21 5 50.5 13.5t63 19.5t69.5 24.5t70 28.5z" />
    <glyph glyph-name="z" unicode="z" horiz-adv-x="674" 
d="M229 51h69q42 0 71 3.5t51.5 16.5t42.5 37.5t43 66.5q10 -29 20 -51.5t21.5 -42.5t25 -39.5t31.5 -41.5h-578l368 581h-68q-42 0 -68 -4.5t-44.5 -16.5t-33.5 -34t-33 -57l-14 6q19 36 34 59t34.5 36.5t48 19t76.5 5.5h77l16 25h-93q-43 0 -74.5 -4.5t-55.5 -17.5
t-42.5 -37t-35.5 -64q-10 28 -20.5 51.5t-22.5 44t-25.5 39.5t-29.5 39h563l-400 -620h28l394 612l14 -11zM622 -39h-552l-19 15h563l19 23q-18 23 -32.5 42.5t-25.5 38t-19.5 37t-15.5 41.5l19 -8q11 -29 31.5 -63.5t63.5 -88.5z" />
    <glyph glyph-name="afii10065" unicode="&#x430;" horiz-adv-x="732" 
d="M143 387q14 -8 28.5 -17.5t28.5 -20.5l6 17q-14 13 -25.5 21.5t-28.5 17.5l6 13q14 -8 26.5 -16.5t26.5 -21.5l78 231l-48 60h230l-51 -60l92 -259l23 14l-86 238l41 52l11 -11l-35 -44l82 -229l28 12l27 -75q-18 -4 -34.5 -9.5t-32.5 -13.5l81 -223l77 -63h-264l70 63
l-42 118q-23 -20 -43.5 -46t-34.5 -50l-14 7q17 26 38 53.5t47 50.5l-9 26q-26 -25 -50 -54.5t-45 -62.5q-21 33 -45 64t-52 57l-12 -31q-8 -20 -13 -43.5t-5 -47.5q0 -31 21 -56.5t48 -45.5l-29 -41h-242l-14 15h248l18 24q-24 17 -44.5 42t-20.5 62q0 30 6.5 55t15.5 48
l11 30l-20 16l-13 -39q-11 -29 -17 -57t-6 -50q0 -35 14 -57t42 -46v-4h-248v3q65 44 107 106t71 146l9 26q-34 20 -67 30zM360 225q26 32 59 62l-76 213l-60 -176q17 -16 38.5 -43.5t38.5 -55.5zM654 80l91 -76l-25 -43h-261l-14 15h265l15 24l-84 71l-73 203q14 8 33 11
t33 5q-9 20 -17 42t-14 42l18 -5q14 -43 35 -93q-17 0 -35.5 -2t-32.5 -9zM339 195q3 5 5.5 9t6.5 9q-18 31 -42.5 60.5t-42.5 46.5l69 201l-13 34l-82 -239q59 -54 99 -121z" />
    <glyph glyph-name="afii10067" unicode="&#x432;" horiz-adv-x="662" 
d="M617 493q0 -32 -9 -57t-24.5 -44.5t-36.5 -33t-44 -22.5q45 -23 73.5 -63t28.5 -94q0 -58 -20 -93.5t-53 -54.5t-75.5 -25t-87.5 -6h-339l76 68v220q-39 -3 -76 -10l-8 14q18 4 39.5 6.5t44.5 4.5v25q-19 -2 -41 -4t-45 -7l23 69q14 -2 34 -4t29 -2v186l-58 32
q26 21 59 37t69 27.5t72.5 17t71.5 5.5q45 0 91 -9t83 -30.5t60.5 -57.5t23.5 -90q0 -51 -34.5 -88t-90.5 -52v-3q17 -4 32 -11q22 8 43 20.5t37.5 31t26.5 42.5t10 55q0 42 -19 74.5t-42 53.5l4 2q12 -8 25 -20t23.5 -28.5t17 -37t6.5 -44.5zM642 169q0 -72 -26.5 -113.5
t-67 -62.5t-90 -26.5t-94.5 -5.5h-290l-20 15h310q45 0 92 5t85 24.5t62 58t24 105.5q0 24 -6.5 45.5t-17 39.5t-22.5 32.5t-24 23.5l3 3q14 -8 28.5 -21.5t26.5 -32t19.5 -41.5t7.5 -49zM461 507q0 64 -38.5 96t-98.5 32q-29 0 -59.5 -7.5t-51.5 -21.5v-230h24v216
q19 9 43 15t46 6q13 0 29 -2.5t31.5 -8.5t29 -15.5t22.5 -23.5l-2 -3q-22 20 -53 29.5t-57 9.5q-17 0 -37 -4.5t-37 -11.5v-207h25q33 0 66 4t59.5 18t42.5 39.5t16 69.5zM479 189q0 50 -21 78t-53 41.5t-72 16.5t-77 3h-43v-277h24v252h39q25 0 50 -2t48 -8t43 -17.5
t37 -30.5l-4 -5q-20 18 -41.5 27.5t-43.5 14t-42 5.5t-35 1h-36v-237h39q49 0 84.5 6.5t58.5 22.5t34 42.5t11 66.5z" />
    <glyph glyph-name="afii10068" unicode="&#x433;" horiz-adv-x="616" 
d="M616 642q-33 -45 -52.5 -81t-36.5 -75l-13 10q6 16 16 35.5t22 40.5t26 42.5t29 39.5zM239 596h110q14 0 30.5 -2t32 -8t28.5 -15.5t20 -24.5l-6 -2q-21 22 -52 29.5t-53 7.5h-95v-505l81 -73l-27 -42h-242l-15 15h248l16 24l-76 69v527zM215 68l76 -68h-259l76 68v533
l-76 70h556q-29 -39 -51 -78.5t-44 -83.5q-11 24 -23 44.5t-28 35.5t-38 23t-55 8h-134v-552z" />
    <glyph glyph-name="afii10070" unicode="&#x435;" horiz-adv-x="668" 
d="M616 642q-33 -45 -53.5 -82.5t-36.5 -75.5l-13 10q6 16 16 36t22.5 41.5t26.5 43t29 39.5zM446 234v224l15 -14v-224zM32 0l76 69v227q-26 0 -46 -13t-29 -26l-12 9q15 18 36 31t51 14v24q-26 0 -53.5 -13.5t-44.5 -32.5q0 45 27.5 71t70.5 27v214l-76 70h556
q-29 -39 -51 -78.5t-44 -83.5q-11 24 -22.5 44.5t-27.5 35.5t-38.5 23t-55.5 8h-134v-233h24v209h110q14 0 31 -2t33.5 -8t30 -15.5t20.5 -24.5l-4 -3q-10 12 -24.5 19.5t-30.5 11.5t-31 5.5t-25 1.5h-95v-194h99l66 86h3v-224h-3l-66 86h-138v-284h24v260h114l11 -15h-110
v-245h49q42 0 71 3.5t51.5 16.5t42.5 37.5t43 66.5q10 -29 20 -51.5t21 -42.5t25 -39.5t32 -41.5h-577zM627 -39h-561l-13 15h565l20 23q-19 23 -33 42.5t-25.5 38t-20 37t-15.5 41.5l20 -8q5 -16 12.5 -31.5t18 -33.5t26 -39t37.5 -48z" />
    <glyph glyph-name="afii10033" unicode="&#x41f;" horiz-adv-x="738" 
d="M449 -39l-15 15h248l16 24l-76 69v521l68 64l10 -11l-63 -59v-508l81 -73l-27 -42h-242zM261 581h209v15h-224v-433q0 -50 4 -89t13.5 -71t24.5 -59.5t38 -53.5q-35 -9 -66.5 -19.5t-63 -24t-64 -32t-68.5 -43.5l17 -7q38 26 72.5 44.5t68 32.5t66 23.5t66.5 17.5
q-24 29 -42 56t-29 59t-16.5 72.5t-5.5 97.5v414zM222 160q0 -72 13 -140t51 -119q-68 -18 -125 -44.5t-119 -71.5q27 36 42 80t22 92t8 99.5t1 102.5v442l-77 70h635l-75 -70v-533l75 -68h-258l76 68v553l-269 -1v-460z" />
    <glyph glyph-name="afii10034" unicode="&#x420;" horiz-adv-x="639" 
d="M77 500q27 3 47.5 13.5t37.5 24t32 25.5t32 18v-245q6 -1 12 -1.5t12 -0.5v258q19 10 44 15.5t48 5.5q27 0 58 -11t48 -39l-6 -2q-20 23 -47 30.5t-53 7.5q-19 0 -39.5 -4t-37.5 -12v-250q12 -1 23.5 -1h23.5q28 0 56.5 8t51.5 26.5t37.5 48.5t14.5 74q0 70 -33.5 108
t-96.5 38t-101 -17t-65.5 -37t-52 -37t-58.5 -17q-12 0 -25 4.5t-24 15t-18.5 28t-7.5 43.5q31 -6 55 -6q37 0 65.5 11.5t59 25t69 25t95.5 11.5q46 0 92.5 -8.5t83.5 -31t60 -60.5t23 -98q0 -66 -25.5 -107t-65 -63.5t-87 -30t-92.5 -7.5q-24 0 -49 0.5t-48 3.5v-215
l76 -68h-259l76 67v185q-20 0 -33.5 -1t-38.5 -6l-9 15q13 3 23.5 4.5t19.5 2.5t18 1h20v21q-5 1 -12 1h-12q-13 0 -30 -2t-32 -5l23 71q14 -3 33 -6.5t30 -4.5v112zM310 -24l16 24l-76 69v188q18 -2 37.5 -2.5t37.5 -0.5q30 0 63 3t65 11.5t61 24t51.5 41t35.5 62t13 86.5
q0 25 -6.5 48.5t-16.5 43t-22 34.5t-23 23l5 2q13 -6 26.5 -20.5t25 -35t19 -45t7.5 -50.5q0 -54 -14.5 -92.5t-38 -65.5t-55 -43.5t-65 -25.5t-67.5 -12t-64 -3h-30.5t-29.5 1v-165l81 -73l-27 -42h-242l-15 15h248z" />
    <glyph glyph-name="afii10035" unicode="&#x421;" horiz-adv-x="611" 
d="M591 618q-18 -28 -41.5 -78.5t-49.5 -116.5l-12 10q22 57 44 106.5t49 93.5zM566 655q-13 -22 -27 -48t-26.5 -53t-23.5 -52.5t-19 -46.5l-4 2q-1 30 -8 61t-23.5 57t-43 42.5t-65.5 16.5q-59 0 -95.5 -32t-56.5 -78t-27 -97.5t-7 -91.5q0 -54 9.5 -107.5t31 -95.5
t56 -68.5t85.5 -26.5q41 0 73.5 13.5t55 37t34.5 56t12 71.5q0 7 4.5 16t18.5 9q12 0 16.5 -9.5t4.5 -20.5q0 -51 -15 -92t-44 -70.5t-71.5 -45.5t-97.5 -16q-76 0 -131 27.5t-91 75t-53.5 110.5t-17.5 135q0 74 17.5 138t54 111.5t91.5 74.5t130 27q36 0 61.5 -7.5
t46.5 -16t41 -16t45 -7.5q13 0 28.5 5t26.5 13zM573 179q0 -53 -18.5 -96t-53 -73t-82.5 -46.5t-106 -16.5t-101 16t-64 46l3 5q29 -26 67.5 -39t94.5 -13q60 0 107 18t79.5 50.5t49.5 78t17 101.5l5 -1q1 -8 1.5 -15t0.5 -15zM421 559q-19 22 -44.5 29.5t-47.5 7.5
q-47 0 -76 -26.5t-45.5 -65.5t-22.5 -84.5t-6 -84.5q0 -100 30.5 -172.5t79.5 -101.5l-3 -7q-30 12 -53 38.5t-38 64t-23 83t-8 95.5q0 37 6 85t24 90.5t50 71.5t85 29q30 0 57 -12t42 -38z" />
    <glyph glyph-name="afii10036" unicode="&#x422;" horiz-adv-x="686" 
d="M666 646q-23 -44 -39 -81.5t-34 -85.5l-14 12q18 44 33.5 84t43.5 86zM541 541q-14 22 -46.5 30t-74.5 10v-421q0 -57 5.5 -96.5t16.5 -70t29 -56.5t42 -55q-34 -8 -66.5 -17.5t-66 -23.5t-68 -32.5t-72.5 -44.5l-17 7q36 25 68.5 43.5t64 32t63 24t66.5 19.5
q-23 26 -38 53t-24.5 58.5t-13.5 70t-4 88.5v435q48 0 88 -10t55 -42zM636 671q-20 -37 -39 -80.5t-32 -85.5q-6 41 -22.5 64t-41 34.5t-55.5 14t-65 2.5v-460q0 -72 13 -140t51 -119q-68 -18 -125 -44.5t-119 -71.5q27 36 42 80t22 92t8 99.5t1 102.5v422q-38 0 -63.5 -3
t-42.5 -14.5t-27 -33.5t-17 -59l-12 7q6 40 18.5 63.5t32 35.5t47 15.5t64.5 3.5v24q-34 0 -64.5 -2.5t-55 -14t-41 -34.5t-22.5 -64q-6 18 -14.5 39.5t-18 43.5t-19.5 43.5t-19 39.5h616z" />
    <glyph glyph-name="afii10039" unicode="&#x425;" horiz-adv-x="740" 
d="M447 -39l-15 15h269l14 24l-94 74l-197 292l149 217l104 68l8 -12l-102 -67l-141 -205l190 -283l103 -81l-23 -42h-265zM414 0l59 68l-118 174l-116 -169l63 -72l-33 -40h-218l-15 15h225l21 25l-63 69l128 185l-15 21l-143 -207l64 -69h-233l109 71l173 250l-190 280
l-88 70h263l-58 -60l135 -199l15 21l-118 175l43 47l11 -10l-36 -38l109 -161l106 155l-59 70h229l-109 -70l-161 -234l203 -299l89 -68h-272z" />
    <glyph glyph-name="afii10048" unicode="&#x42e;" horiz-adv-x="981" 
d="M221 160q0 -72 13.5 -140t51.5 -119q-68 -18 -125 -44.5t-119 -71.5q27 36 42 80t22 92t8 99.5t1 102.5l-1 442l-76 70h259l-76 -70v-439v-2zM188 307v62h248v-62h-248zM246 282h165l15 -14h-166v-98v-3q0 -57 5.5 -97.5t17 -72.5t29.5 -59t42 -56q-34 -8 -66.5 -17.5
t-66 -23.5t-68 -32.5t-72.5 -44.5l-17 7q36 25 68.5 43.5t64 32t63 24t66.5 19.5q-23 26 -38.5 53.5t-25.5 59.5t-14 71t-3 89zM116 312q-26 -1 -53 -11t-44 -28q0 45 27.5 68.5t69.5 27.5v-57zM116 288q-32 -2 -50.5 -11t-34.5 -24l10 -10q11 11 27 19.5t48 10.5v15z
M952 329q0 -78 -19.5 -148.5t-60 -123.5t-102 -84.5t-144.5 -31.5q-36 0 -67 7.5t-56 20.5t-43.5 29t-29.5 34l5 4q33 -35 80 -57.5t111 -22.5q79 0 137.5 29.5t97 80.5t57.5 119t19 144q0 51 -10 96.5t-27 84t-40 68.5t-48 50l6 3q65 -42 99.5 -120.5t34.5 -181.5zM913 329
q0 -74 -18.5 -137.5t-54.5 -110.5t-90 -74t-125 -27q-75 0 -129 28t-89.5 75.5t-52.5 111t-17 134.5q0 76 18.5 140t54.5 110.5t90 73t125 26.5q78 0 132.5 -29t89 -78t50.5 -112t16 -131zM792 329q0 39 -7.5 91t-26 98t-51 78t-82.5 32q-34 0 -59.5 -14.5t-44 -38.5
t-31 -55t-19.5 -64.5t-10 -66.5t-3 -60q0 -55 9 -108.5t29.5 -95.5t52 -68t76.5 -26q44 0 75.5 26t52 68t30 95.5t9.5 108.5zM722 547q-22 23 -45.5 32.5t-49.5 9.5q-39 0 -64.5 -29t-40 -69.5t-20 -85.5t-5.5 -76q0 -48 8 -93t22.5 -82t34.5 -62.5t44 -35.5l-2 -7
q-31 10 -53.5 36.5t-37.5 64.5t-22.5 84.5t-7.5 94.5q0 21 2.5 49t8.5 58.5t16.5 60.5t26.5 53.5t38 38t52 14.5q27 0 54.5 -12.5t46.5 -40.5zM260 357l-15 -3v236l68 64l10 -11l-63 -59v-227z" />
    <glyph glyph-name="afii10081" unicode="&#x43f;" horiz-adv-x="738" 
d="M449 -39l-15 15h248l16 24l-76 69v521l68 64l10 -11l-63 -59v-508l81 -73l-27 -42h-242zM491 621l-269 -1v-552l76 -68h-260l77 68v533l-77 70h635l-75 -70v-533l75 -68h-258l76 68v553zM470 581h-209v-505l81 -73l-27 -42h-242l-15 15h248l16 24l-76 69v527h224v-15z
" />
    <glyph glyph-name="afii10080" unicode="&#x43e;" horiz-adv-x="655" 
d="M635 335q0 -78 -19.5 -148.5t-60 -123.5t-102 -84.5t-144.5 -31.5q-36 0 -67 7.5t-56 20.5t-43.5 29t-29.5 34l5 4q33 -35 80 -57.5t111 -22.5q79 0 137.5 29.5t97 80.5t57.5 119t19 144q0 51 -10 96.5t-27 84t-40 68.5t-48 50l6 3q65 -42 99.5 -120.5t34.5 -181.5z
M596 335q0 -74 -18.5 -137.5t-54.5 -110.5t-90 -74t-125 -27q-75 0 -129 28t-89.5 75.5t-52.5 111t-17 134.5q0 76 18.5 140t54.5 110.5t90 73t125 26.5q78 0 132.5 -29t89 -78t50.5 -112t16 -131zM475 335q0 39 -7.5 91t-26 98t-51 78t-82.5 32q-34 0 -59.5 -14.5
t-44 -38.5t-31 -55t-19.5 -64.5t-10 -66.5t-3 -60q0 -55 9 -108.5t29.5 -95.5t52 -68t76.5 -26q44 0 75.5 26t52 68t30 95.5t9.5 108.5zM405 553q-22 23 -45.5 32.5t-49.5 9.5q-39 0 -64.5 -29t-40 -69.5t-20 -85.5t-5.5 -76q0 -48 8 -93t22.5 -82t34.5 -62.5t44 -35.5
l-2 -7q-31 10 -53.5 36.5t-37.5 64.5t-22.5 84.5t-7.5 94.5q0 21 2.5 49t8.5 58.5t16.5 60.5t26.5 53.5t38 38t52 14.5q27 0 54.5 -12.5t46.5 -40.5z" />
    <glyph glyph-name="afii10076" unicode="&#x43a;" horiz-adv-x="715" 
d="M429 -39l-16 15h258l15 24l-97 72l-177 359l59 75q19 25 38 46t41 38.5t48.5 32.5t61.5 27l13 -11q-35 -13 -62 -27.5t-49.5 -32t-42 -39t-39.5 -46.5l-51 -65l171 -347l105 -78l-25 -43h-251zM323 3l-27 -42h-244l-15 15h250l16 24l-76 69v139l94 114l-11 24l-107 -129
v-149l76 -68h-259l76 68v533l-76 70h259l-76 -70v-311l24 30v270l68 64l10 -11l-63 -59v-246l173 208q10 11 16.5 27t6.5 32q0 14 -6.5 24.5t-16.5 18t-22 13t-22 10.5h278q-71 -26 -119 -68.5t-89 -95.5l-58 -73l180 -366l94 -68h-263l52 68l-118 239l-86 -105v-126z" />
    <glyph glyph-name="afii10078" unicode="&#x43c;" horiz-adv-x="797" 
d="M474 0l76 68v340l-165 -447h-38l-15 15h43l175 474v71l-192 -521h-36l-138 408v-262q0 -39 5.5 -63.5t16 -39t24 -22t30.5 -14.5l10 -4l-23 -42h-190l-15 15h196l11 22q-20 7 -34.5 16.5t-25 25t-15.5 41t-5 65.5v306l-21 62h-3v-354q0 -22 1.5 -45t8.5 -45t22 -40
t41 -30h-198q42 24 59 62.5t17 96.5v442l-76 70h278l-78 -70l146 -428l14 36l-132 384l66 60l10 -11l-59 -53l123 -358l145 386l-59 54h259l-76 -70v-533l76 -68h-259zM508 -39l-15 15h248l16 24l-76 69v521l68 64l10 -11l-63 -59v-508l81 -73l-27 -42h-242z" />
    <glyph glyph-name="afii10082" unicode="&#x440;" horiz-adv-x="624" 
d="M578 488q0 -66 -27 -106t-67 -61.5t-86.5 -28t-85.5 -6.5q-24 0 -51 1.5t-50 4.5v-224l76 -68h-259l76 68v189q-26 0 -38.5 -6.5t-23.5 -16.5l-15 6q11 11 28 21.5t49 10.5v24q-29 0 -53 -9.5t-41 -29.5q0 45 26 68t68 27v249l-76 70h276q46 0 94.5 -4.5t88.5 -23
t65.5 -55t25.5 -100.5zM457 487q0 36 -12 61.5t-33 41t-49.5 23t-60.5 7.5h-91v-274q3 -1 12.5 -2t11.5 -1v253h77q16 0 33.5 -2t34.5 -7.5t31 -15.5t23 -26l-2 -3q-11 13 -26 20.5t-31.5 11.5t-33 5.5t-29.5 1.5h-62v-239q5 -1 20 -1.5t27 -0.5q29 0 57.5 6.5t51.5 23
t37 45t14 72.5zM235 268q17 -2 36 -3.5t37 -1.5q45 0 96 6.5t94.5 30t72 68t28.5 119.5q0 47 -18.5 84t-47.5 58l5 6q34 -19 55 -59.5t21 -88.5q0 -81 -31 -128t-77 -71.5t-99.5 -31.5t-98.5 -7q-30 0 -58 3v-176l81 -73l-27 -42h-242l-15 15h248l16 24l-76 69v199z" />
    <glyph glyph-name="afii10083" unicode="&#x441;" horiz-adv-x="611" 
d="M591 618q-18 -28 -41.5 -78.5t-49.5 -116.5l-12 10q22 57 44 106.5t49 93.5zM566 655q-13 -22 -27 -48t-26.5 -53t-23.5 -52.5t-19 -46.5l-4 2q-1 30 -8 61t-23.5 57t-43 42.5t-65.5 16.5q-59 0 -95.5 -32t-56.5 -78t-27 -97.5t-7 -91.5q0 -54 9.5 -107.5t31 -95.5
t56 -68.5t85.5 -26.5q41 0 73.5 13.5t55 37t34.5 56t12 71.5q0 7 4.5 16t18.5 9q12 0 16.5 -9.5t4.5 -20.5q0 -51 -15 -92t-44 -70.5t-71.5 -45.5t-97.5 -16q-76 0 -131 27.5t-91 75t-53.5 110.5t-17.5 135q0 74 17.5 138t54 111.5t91.5 74.5t130 27q36 0 61.5 -7.5
t46.5 -16t41 -16t45 -7.5q13 0 28.5 5t26.5 13zM573 179q0 -53 -18.5 -96t-53 -73t-82.5 -46.5t-106 -16.5t-101 16t-64 46l3 5q29 -26 67.5 -39t94.5 -13q60 0 107 18t79.5 50.5t49.5 78t17 101.5l5 -1q1 -8 1.5 -15t0.5 -15zM421 559q-19 22 -44.5 29.5t-47.5 7.5
q-47 0 -76 -26.5t-45.5 -65.5t-22.5 -84.5t-6 -84.5q0 -100 30.5 -172.5t79.5 -101.5l-3 -7q-30 12 -53 38.5t-38 64t-23 83t-8 95.5q0 37 6 85t24 90.5t50 71.5t85 29q30 0 57 -12t42 -38z" />
    <glyph glyph-name="afii10084" unicode="&#x442;" horiz-adv-x="686" 
d="M636 671q-20 -37 -39 -81t-32 -85q-6 41 -22.5 64t-41 34.5t-55.5 14t-65 2.5v-552l77 -68h-260l76 68v513q-38 0 -63.5 -3t-42.5 -13.5t-27 -31t-17 -54.5l-12 7q6 37 18.5 59t32 33t47 14.5t64.5 3.5v24q-34 0 -64.5 -2.5t-55 -14t-41 -34.5t-22.5 -64
q-6 18 -14.5 39.5t-18 43.5t-19.5 43.5t-19 39.5h616zM666 647q-21 -41 -38 -79t-35 -88l-14 11q9 22 17.5 42.5l17 41t18.5 42t24 44.5zM405 595q49 -1 88.5 -10.5t54.5 -41.5l-7 -2q-14 22 -46.5 30t-74.5 10v-505l81 -73l-27 -42h-242l-15 15h248l16 24l-76 69v526z" />
    <glyph glyph-name="afii10087" unicode="&#x445;" horiz-adv-x="740" 
d="M447 -39l-15 15h269l14 24l-94 74l-197 292l149 217l104 68l8 -12l-102 -67l-141 -205l190 -283l103 -81l-23 -42h-265zM414 0l59 68l-118 174l-116 -169l63 -72l-33 -40h-218l-15 15h225l21 25l-63 69l128 185l-15 21l-143 -207l64 -69h-233l109 71l173 250l-190 280
l-88 70h263l-58 -60l135 -199l15 21l-118 175l43 47l11 -10l-36 -38l109 -161l106 155l-59 70h229l-109 -70l-161 -234l203 -299l89 -68h-272z" />
    <glyph glyph-name="afii10018" unicode="&#x411;" horiz-adv-x="652" 
d="M348 596q14 0 30.5 -2t32 -8t28.5 -15.5t20 -24.5l-6 -2q-21 22 -52 29.5t-53 7.5h-103v-205h25q55 0 113.5 -6.5t106 -27.5t78 -60t30.5 -103q0 -59 -20 -94t-53 -54t-75.5 -25t-87.5 -6h-339l76 68v220q-20 -2 -38.5 -4t-37.5 -6l-8 14q18 4 39.5 6.5t44.5 4.5v25
q-19 -2 -41 -4t-45 -7l23 69q14 -2 34 -4t29 -2l-1 221l-76 70h565q-29 -39 -51 -78t-44 -84q-11 24 -23 44.5t-28 35.5t-38.5 23t-54.5 8h-142v-244h24v220h118zM357 -24q45 0 92 5t85 24.5t62 58t24 105.5q0 48 -16 86t-39 55l3 3q28 -16 47.5 -53.5t19.5 -90.5
q0 -72 -26.5 -113.5t-67 -62.5t-90 -26.5t-94.5 -5.5h-290l-20 15h310zM230 51v252h39q51 0 97.5 -10.5t80.5 -47.5l-4 -5q-20 18 -41.5 27.5t-43.5 14t-42 5.5t-35 1h-36v-237h39q49 0 84.5 6.5t58.5 22.5t34 42.5t11 66.5q0 50 -21 78t-53 41.5t-72 16.5t-77 3h-43v-277
h24zM615 642q-33 -45 -52.5 -81t-36.5 -75l-13 10q6 15 15.5 35t21.5 41.5t26.5 42.5t29.5 39z" />
    <glyph glyph-name="afii10021" unicode="&#x414;" horiz-adv-x="683" 
d="M247 0q-34 0 -64.5 -2.5t-55 -14t-41 -34.5t-22.5 -64q-6 18 -14.5 39.5t-18 43.5t-19.5 43.5t-19 39.5h78q22 36 42.5 87.5t36 120t25 153.5t8.5 189l-77 70h496l-75 -70v-550h85q-20 -37 -39 -80.5t-32 -85.5q-6 41 -22.5 64t-41 34.5t-55.5 14t-65 2.5h-110zM420 621
l-179 -1q1 -74 -2.5 -147t-14 -144.5t-30.5 -141.5t-53 -136h279v570zM648 70q-20 -32 -34 -59t-24 -51t-18 -45.5t-17 -43.5l14 -12q9 24 18.5 48t21.5 51t28 58t38 69h-109v499l63 59l-10 11l-68 -64v-520h97zM176 68q40 71 65.5 204t23.5 324h134v-15h-119
q2 -190 -22.5 -316.5t-64.5 -195.5zM381 -24q48 0 88 -10.5t55 -42.5l-7 -2q-14 22 -46.5 30t-74.5 10h-149q-38 0 -63.5 -3t-42.5 -14.5t-27 -33.5t-17 -59l-12 7q6 40 18.5 63.5t32 35.5t47 15.5t64.5 3.5h134z" />
    <glyph glyph-name="afii10028" unicode="&#x41a;" horiz-adv-x="715" 
d="M429 -39l-16 15h258l15 24l-97 72l-177 359l59 75q19 25 38 46t41 38.5t48.5 32.5t61.5 27l13 -11q-35 -13 -62 -27.5t-49.5 -32t-42 -39t-39.5 -46.5l-51 -65l171 -347l105 -78l-25 -43h-251zM323 3l-27 -42h-244l-15 15h250l16 24l-76 69v139l94 114l-11 24l-107 -129
v-149l76 -68h-259l76 68v533l-76 70h259l-76 -70v-311l24 30v270l68 64l10 -11l-63 -59v-246l173 208q10 11 16.5 27t6.5 32q0 14 -6.5 24.5t-16.5 18t-22 13t-22 10.5h278q-71 -26 -119 -68.5t-89 -95.5l-58 -73l180 -366l94 -68h-263l52 68l-118 239l-86 -105v-126z" />
    <glyph glyph-name="afii10024" unicode="&#x416;" horiz-adv-x="1053" 
d="M446 68v149l-107 129l-136 -278l52 -68h-263l94 68l180 366l-58 73q-41 53 -89 95.5t-119 68.5h278q-10 -5 -22 -10.5t-22 -13t-16.5 -18t-6.5 -24.5q0 -16 6.5 -32t16.5 -27l212 -256v34l-157 190q-14 15 -28.5 34t-19 38t6 37t47.5 32l12 -10q-33 -13 -42.5 -28
t-5.5 -30.5t16.5 -31t23.5 -29.5l147 -178v253l-76 70h259l-76 -70v-311l24 30v270l68 64l10 -11l-63 -59v-246l173 208q10 11 16.5 27t6.5 32q0 15 -6.5 25t-16.5 17.5t-22 13t-22 10.5h278q-71 -26 -119 -68.5t-89 -95.5l-58 -73l180 -366l94 -68h-263l52 68l-118 239
l-86 -105v-126l81 -73l-27 -42h-244l-15 15h250l16 24l-76 69v139l94 114l-11 24l-107 -129v-149l76 -68h-259zM779 -39l-16 15h258l15 24l-97 72l-177 359l59 75q19 25 38 46t41 39t48.5 32.5t61.5 26.5l13 -11q-35 -13 -62 -28t-49 -32.5t-41.5 -38.5t-40.5 -46l-51 -65
l171 -347l105 -78l-25 -43h-251zM356 294l-107 -222l55 -69l-27 -42h-261l-15 15h267l16 24l-53 69l114 240z" />
    <glyph glyph-name="afii10025" unicode="&#x417;" horiz-adv-x="560" 
d="M231 43q-36 8 -64 27t-29 56q0 15 6 25.5t15.5 15.5t20 4t18.5 -8l-1 -12q-14 7 -27 4t-15 -26q-3 -30 23 -49t61 -25zM382 183q0 35 -12.5 63.5t-35 49t-52.5 30.5t-64 7q-13 0 -26 -2l-26 -4q4 14 8 27.5t9 27.5q8 -1 16.5 -1h16.5q29 -2 56.5 7.5t48.5 28t34 45.5
t13 62q0 51 -31 82t-85 29q-32 -2 -54.5 -13.5t-37.5 -30.5t-24 -45t-15 -57l-3 -2q-19 48 -41 88.5t-48 82.5l4 2q11 -7 24 -11.5t25 -4.5q22 0 38.5 6t35.5 13.5t43 14t60 7.5q36 0 73 -8t67 -27t48.5 -50.5t18.5 -79.5q0 -63 -29 -103t-89 -54v-5q8 -2 15 -3.5t14 -4.5
q49 19 83 57t34 103q0 19 -4.5 38.5t-12 36.5t-16 29.5t-16.5 18.5l4 2q10 -4 20.5 -17t19 -30.5t14 -38t5.5 -39.5q0 -68 -32.5 -107.5t-78.5 -59.5q43 -17 71 -54t28 -109q0 -63 -29.5 -103.5t-77.5 -62.5q-30 -14 -67.5 -21t-75.5 -7q-32 0 -63.5 5t-58.5 16
q-42 17 -71 49t-29 79q0 45 26 71.5t71 26.5q27 0 48.5 -14.5t31.5 -38.5l-17 8.5t-19 4.5q-27 0 -42.5 -18.5t-13.5 -47.5q1 -18 10 -33.5t24 -26.5q19 -15 45 -22t53.5 -7t53.5 8t44 23v-1q24 23 33.5 50t9.5 65zM330 585q-34 16 -75 7.5t-66 -40.5q-11 -14 -20.5 -35.5
t-17 -45t-13.5 -47.5t-10 -44q-11 24 -26.5 57.5t-33 69t-35 67.5t-30.5 53l9 14q13 -21 28 -47t30 -53t29 -54t25 -50q10 37 22 70.5t32 58.5q26 32 66 41.5t75 -1.5zM262 -63q-49 -2 -86 9t-63.5 29t-44 39t-27.5 41l5 4q28 -45 80.5 -75.5t133.5 -29.5q41 1 87 13.5
t85 39.5t64.5 69.5t25.5 103.5q0 32 -10.5 62t-22.5 46l5 1q6 -5 13.5 -16t14 -26t11 -32t4.5 -35q0 -67 -26.5 -113t-67 -74.5t-89 -41.5t-92.5 -14zM360 225q-8 18 -28.5 33t-46 23.5t-54 9.5t-52.5 -8l-5 14q26 9 56.5 8.5t58 -10t48 -26.5t26.5 -41z" />
    <glyph glyph-name="X" unicode="X" horiz-adv-x="740" 
d="M447 -39l-15 15h269l14 24l-94 74l-197 292l149 217l104 68l8 -12l-102 -67l-141 -205l190 -283l103 -81l-23 -42h-265zM414 0l59 68l-118 174l-116 -169l63 -72l-33 -40h-218l-15 15h225l21 25l-63 69l128 185l-15 21l-143 -207l64 -69h-233l109 71l173 250l-190 280
l-88 70h263l-58 -60l135 -199l15 21l-118 175l43 47l11 -10l-36 -38l109 -161l106 155l-59 70h229l-109 -70l-161 -234l203 -299l89 -68h-272z" />
    <glyph glyph-name="afii10026" unicode="&#x418;" horiz-adv-x="716" 
d="M93 601l-77 70h259l-75 -70v-425l24 33v381l68 64l10 -11l-63 -59v-354l230 323v48l-76 70h258l-75 -70v-533l75 -68h-258l76 68v299l-219 -303q-2 -50 20 -94t58 -88q-34 -8 -66 -17.5t-64.5 -23.5t-66.5 -32.5t-72 -44.5l-17 7q36 25 68.5 43.5t64 32t63 24t66.5 19.5
q-18 21 -30.5 39.5t-21 39t-13.5 44.5t-7 54l237 327v47l-265 -370q5 -48 19.5 -91.5t40.5 -78.5q-68 -18 -125 -44.5t-119 -71.5q27 36 42 80t22 92t8 99.5t1 102.5v442zM615 584v-508l81 -73l-27 -42h-242l-15 15h248l16 24l-76 69v521l68 64l10 -11z" />
    <glyph glyph-name="afii10027" unicode="&#x419;" 
d="M87 601l-77 70h259l-75 -70v-425l24 33v381l68 64l10 -11l-63 -59v-354l230 323v48l-76 70h258l-75 -70v-533l75 -68h-258l76 68v299l-219 -303q-2 -50 20 -94t58 -88q-34 -8 -66 -17.5t-64.5 -23.5t-66.5 -32.5t-72 -44.5l-17 7q36 25 68.5 43.5t64 32t63 24t66.5 19.5
q-18 21 -30.5 39.5t-21 39t-13.5 44.5t-7 54l237 327v47l-265 -370q5 -48 19.5 -91.5t40.5 -78.5q-68 -18 -125 -44.5t-119 -71.5q27 36 42 80t22 92t8 99.5t1 102.5v442zM477 831q-33 -54 -73 -79.5t-82 -25.5t-82 25.5t-69 79.5l78 5q34 -59 70 -59h7q5 0 8 1
q-18 9 -34 26t-25 32l25 -3q6 -12 21 -27.5t32 -21.5q10 6 20.5 15.5t19.5 35.5zM609 584v-508l81 -73l-27 -42h-242l-15 15h248l16 24l-76 69v521l68 64l10 -11zM503 808q-38 -61 -83 -88t-99 -27q-42 0 -72.5 20t-43.5 46l2 5q23 -25 51 -40t62 -15q49 0 93 26.5t80 84.5z
" />
    <glyph glyph-name="afii10079" unicode="&#x43d;" horiz-adv-x="719" 
d="M636 583v-507l81 -73l-27 -42h-242l-15 15h248l16 24l-76 69v520l68 64l10 -11zM597 601v-533l76 -68h-259l76 68v209h-230v-201l81 -73l-27 -42h-242l-15 15h248l16 24l-76 69v220h245v28h-269v-249l76 -68h-259l76 68v205q-26 -2 -41 -8.5t-32 -20.5l-10 9
q14 15 33.5 24.5t49.5 10.5v25q-26 -1 -52 -11t-43 -28q0 45 26.5 73t68.5 32v222l-76 70h259l-76 -70v-223h24v212l68 64l10 -11l-63 -59v-207h230v223l-76 70h259l-76 -70v1z" />
    <glyph glyph-name="afii10074" unicode="&#x438;" horiz-adv-x="699" 
d="M616 583v-507l81 -73l-27 -42h-242l-15 15h248l16 24l-76 69v520l68 64l10 -11zM201 68l76 -68h-259l76 68v533l-76 70h259l-76 -70v-533zM225 240v350l68 64l10 -11l-63 -59v-345zM470 277v323l-76 70h259l-76 -70v1v-533l76 -68h-259l76 68v209zM521 520l-340 -424
l-16 81l313 394zM212 88l271 340l7 -17l-256 -323l87 -85l-27 -42h-242l-15 15h248l18 25z" />
    <glyph glyph-name="afii10075" unicode="&#x439;" horiz-adv-x="699" 
d="M616 583v-507l81 -73l-27 -42h-242l-15 15h248l16 24l-76 69v520l68 64l10 -11zM201 68l76 -68h-259l76 68v533l-76 70h259l-76 -70v-533zM225 240v350l68 64l10 -11l-63 -59v-345zM470 277v323l-76 70h259l-76 -70v1v-533l76 -68h-259l76 68v209zM521 520l-340 -424
l-16 81l313 394zM212 88l271 340l7 -17l-255 -323l86 -85l-27 -42h-242l-15 15h248l18 25zM522 808q-38 -61 -83 -88t-99 -27q-42 0 -72.5 20t-43.5 46l2 5q23 -25 51 -40t62 -15q49 0 93 26.5t80 84.5zM496 831q-33 -54 -73 -79.5t-82 -25.5t-82 25.5t-69 79.5l78 5
q34 -59 70 -59h7.5t7.5 1q-18 9 -34 26t-25 32l25 -3q6 -12 21 -27.5t32 -21.5q10 6 20.5 15.5t19.5 35.5z" />
    <glyph glyph-name="afii10029" unicode="&#x41b;" horiz-adv-x="650" 
d="M543 69v521l68 64l10 -11l-63 -59v-508l81 -73l-27 -42h-242l-15 15h248l16 24zM81 -6q-32 -7 -53 10t-28.5 44t1 55.5t36.5 43.5q-7 -27 -0.5 -47t36.5 -22q22 3 38.5 28t28.5 60t20 75t13 72q11 69 16 144t6 144l-77 70h476l-75 -70v-533l75 -68h-258l76 68v553
l-155 -1q0 -30 -2 -86t-7.5 -123t-17 -137.5t-30.5 -130.5q-20 -60 -49 -100t-70 -49zM134 -24q-36 -17 -72.5 -11.5t-54.5 40.5v3q26 -26 55.5 -32.5t62.5 10.5q38 25 62 64t41 91q18 53 27.5 113t14.5 120.5t7 117.5t4 104h110v-15h-95q-2 -45 -4 -99.5t-7 -113t-15 -117
t-26 -110.5q-18 -57 -43.5 -99t-66.5 -66z" />
    <glyph glyph-name="afii10037" unicode="&#x423;" horiz-adv-x="683" 
d="M368 112q-29 -66 -60.5 -101.5t-73.5 -38.5q-29 -2 -47 14.5t-22 40t8 48.5t42 40q-2 -29 5.5 -44.5t20 -17t28.5 11.5t32 42q6 10 13 26l-233 468l-75 70h252l-55 -64l169 -337q6 13 12 30l-151 307l43 51l12 -12l-36 -42l142 -282q21 50 49 116.5t66 157.5q17 43 9 81
q-5 25 -17 39.5t-32 27.5q20 5 47.5 13.5t58.5 19.5t64.5 24.5t64.5 28.5q-22 -20 -39.5 -44.5t-32.5 -51t-26.5 -52t-21.5 -47.5zM570 546q17 42 36 82.5t39.5 75.5t40 62.5t37.5 44.5l11 -13q-44 -46 -83 -117.5t-70 -150.5l-148 -379q-15 -40 -31.5 -75t-35 -62
t-41 -45.5t-50.5 -24.5l-3 10q27 10 47.5 28.5t37.5 44.5t31.5 57.5t28.5 66.5z" />
    <glyph glyph-name="afii10085" unicode="&#x443;" horiz-adv-x="698" 
d="M376 144q-20 -60 -50 -100.5t-72 -46.5q-32 -5 -53.5 12.5t-29 43t2.5 52.5t41 42q-3 -14 -3.5 -27t3.5 -24t13 -18t24 -8q14 2 26 15.5t29 46.5l-234 469l-75 70h252l-55 -64l171 -340q6 13 12 30l-152 308l43 51l12 -12l-36 -41l142 -284q22 54 50 122t64 155l-59 75
h229l-109 -70zM304 -18q33 27 58 70.5t47 98.5l171 432l104 68l8 -12l-101 -69l-166 -419q-24 -63 -50.5 -109.5t-62.5 -72.5q-38 -20 -72.5 -14t-52.5 41v3q50 -50 117 -17z" />
    <glyph glyph-name="afii10038" unicode="&#x424;" horiz-adv-x="910" 
d="M282 137q-48 0 -98 6t-91 32q18 -23 41 -36.5t49.5 -21t56 -9.5t62.5 -2q18 0 34 1.5t33 2.5v-15q-12 -1 -32 -2.5t-35 -1.5q-39 0 -75.5 3.5t-68.5 15.5t-58.5 35.5t-45.5 63.5q-20 23 -31 58t-11 84q0 64 25.5 105.5t65.5 65.5t88.5 33t94.5 9h93v37l-75 70h257
l-74 -70v-37h24v26l67 64l10 -11l-62 -59v-20h53q36 0 73.5 -4t72 -15t63 -31t45.5 -52q14 -27 19 -62t2 -70t-13.5 -66t-27.5 -50q-20 -23 -47 -38t-57.5 -23.5t-63 -12t-62.5 -3.5q-50 0 -96 6v-75l76 -68h-260l76 68v75q-47 -6 -97 -6zM526 179v12q40 -3 76 2.5
t64.5 24.5t46.5 53.5t21 87.5q0 72 -44 113t-113 41h-90v-317q6 -2 12 -2.5t12 -1.5v-12zM158 322q-2 35 5.5 65t24 51.5t42 34t60.5 12.5h89v28h-91q-35 0 -63.5 -12t-48.5 -33t-31.5 -51t-11.5 -66q0 -44 14.5 -74.5t37.5 -49.5t51.5 -27.5t56.5 -8.5q12 0 29 0.5t57 4.5
v273h-87q-35 0 -58 -11t-37 -30.5t-20.5 -46.5t-6.5 -59h-12zM815 529q36 -17 54 -55t23 -82.5t-1 -88.5t-18 -72q-18 -42 -51 -68t-73 -40t-83.5 -19t-82.5 -5q-15 0 -30 0.5t-27 1.5v-25l81 -73l-27 -42h-242l-15 15h248l16 24l-76 69v47q17 -1 35.5 -1.5t36.5 -0.5
q40 0 82 5t79.5 18.5t68 38t47.5 64.5q12 27 16.5 67.5t-0.5 82t-21 78t-44 55.5zM511 489h91q27 0 51.5 -10t41.5 -37l-5 -2q-21 21 -41.5 27.5t-46.5 6.5h-76v-283q-4 0 -7.5 0.5t-7.5 0.5v297z" />
    <glyph glyph-name="afii10040" unicode="&#x426;" horiz-adv-x="695" 
d="M712 85q-22 -38 -38 -69t-28 -58t-21.5 -51t-18.5 -48l-14 12q9 22 17 43.5t18 45.5t24 50.5t34 58.5h-97v532q0 64 18 120t41 96l12 -7q-25 -48 -40.5 -96.5t-15.5 -112.5v-516h109zM227 89h209v-15h-224v516l68 64l10 -11l-63 -59v-495zM4 0l77 68v533l-76 70h259
l-76 -70v-548h269v547q0 70 -45 105q58 25 109.5 58t99.5 68l3 -4q-29 -48 -44.5 -108.5t-15.5 -117.5v-550h85q-20 -37 -39 -80.5t-32 -85.5q-6 41 -22.5 64t-41 34.5t-55.5 14t-65 2.5h-390z" />
    <glyph glyph-name="afii10041" unicode="&#x427;" 
d="M453 601l-76 70h258l-75 -70v-533l75 -68h-258l76 68v196q-39 -17 -87 -25.5t-94.5 -4t-87 23t-66.5 55.5l6 4q27 -31 68 -47.5t86.5 -20t91 4.5t83.5 26v31q-36 -21 -82 -31t-92.5 -6.5t-88.5 21.5t-70 51q-19 22 -30 51.5t-13 67.5v136l-77 70h259l-75 -70v-95
q0 -37 7 -68.5t23.5 -55.5t43.5 -38.5t67 -16.5q19 -1 38.5 2t37 10.5t31 19t21.5 26.5v216zM411 -39l-15 15h248l16 24l-76 69v521l68 64l10 -11l-63 -59v-508l81 -73l-27 -42h-242zM223 510q0 -60 19.5 -102.5t73.5 -55.5l-4 -9q-33 6 -53 22.5t-31.5 39t-15.5 50t-4 55.5
v80l68 64l10 -11l-63 -59v-74z" />
    <glyph glyph-name="afii10043" unicode="&#x429;" horiz-adv-x="1081" 
d="M1098 85q-22 -38 -38 -69t-28 -58t-21.5 -51t-18.5 -48l-14 12q9 22 17 43.5t18 45.5t24 50.5t34 58.5h-97v532q0 64 18 120t41 96l12 -7q-25 -48 -40.5 -96.5t-15.5 -112.5v-516h109zM613 89h209v-15h-224v516l68 64l10 -11l-63 -59v-495zM14 0l77 68v533l-76 70h259
l-76 -70v-548h269v548l-76 70h259l-76 -70v-548h269v547q0 70 -45 105q58 25 109.5 58t99.5 68l3 -4q-29 -48 -44.5 -108.5t-15.5 -117.5v-550h85q-20 -37 -39 -80.5t-32 -85.5q-6 41 -22.5 64t-41 34.5t-55.5 14t-65 2.5h-766zM237 89h209v-15h-224v516l68 64l10 -11
l-63 -59v-495z" />
    <glyph glyph-name="afii10042" unicode="&#x428;" horiz-adv-x="1065" 
d="M1051 0l-77 82v519q0 64 18 120t41 96l12 -7q-25 -48 -40.5 -96.5t-15.5 -112.5v-509l85 -92h-23zM613 89h209v-15h-224v516l68 64l10 -11l-63 -59v-495zM1023 0h-1009l77 68v533l-76 70h259l-76 -70v-548h269v548l-76 70h259l-76 -70v-548h269v547q0 70 -45 105
q58 25 109.5 58t99.5 68l3 -4q-29 -48 -44.5 -108.5t-15.5 -117.5v-527zM237 89h209v-15h-224v516l68 64l10 -11l-63 -59v-495z" />
    <glyph glyph-name="afii10046" unicode="&#x42c;" horiz-adv-x="642" 
d="M197 601l-1 -225h24v220l67 58l10 -11l-63 -59l1 -208h25q55 0 113.5 -6.5t106 -27.5t78 -60t30.5 -103q0 -59 -20 -94t-53 -54t-75.5 -25t-87.5 -6h-339l76 68l-1 533l-76 70h259zM347 -24q45 0 92 5t85 24.5t62 58t24 105.5q0 48 -16 86t-39 55l3 3q28 -16 47.5 -53.5
t19.5 -90.5q0 -72 -26.5 -113.5t-67 -62.5t-90 -26.5t-94.5 -5.5h-290l-20 15h310zM220 51v252h39q51 0 97.5 -10.5t80.5 -47.5l-4 -5q-20 18 -41.5 27.5t-43.5 14t-42 5.5t-35 1h-36v-237h39q49 0 84.5 6.5t58.5 22.5t34 42.5t11 66.5q0 50 -21 78t-53 41.5t-72 16.5t-77 3
h-43v-277h24z" />
    <glyph glyph-name="afii10045" unicode="&#x42b;" horiz-adv-x="933" 
d="M197 601l-1 -225h24v220l67 58l10 -11l-63 -59l1 -208h25q55 0 113.5 -6.5t106 -27.5t78 -60t30.5 -103q0 -59 -20 -94t-53 -54t-75.5 -25t-87.5 -6h-339l76 68l-1 533l-76 70h259zM347 -24q45 0 92 5t85 24.5t62 58t24 105.5q0 48 -16 86t-39 55l3 3q28 -16 47.5 -53.5
t19.5 -90.5q0 -72 -26.5 -113.5t-67 -62.5t-90 -26.5t-94.5 -5.5h-290l-20 15h310zM220 51v252h39q51 0 97.5 -10.5t80.5 -47.5l-4 -5q-20 18 -41.5 27.5t-43.5 14t-42 5.5t-35 1h-36v-237h39q49 0 84.5 6.5t58.5 22.5t34 42.5t11 66.5q0 50 -21 78t-53 41.5t-72 16.5t-77 3
h-43v-277h24zM667 -39l-15 15h248l16 24l-76 69v521l68 64l10 -11l-63 -59v-508l81 -73l-27 -42h-242zM633 0l76 68v533l-76 70h259l-76 -70v-533l76 -68h-259z" />
    <glyph glyph-name="afii10044" unicode="&#x42a;" horiz-adv-x="777" 
d="M482 -24q45 0 92 5t85 24.5t62 58t24 105.5q0 48 -16 86t-39 55l3 3q28 -16 47.5 -53.5t19.5 -90.5q0 -72 -26.5 -113.5t-67 -62.5t-90 -26.5t-94.5 -5.5h-290l-20 15h310zM355 51v252h39q51 0 97.5 -10.5t80.5 -47.5l-4 -5q-20 18 -41.5 27.5t-43.5 14t-42 5.5t-35 1
h-36v-237h39q49 0 84.5 6.5t58.5 22.5t34 42.5t11 66.5q0 50 -21 78t-53 41.5t-72 16.5t-77 3h-43v-277h24zM224 582h3q-30 -1 -50.5 -5.5t-34.5 -16.5t-23 -33t-15 -55l-12 7q5 36 15.5 58t26.5 35t38 18t51 6q4 0 3 0t-3 0.5t-2.5 0.5t3.5 0l-1 24q-34 0 -60 -2.5
t-44.5 -14t-30 -34.5t-17.5 -64q-6 18 -14.5 39.5t-18 43.5t-19.5 43.5t-19 39.5l406 -1l-75 -70v-225h24v220l67 58l10 -11l-62 -59v-208h25q55 0 113.5 -6.5t106 -27.5t78 -60t30.5 -103q0 -59 -20 -94t-53 -54t-75.5 -25t-87.5 -6h-339l76 68v514z" />
    <glyph glyph-name="afii10047" unicode="&#x42d;" horiz-adv-x="595" 
d="M241 37q51 0 85.5 26.5t56 68.5t31 95.5t9.5 107.5h-140l-66 -86h-3v224h3l66 -86h138q-3 40 -13.5 83.5t-31.5 80t-55 60t-84 23.5q-65 -4 -101 -43.5t-36 -94.5l-6 -2l-83 164l4 2q11 -7 24 -11.5t25 -4.5q22 0 39 6t36 13.5t43 14t60 7.5q75 0 131.5 -27t94 -74.5
t56.5 -111.5t19 -138q0 -72 -19 -135.5t-57 -111t-95 -75t-133 -27.5q-41 0 -80.5 8.5t-71 27t-51 46.5t-19.5 67q0 45 26 71.5t71 26.5q27 0 45 -9t28 -33q-15 11 -32 11q-23 0 -38 -20t-15 -50q0 -24 12 -41.5t31.5 -29t44.5 -17.5t51 -6zM255 -63h-11q-47 0 -81.5 11
t-60 28.5t-42 38t-26.5 39.5l5 4q28 -46 80.5 -75t133.5 -29q79 0 138.5 29.5t99 79.5t59 117.5t19.5 144.5q0 51 -10 99t-27.5 89t-40 73.5t-47.5 52.5l6 3q33 -21 58 -54t42 -74t25.5 -89.5t8.5 -99.5q0 -78 -20 -148.5t-61 -123.5t-103 -84.5t-145 -31.5zM100 438
q3 37 18 68t37.5 53t51 34.5t59.5 12.5q35 0 68 -15l-2 -17q-15 8 -32 12t-32 4q-30 0 -58.5 -12.5t-50.5 -36.5t-35 -59.5t-12 -82.5l-9 -7q-11 24 -25.5 56t-31 64.5t-32.5 63t-29 51.5l9 14q12 -20 26 -45t28 -52.5t27.5 -54.5t24.5 -51zM319 319l-58 -77h-18l55 74z
M239 55l-8 -12q-18 4 -35 10.5t-30 16.5t-21.5 24t-8.5 32q0 15 6.5 25.5t16 15.5t20.5 4t19 -8l-1 -12q-14 7 -28 4t-16 -26q-2 -15 5 -27.5t19 -21.5t28 -15.5t34 -9.5z" />
    <glyph glyph-name="afii10049" unicode="&#x42f;" horiz-adv-x="644" 
d="M145 507q0 -45 21.5 -74.5t57.5 -48t82.5 -29t96.5 -16.5v265q-21 14 -53 21.5t-64 7.5q-63 0 -102 -31t-39 -95zM255 271q-12 -33 -25.5 -71t-26.5 -77.5t-23.5 -79.5t-16.5 -77q-21 12 -38.5 21t-34 15.5t-34.5 12.5t-40 12q35 38 62.5 72.5t50.5 69.5t42.5 72.5
t38.5 81.5q-35 10 -66.5 25.5t-55.5 37t-38.5 49.5t-14.5 64q0 57 23 93t59.5 57t82.5 28.5t92 7.5q36 0 75 -5.5t76.5 -16.5t71.5 -27t60 -38l-65 -32v-498l76 -68h-259l76 68v222q-27 2 -62.5 6t-70.5 12zM361 -39l-15 15h248l16 24l-76 69v477l53 35l10 -11l-48 -32v-462
l81 -73l-27 -42h-242zM382 267v-17l-86 13q-16 -39 -33.5 -87.5t-32 -97t-24.5 -94t-11 -79.5q-46 25 -93.5 47.5t-108.5 36.5l9 13q51 -13 94 -31t86 -41q2 31 12 74.5t25 91.5t32.5 96t34.5 88zM390 562q-18 11 -42 19t-49 10t-48 -4t-39 -22q-26 -29 -22.5 -70t35.5 -82
l-8 -15q-23 25 -34 51.5t-11 51t8.5 45.5t24.5 36q18 16 42.5 21.5t51 4t52 -9t44.5 -17.5z" />
    <glyph glyph-name="afii10066" unicode="&#x431;" horiz-adv-x="652" 
d="M348 596q14 0 30.5 -2t32 -8t28.5 -15.5t20 -24.5l-6 -2q-21 22 -52 29.5t-53 7.5h-103v-205h25q55 0 113.5 -6.5t106 -27.5t78 -60t30.5 -103q0 -59 -20 -94t-53 -54t-75.5 -25t-87.5 -6h-339l76 68v220q-20 -2 -38.5 -4t-37.5 -6l-8 14q18 4 39.5 6.5t44.5 4.5v25
q-19 -2 -41 -4t-45 -7l23 69q14 -2 34 -4t29 -2l-1 221l-76 70h565q-29 -39 -51 -78t-44 -84q-11 24 -23 44.5t-28 35.5t-38.5 23t-54.5 8h-142v-244h24v220h118zM357 -24q45 0 92 5t85 24.5t62 58t24 105.5q0 48 -16 86t-39 55l3 3q28 -16 47.5 -53.5t19.5 -90.5
q0 -72 -26.5 -113.5t-67 -62.5t-90 -26.5t-94.5 -5.5h-290l-20 15h310zM230 51v252h39q51 0 97.5 -10.5t80.5 -47.5l-4 -5q-20 18 -41.5 27.5t-43.5 14t-42 5.5t-35 1h-36v-237h39q49 0 84.5 6.5t58.5 22.5t34 42.5t11 66.5q0 50 -21 78t-53 41.5t-72 16.5t-77 3h-43v-277
h24zM615 642q-33 -45 -52.5 -81t-36.5 -75l-13 10q6 15 15.5 35t21.5 41.5t26.5 42.5t29.5 39z" />
    <glyph glyph-name="afii10072" unicode="&#x436;" horiz-adv-x="1053" 
d="M779 -39l-16 15h258l15 24l-97 72l-177 359l59 75q19 25 38 46t41 39t48.5 32.5t61.5 26.5l13 -11q-35 -13 -62 -28t-49 -32.5t-41.5 -38.5t-40.5 -46l-51 -65l171 -347l105 -78l-25 -43h-251zM446 68v149l-107 129l-136 -278l52 -68h-263l94 68l180 366l-58 73
q-41 53 -89 95.5t-119 68.5h278q-10 -5 -22 -10.5t-22 -13t-16.5 -18t-6.5 -24.5q0 -16 6.5 -32t16.5 -27l212 -256v311l-76 70h259l-76 -70v-311l24 30v270l68 64l10 -11l-63 -59v-246l173 208q10 11 16.5 27t6.5 32q0 15 -6.5 25t-16.5 17.5t-22 13t-22 10.5h278
q-71 -26 -119 -68.5t-89 -95.5l-58 -73l180 -366l94 -68h-263l52 68l-118 239l-86 -105v-126l81 -73l-27 -42h-244l-15 15h250l16 24l-76 69v139l94 114l-11 24l-107 -129v-149l76 -68h-259zM356 294l-107 -222l55 -69l-27 -42h-261l-15 15h267l16 24l-53 69l114 240z
M289 514q-14 15 -28.5 34t-19 38t6 37t47.5 32l12 -10q-33 -13 -42.5 -28t-5.5 -30.5t16.5 -31t23.5 -29.5l154 -186l-1 -23z" />
    <glyph glyph-name="afii10073" unicode="&#x437;" horiz-adv-x="560" 
d="M360 225q-14 25 -47.5 45.5t-78.5 20.5q-10 0 -26 -3t-29 -5l-5 14l30 5t30 3q49 0 83.5 -22t45.5 -55zM262 -63q-49 -2 -86 9t-63.5 29t-44 39t-27.5 41l5 4q28 -45 80.5 -75.5t133.5 -29.5q41 1 87 13.5t85 39.5t64.5 69.5t25.5 103.5q0 32 -10.5 62t-22.5 46l5 1
q6 -5 13.5 -16t14 -26t11 -32t4.5 -35q0 -67 -26.5 -113t-67 -74.5t-89 -41.5t-92.5 -14zM347 53q-21 -12 -55.5 -14.5t-68 6.5t-58 30t-25.5 55q0 15 6 25t15 14t19 2.5t18 -8.5l-1 -12q-14 7 -26 5t-14 -25q-3 -26 18 -43t51 -24.5t61.5 -6t51.5 11.5zM383 517
q-5 33 -28.5 52.5t-53.5 24.5t-61 -5.5t-51 -36.5q-22 -29 -35 -66.5t-21 -75.5l-15 6q12 43 24.5 82.5t35.5 67.5q21 26 52.5 37t62.5 8t56.5 -18.5t36.5 -43.5zM3 627q13 -21 29 -49.5t32.5 -59t31 -60.5t25.5 -54l13 10q-9 22 -24 51.5t-32 60.5t-34 61t-32 54zM218 333
q-13 0 -26 -2l-26 -4q4 14 8 27.5t9 27.5q8 -1 16.5 -1h16.5q29 -2 56.5 7.5t48.5 28t34 45.5t13 62q0 57 -31 84t-85 27q-32 -2 -54.5 -13.5t-37.5 -30.5t-24 -45t-15 -57l-3 -2q-19 48 -41 88.5t-48 82.5l4 2q11 -7 24 -11.5t25 -4.5q22 0 38.5 6t35.5 13.5t43 14t60 7.5
q36 0 73 -8t67 -27t48.5 -50.5t18.5 -79.5q0 -63 -29 -103t-89 -54v-5q8 -2 15 -3.5t14 -4.5q49 19 83 57t34 103q0 19 -4.5 38.5t-12 36.5t-16 29.5t-16.5 18.5l4 2q10 -4 20.5 -17t19 -30.5t14 -38t5.5 -39.5q0 -68 -32.5 -107.5t-78.5 -59.5q43 -17 71 -54t28 -109
q0 -63 -29.5 -103.5t-77.5 -62.5q-30 -14 -67.5 -21t-75.5 -7q-32 0 -63.5 5t-58.5 16q-42 17 -71 49t-29 79q0 45 26 71.5t71 26.5q27 0 48.5 -14.5t31.5 -38.5l-17 8.5t-19 4.5q-27 0 -42.5 -18.5t-13.5 -47.5q1 -18 10 -33.5t24 -26.5q20 -15 45.5 -22t53.5 -7
q37 1 70 14.5t50 42.5q20 35 20 88q0 35 -12.5 63.5t-35 49t-52.5 30.5t-64 7z" />
    <glyph glyph-name="afii10077" unicode="&#x43b;" horiz-adv-x="650" 
d="M543 69v521l68 64l10 -11l-63 -59v-508l81 -73l-27 -42h-242l-15 15h248l16 24zM81 -6q-32 -7 -53 10t-28.5 44t1 55.5t36.5 43.5q-7 -27 0.5 -48t37.5 -23q20 5 35.5 28t28.5 60q14 40 24.5 92t17 110t10.5 118.5t4 116.5l-77 70h476l-75 -70v-533l75 -68h-258l76 68
v553l-155 -1q0 -30 -2 -86t-8 -122.5t-18 -137t-31 -130.5q-20 -60 -48 -100.5t-69 -49.5zM134 -24q-36 -17 -72.5 -11.5t-54.5 40.5v3q26 -26 55.5 -32.5t62.5 10.5q38 25 62 64t41 91q18 53 27.5 113t14.5 120.5t7 117.5t4 104h110v-15h-95q-2 -45 -4 -99.5t-7 -113
t-15 -117t-26 -110.5q-18 -57 -43.5 -99t-66.5 -66z" />
    <glyph glyph-name="afii10086" unicode="&#x444;" horiz-adv-x="910" 
d="M526 179v295h76q26 0 46.5 -6.5t41.5 -27.5l5 2q-17 27 -41.5 37t-51.5 10h-91v-309zM815 529q36 -17 54 -55t23 -82.5t-1 -88.5t-18 -72q-18 -42 -51 -68t-73 -40t-83.5 -19t-82.5 -5q-15 0 -30 0.5t-27 1.5v-25l81 -73l-27 -42h-242l-15 15h248l16 24l-76 69v47
q17 -1 35.5 -1.5t36.5 -0.5q40 0 82 5t79.5 18.5t68 38t47.5 64.5q12 27 16.5 67.5t-0.5 82t-21 78t-44 55.5zM487 196q46 -8 89 -6t77 20t56 53.5t25 95.5q0 72 -44 113t-113 41h-90v-317zM379 513h-91q-35 0 -63.5 -12t-48.5 -33t-31.5 -51t-11.5 -66q0 -44 14.5 -74.5
t37.5 -49.5t51.5 -27.5t56.5 -8.5q12 0 29 0.5t57 4.5v317zM282 137q-45 0 -92.5 5.5t-87 27t-65 64.5t-25.5 117q0 64 25.5 105.5t65.5 65.5t88.5 33t94.5 9h93v37l-75 70h257l-74 -70v-37h24v26l67 64l10 -11l-62 -59v-20h53q36 0 73.5 -4t72 -15t63 -31t45.5 -52
q14 -27 19 -62t2 -70t-13.5 -66t-27.5 -50q-20 -23 -47 -38t-57.5 -23.5t-63 -12t-62.5 -3.5q-50 0 -96 6v-75l76 -68h-259h-1l76 68v75q-47 -6 -97 -6zM158 322q-2 35 5.5 65t24 51.5t42 34t60.5 12.5h98l12 -16h-108q-35 0 -58 -11t-37 -30.5t-20.5 -46.5t-6.5 -59h-12z
M64 225q17 -40 41.5 -63.5t55 -36t66 -16t75.5 -3.5q18 0 34 1.5t33 2.5v-15q-12 -1 -32 -2.5t-35 -1.5q-39 0 -76.5 4t-70 16.5t-59.5 37.5t-45 67z" />
    <glyph glyph-name="afii10088" unicode="&#x446;" horiz-adv-x="695" 
d="M588 589l68 64l10 -11l-63 -59v-498h109q-22 -38 -38 -69t-28 -58t-21.5 -51t-18.5 -48l-14 12q9 22 17 43.5t18 45.5t24 50.5t34 58.5h-97v514v6zM227 89h209v-15h-224v516l68 64l10 -11l-63 -59v-495zM564 601v-550h85q-20 -37 -39 -80.5t-32 -85.5q-6 41 -22.5 64
t-41 34.5t-55.5 14t-65 2.5h-390l77 68v533l-76 70h259l-76 -70v-548h269v547l-76 70h259l-76 -70v1z" />
    <glyph glyph-name="afii10089" unicode="&#x447;" 
d="M411 -39l-15 15h248l16 24l-76 69v521l68 64l10 -11l-63 -59v-508l81 -73l-27 -42h-242zM453 601l-76 70h258l-75 -70v-533l75 -68h-258l76 68v533zM470 272q-39 -20 -88.5 -30.5t-99 -7.5t-93.5 21.5t-71 57.5l6 4q29 -32 72.5 -48.5t91.5 -19t95 7.5t84 31zM223 510
q0 -60 19.5 -102.5t73.5 -55.5l-4 -9q-33 6 -53 22.5t-31.5 39t-15.5 50t-4 55.5v80l68 64l10 -11l-63 -59v-74zM480 330q-34 -28 -83 -43t-100 -14t-98.5 18.5t-78.5 54.5q-19 22 -30 51.5t-13 67.5v136l-77 70h259l-75 -70v-95q0 -37 7 -68.5t23.5 -55.5t43.5 -38.5
t67 -16.5q23 -1 45.5 4t41 17t32.5 31t19 45z" />
    <glyph glyph-name="afii10090" unicode="&#x448;" horiz-adv-x="1065" 
d="M613 89h209v-15h-224v516l68 64l10 -11l-63 -59v-495zM950 601v-527l73 -74h-1009l77 68v533l-76 70h259l-76 -70v-548h269v548l-76 70h259l-76 -70v-548h269v547l-76 70h259l-76 -70v1zM237 89h209v-15h-224v516l68 64l10 -11l-63 -59v-495zM974 589l68 64l10 -11
l-63 -59v-491l85 -92h-23l-77 82v501v6z" />
    <glyph glyph-name="afii10091" unicode="&#x449;" horiz-adv-x="1081" 
d="M974 589l68 64l10 -11l-63 -59v-498h109q-22 -38 -38 -69t-28 -58t-21.5 -51t-18.5 -48l-14 12q9 22 17 43.5t18 45.5t24 50.5t34 58.5h-97v514v6zM613 89h209v-15h-224v516l68 64l10 -11l-63 -59v-495zM237 89h209v-15h-224v516l68 64l10 -11l-63 -59v-495zM950 601
v-550h85q-20 -37 -39 -80.5t-32 -85.5q-6 41 -22.5 64t-41 34.5t-55.5 14t-65 2.5h-766l77 68v533l-76 70h259l-76 -70v-548h269v548l-76 70h259l-76 -70v-548h269v547l-76 70h259l-76 -70v1z" />
    <glyph glyph-name="afii10092" unicode="&#x44a;" horiz-adv-x="777" 
d="M482 -24q45 0 92 5t85 24.5t62 58t24 105.5q0 48 -16 86t-39 55l3 3q28 -16 47.5 -53.5t19.5 -90.5q0 -72 -26.5 -113.5t-67 -62.5t-90 -26.5t-94.5 -5.5h-290l-20 15h310zM355 51v252h39q51 0 97.5 -10.5t80.5 -47.5l-4 -5q-20 18 -41.5 27.5t-43.5 14t-42 5.5t-35 1
h-36v-237h39q49 0 84.5 6.5t58.5 22.5t34 42.5t11 66.5q0 50 -21 78t-53 41.5t-72 16.5t-77 3h-43v-277h24zM224 582h3q-30 -1 -50.5 -5.5t-34.5 -16.5t-23 -33t-15 -55l-12 7q5 36 15.5 58t26.5 35t38 18t51 6q4 0 3 0t-3 0.5t-2.5 0.5t3.5 0l-1 24q-34 0 -60 -2.5
t-44.5 -14t-30 -34.5t-17.5 -64q-6 18 -14.5 39.5t-18 43.5t-19.5 43.5t-19 39.5l406 -1l-75 -70v-225h24v220l67 58l10 -11l-62 -59v-208h25q55 0 113.5 -6.5t106 -27.5t78 -60t30.5 -103q0 -59 -20 -94t-53 -54t-75.5 -25t-87.5 -6h-339l76 68v514z" />
    <glyph glyph-name="afii10093" unicode="&#x44b;" horiz-adv-x="933" 
d="M197 601l-1 -225h24v220l67 58l10 -11l-63 -59l1 -208h25q55 0 113.5 -6.5t106 -27.5t78 -60t30.5 -103q0 -59 -20 -94t-53 -54t-75.5 -25t-87.5 -6h-339l76 68l-1 533l-76 70h259zM347 -24q45 0 92 5t85 24.5t62 58t24 105.5q0 48 -16 86t-39 55l3 3q28 -16 47.5 -53.5
t19.5 -90.5q0 -72 -26.5 -113.5t-67 -62.5t-90 -26.5t-94.5 -5.5h-290l-20 15h310zM220 51v252h39q51 0 97.5 -10.5t80.5 -47.5l-4 -5q-20 18 -41.5 27.5t-43.5 14t-42 5.5t-35 1h-36v-237h39q49 0 84.5 6.5t58.5 22.5t34 42.5t11 66.5q0 50 -21 78t-53 41.5t-72 16.5t-77 3
h-43v-277h24zM667 -39l-15 15h248l16 24l-76 69v521l68 64l10 -11l-63 -59v-508l81 -73l-27 -42h-242zM633 0l76 68v533l-76 70h259l-76 -70v-533l76 -68h-259z" />
    <glyph glyph-name="afii10094" unicode="&#x44c;" horiz-adv-x="642" 
d="M197 601l-1 -225h24v220l67 58l10 -11l-63 -59l1 -208h25q55 0 113.5 -6.5t106 -27.5t78 -60t30.5 -103q0 -59 -20 -94t-53 -54t-75.5 -25t-87.5 -6h-339l76 68l-1 533l-76 70h259zM347 -24q45 0 92 5t85 24.5t62 58t24 105.5q0 48 -16 86t-39 55l3 3q28 -16 47.5 -53.5
t19.5 -90.5q0 -72 -26.5 -113.5t-67 -62.5t-90 -26.5t-94.5 -5.5h-290l-20 15h310zM220 51v252h39q51 0 97.5 -10.5t80.5 -47.5l-4 -5q-20 18 -41.5 27.5t-43.5 14t-42 5.5t-35 1h-36v-237h39q49 0 84.5 6.5t58.5 22.5t34 42.5t11 66.5q0 50 -21 78t-53 41.5t-72 16.5t-77 3
h-43v-277h24z" />
    <glyph glyph-name="afii10096" unicode="&#x44e;" horiz-adv-x="981" 
d="M115 65l-1 536l-76 70h259l-76 -70v-533l75 -68h-258l76 68zM188 307v62h248v-62h-248zM245 69v213h166l15 -14h-166v-192l81 -73l-27 -42h-242l-15 15h248l16 24zM116 312q-26 -1 -53 -11t-44 -28q0 45 27.5 68.5t69.5 27.5v-57zM116 288q-32 -2 -50.5 -11t-34.5 -24
l10 -10q11 11 27 19.5t48 10.5v15zM952 329q0 -78 -19.5 -148.5t-60 -123.5t-102 -84.5t-144.5 -31.5q-36 0 -67 7.5t-56 20.5t-43.5 29t-29.5 34l5 4q33 -35 80 -57.5t111 -22.5q79 0 137.5 29.5t97 80.5t57.5 119t19 144q0 51 -10 96.5t-27 84t-40 68.5t-48 50l6 3
q65 -42 99.5 -120.5t34.5 -181.5zM913 329q0 -74 -18.5 -137.5t-54.5 -110.5t-90 -74t-125 -27q-75 0 -129 28t-89.5 75.5t-52.5 111t-17 134.5q0 76 18.5 140t54.5 110.5t90 73t125 26.5q78 0 132.5 -29t89 -78t50.5 -112t16 -131zM792 329q0 39 -7.5 91t-26 98t-51 78
t-82.5 32q-34 0 -59.5 -14.5t-44 -38.5t-31 -55t-19.5 -64.5t-10 -66.5t-3 -60q0 -55 9 -108.5t29.5 -95.5t52 -68t76.5 -26q44 0 75.5 26t52 68t30 95.5t9.5 108.5zM722 547q-22 23 -45.5 32.5t-49.5 9.5q-39 0 -64.5 -29t-40 -69.5t-20 -85.5t-5.5 -76q0 -48 8 -93
t22.5 -82t34.5 -62.5t44 -35.5l-2 -7q-31 10 -53.5 36.5t-37.5 64.5t-22.5 84.5t-7.5 94.5q0 21 2.5 49t8.5 58.5t16.5 60.5t26.5 53.5t38 38t52 14.5q27 0 54.5 -12.5t46.5 -40.5zM260 357l-15 -3v236l68 64l10 -11l-63 -59v-227z" />
    <glyph glyph-name="afii10097" unicode="&#x44f;" horiz-adv-x="644" 
d="M145 507q0 -45 21.5 -74.5t57.5 -48t82.5 -29t96.5 -16.5v265q-21 14 -53 21.5t-64 7.5q-63 0 -102 -31t-39 -95zM255 271q-12 -33 -25.5 -71t-26.5 -77.5t-23.5 -79.5t-16.5 -77q-21 12 -38.5 21t-34 15.5t-34.5 12.5t-40 12q35 38 62.5 72.5t50.5 69.5t42.5 72.5
t38.5 81.5q-35 10 -66.5 25.5t-55.5 37t-38.5 49.5t-14.5 64q0 57 23 93t59.5 57t82.5 28.5t92 7.5q36 0 75 -5.5t76.5 -16.5t71.5 -27t60 -38l-65 -32v-498l76 -68h-259l76 68v222q-27 2 -62.5 6t-70.5 12zM361 -39l-15 15h248l16 24l-76 69v477l53 35l10 -11l-48 -32v-462
l81 -73l-27 -42h-242zM382 267v-17l-86 13q-16 -39 -33.5 -87.5t-32 -97t-24.5 -94t-11 -79.5q-46 25 -93.5 47.5t-108.5 36.5l9 13q51 -13 94 -31t86 -41q2 31 12 74.5t25 91.5t32.5 96t34.5 88zM390 562q-18 11 -42 19t-49 10t-48 -4t-39 -22q-26 -29 -22.5 -70t35.5 -82
l-8 -15q-23 25 -34 51.5t-11 51t8.5 45.5t24.5 36q18 16 42.5 21.5t51 4t52 -9t44.5 -17.5z" />
    <glyph glyph-name="uni0406" unicode="&#x406;" horiz-adv-x="343" 
d="M54 -39l-15 15h248l16 24l-76 69v521l68 64l10 -11l-63 -59v-508l81 -73l-27 -42h-242zM20 0l76 68v533l-76 70h259l-76 -70v-533l76 -68h-259z" />
    <glyph glyph-name="afii10103" unicode="&#x456;" horiz-adv-x="343" 
d="M54 -39l-15 15h248l16 24l-76 69v521l68 64l10 -11l-63 -59v-508l81 -73l-27 -42h-242zM20 0l76 68v533l-76 70h259l-76 -70v-533l76 -68h-259z" />
    <glyph glyph-name="afii10056" unicode="&#x407;" horiz-adv-x="343" 
d="M54 -39l-15 15h248l16 24l-76 69v521l68 64l10 -11l-63 -59v-508l81 -73l-27 -42h-242zM20 0l76 68v533l-76 70h259l-76 -70v-533l76 -68h-259zM291 776q0 -28 -16.5 -46.5t-47.5 -18.5q-14 0 -27.5 7.5t-18.5 20.5l1 1q6 -7 16.5 -13t27.5 -6q28 0 42 17t14 40
q0 10 -5.5 21.5t-11.5 16.5l1 1q9 -5 17 -16t8 -25zM118 785q0 -22 -14 -36.5t-35 -14.5q-22 0 -36 14.5t-14 36.5t14 36t36 14q21 0 35 -14t14 -36zM142 776q0 -28 -16.5 -46.5t-47.5 -18.5q-14 0 -28 7.5t-18 20.5l1 1q5 -7 16 -13t27 -6q28 0 42.5 17t14.5 40
q0 10 -6 21.5t-11 16.5l1 1q8 -5 16.5 -16t8.5 -25zM268 785q0 -22 -14 -36.5t-35 -14.5q-22 0 -36 14.5t-14 36.5t14 36t36 14q21 0 35 -14t14 -36z" />
    <glyph glyph-name="afii10104" unicode="&#x457;" horiz-adv-x="343" 
d="M54 -39l-15 15h248l16 24l-76 69v521l68 64l10 -11l-63 -59v-508l81 -73l-27 -42h-242zM20 0l76 68v533l-76 70h259l-76 -70v-533l76 -68h-259zM291 776q0 -28 -16.5 -46.5t-47.5 -18.5q-14 0 -27.5 7.5t-18.5 20.5l1 1q6 -7 16.5 -13t27.5 -6q28 0 42 17t14 40
q0 10 -5.5 21.5t-11.5 16.5l1 1q9 -5 17 -16t8 -25zM118 785q0 -22 -14 -36.5t-35 -14.5q-22 0 -36 14.5t-14 36.5t14 36t36 14q21 0 35 -14t14 -36zM142 776q0 -28 -16.5 -46.5t-47.5 -18.5q-14 0 -28 7.5t-18 20.5l1 1q5 -7 16 -13t27 -6q28 0 42.5 17t14.5 40
q0 10 -6 21.5t-11 16.5l1 1q8 -5 16.5 -16t8.5 -25zM268 785q0 -22 -14 -36.5t-35 -14.5q-22 0 -36 14.5t-14 36.5t14 36t36 14q21 0 35 -14t14 -36z" />
    <glyph glyph-name="afii10050" unicode="&#x490;" horiz-adv-x="612" 
d="M349 672q32 0 54.5 8t38.5 22t28 34.5t23 44.5q22 -45 44 -84t51 -78h-373v-459q0 -72 13 -140t51 -119q-68 -18 -125 -44.5t-119 -71.5q27 36 42 80t22 92t8 99.5t1 102.5v442l-76 70zM635 581h-381v-421q0 -57 5.5 -96.5t16.5 -70t29 -56.5t42 -55q-34 -8 -66.5 -17.5
t-66 -23.5t-68 -32.5t-72.5 -44.5l-17 7q36 25 68.5 43.5t64 32t63 24t66.5 19.5q-23 26 -38 52.5t-24.5 58t-13.5 70t-4 88.5v437h387q-17 21 -34 47.5t-31.5 53t-25.5 50.5t-17 41l13 10q6 -17 17.5 -41.5t26.5 -52.5t33.5 -57t39.5 -54z" />
    <glyph glyph-name="afii10098" unicode="&#x491;" horiz-adv-x="590" 
d="M232 76l81 -73l-27 -42h-242l-15 15h248l16 24l-76 69v527h387q-17 21 -34 47.5t-31.5 53t-25.5 50.5t-17 41l13 10q6 -17 17.5 -41.5t26.5 -52.5t33.5 -57t39.5 -54l-13 -12h-381v-505zM193 68l76 -68h-259l76 68v533l-76 70l317 1q32 0 54.5 8t38.5 22t28 34.5t23 44.5
q22 -45 44 -84t51 -78h-373v-550v-1z" />
    <glyph glyph-name="afii10053" unicode="&#x404;" horiz-adv-x="606" 
d="M566 655q-13 -22 -27 -48t-26.5 -53t-23.5 -52.5t-19 -46.5l-4 2q-1 30 -8.5 61t-23.5 57t-42.5 42.5t-65.5 16.5q-50 0 -84 -23.5t-55 -60t-31.5 -80t-13.5 -83.5h24q3 37 12.5 76.5t28 72.5t48.5 54t74 21q30 0 57 -12t42 -38l-7 -2q-19 22 -44.5 29.5t-47.5 7.5
q-39 0 -66 -19t-44 -49t-26 -67.5t-12 -73.5h114l66 86h3v-224h-3l-66 86h-155q0 -54 9.5 -107.5t31 -95.5t56 -68.5t85.5 -26.5q41 0 73.5 13.5t55 37t34.5 56t12 71.5q0 7 4.5 16t18.5 9q12 0 16.5 -9.5t4.5 -20.5q0 -51 -15 -92t-44 -70.5t-71.5 -45.5t-97.5 -16
q-76 0 -131 27.5t-91 75t-53.5 110.5t-17.5 135q0 74 17.5 138t54 111.5t91.5 74.5t130 27q36 0 61.5 -7.5t46.5 -16t41 -16t45 -7.5q13 0 28.5 5t26.5 13zM573 179q0 -53 -18.5 -96t-53 -73t-82.5 -46.5t-106 -16.5t-101 16t-64 46l3 5q29 -26 67 -39t95 -13q60 0 107 18
t79.5 50.5t49.5 78t17 101.5l5 -1q1 -8 1.5 -15t0.5 -15zM295 311l11 -15h-126q6 -85 35.5 -147t73.5 -88l-3 -7q-28 11 -50 35.5t-37.5 58.5t-24.5 75.5t-11 87.5h132zM591 618q-18 -28 -41.5 -78.5t-49.5 -116.5l-12 10q22 57 44 106t49 94zM388 234v224l15 -14v-224z" />
    <glyph glyph-name="afii10101" unicode="&#x454;" horiz-adv-x="606" 
d="M566 655q-13 -22 -27 -48t-26.5 -53t-23.5 -52.5t-19 -46.5l-4 2q-1 30 -8.5 61t-23.5 57t-42.5 42.5t-65.5 16.5q-50 0 -84 -23.5t-55 -60t-31.5 -80t-13.5 -83.5h24q3 37 12.5 76.5t28 72.5t48.5 54t74 21q30 0 57 -12t42 -38l-7 -2q-19 22 -44.5 29.5t-47.5 7.5
q-39 0 -66 -19t-44 -49t-26 -67.5t-12 -73.5h114l66 86h3v-224h-3l-66 86h-155q0 -54 9.5 -107.5t31 -95.5t56 -68.5t85.5 -26.5q41 0 73.5 13.5t55 37t34.5 56t12 71.5q0 7 4.5 16t18.5 9q12 0 16.5 -9.5t4.5 -20.5q0 -51 -15 -92t-44 -70.5t-71.5 -45.5t-97.5 -16
q-76 0 -131 27.5t-91 75t-53.5 110.5t-17.5 135q0 74 17.5 138t54 111.5t91.5 74.5t130 27q36 0 61.5 -7.5t46.5 -16t41 -16t45 -7.5q13 0 28.5 5t26.5 13zM573 179q0 -53 -18.5 -96t-53 -73t-82.5 -46.5t-106 -16.5t-101 16t-64 46l3 5q29 -26 67 -39t95 -13q60 0 107 18
t79.5 50.5t49.5 78t17 101.5l5 -1q1 -8 1.5 -15t0.5 -15zM295 311l11 -15h-126q6 -85 35.5 -147t73.5 -88l-3 -7q-28 11 -50 35.5t-37.5 58.5t-24.5 75.5t-11 87.5h132zM591 618q-18 -28 -41.5 -78.5t-49.5 -116.5l-12 10q22 57 44 106t49 94zM388 234v224l15 -14v-224z" />
    <glyph glyph-name="afii10062" unicode="&#x40e;" horiz-adv-x="683" 
d="M368 112q-29 -66 -60.5 -101.5t-73.5 -38.5q-29 -2 -47 14.5t-22 40t8 48.5t42 40q-2 -29 5.5 -44.5t20 -17t28.5 11.5t32 42q6 10 13 26l-233 468l-75 70h252l-55 -64l169 -337q6 13 12 30l-151 307l43 51l12 -12l-36 -42l142 -282q21 50 49 116.5t66 157.5q17 43 9 81
q-5 25 -17 39.5t-32 27.5q20 5 47.5 13.5t58.5 19.5t64.5 24.5t64.5 28.5q-22 -20 -39.5 -44.5t-32.5 -51t-26.5 -52t-21.5 -47.5zM570 546q17 42 36 82.5t39.5 75.5t40 62.5t37.5 44.5l11 -13q-44 -46 -83 -117.5t-70 -150.5l-148 -379q-15 -40 -31.5 -75t-35 -62
t-41 -45.5t-50.5 -24.5l-3 10q27 10 47.5 28.5t37.5 44.5t31.5 57.5t28.5 66.5zM503 808q-38 -61 -83 -88t-99 -27q-42 0 -72.5 20t-43.5 46l2 5q23 -25 51 -40t62 -15q49 0 93 26.5t80 84.5zM477 831q-33 -54 -73 -79.5t-82 -25.5t-82 25.5t-69 79.5l78 5q34 -59 70 -59
h7.5t7.5 1q-18 9 -34 26t-25 32l25 -3q6 -12 21 -27.5t32 -21.5q10 6 20.5 15.5t19.5 35.5z" />
    <glyph glyph-name="afii10110" unicode="&#x45e;" horiz-adv-x="689" 
d="M376 144q-20 -60 -50 -100.5t-72 -46.5q-32 -5 -53.5 12.5t-29 43t2.5 52.5t41 42q-3 -14 -3.5 -27t3.5 -24t13 -18t24 -8q14 2 26 15.5t29 46.5l-234 469l-75 70h252l-55 -64l171 -340q6 13 12 30l-152 308l43 51l12 -12l-33 -42l139 -283q22 54 50 122t64 155l-59 75
h229l-109 -70zM304 -18q33 27 58 70.5t47 98.5l171 432l104 68l8 -12l-101 -69l-166 -419q-24 -63 -50.5 -109.5t-62.5 -72.5q-38 -20 -72.5 -14t-52.5 41v3q50 -50 117 -17zM533 808q-38 -61 -83 -88t-99 -27q-42 0 -72.5 20t-43.5 46l2 5q23 -25 51 -40t62 -15
q49 0 93 26.5t80 84.5zM507 831q-33 -54 -73 -79.5t-82 -25.5t-82 25.5t-69 79.5l78 5q34 -59 70 -59h7.5t7.5 1q-18 9 -34 26t-25 32l25 -3q6 -12 21 -27.5t32 -21.5q10 6 20.5 15.5t19.5 35.5z" />
    <glyph glyph-name="afii10146" unicode="&#x462;" horiz-adv-x="1020" 
d="M444 581h-209v-505l81 -73l-27 -42h-242l-15 15h248l16 24l-76 69v527h224v-15zM572 376h24v214l68 64l10 -11l-63 -59v-208h25q55 0 113.5 -6.5t106 -27.5t78 -60t30.5 -103q0 -59 -20 -94t-53 -54t-75.5 -25t-87.5 -6h-339l76 68v553l-269 -1v-552l76 -68h-260l77 68
v533l-77 70h635l-75 -70v-225zM723 -24q45 0 92 5t85 24.5t62 58t24 105.5q0 48 -16 86t-39 55l3 3q28 -16 47.5 -53.5t19.5 -90.5q0 -72 -26.5 -113.5t-67 -62.5t-90 -26.5t-94.5 -5.5h-290l-20 15h310zM596 51v252h39q51 0 97.5 -10.5t80.5 -47.5l-4 -5q-20 18 -41.5 27.5
t-43.5 14t-42 5.5t-35 1h-36v-237h39q49 0 84.5 6.5t58.5 22.5t34 42.5t11 66.5q0 50 -21 78t-53 41.5t-72 16.5t-77 3h-43v-277h24z" />
    <glyph glyph-name="afii10194" unicode="&#x463;" horiz-adv-x="788" 
d="M366 488q48 0 88 -10t55 -42l-7 -2q-14 22 -46.5 30t-74.5 10v-98h25q55 0 113.5 -6.5t106 -27.5t78 -60t30.5 -103q0 -59 -20 -94t-53 -54t-75.5 -25t-87.5 -6h-339l76 68l-1 404q-28 -1 -47.5 -6t-33 -17t-22 -32.5t-14.5 -53.5l-12 7q5 35 15 57.5t26 35t37.5 18
t50.5 6.5v24q-29 -1 -54 -5.5t-44.5 -16.5t-33 -34t-18.5 -58q-6 18 -14.5 39.5t-18 43.5t-19.5 43.5t-19 39.5h221v38l-76 70h259l-74 -70v-38h23v33l67 58l10 -11l-63 -59v-21h217q-20 -37 -39 -80.5t-32 -85.5q-6 41 -22.5 64t-41 34.5t-55.5 14t-65 2.5v-136h24v112z
M366 51v252h39q51 0 97.5 -10.5t80.5 -47.5l-4 -5q-20 18 -41.5 27.5t-43.5 14t-42 5.5t-35 1h-36v-237h39q49 0 84.5 6.5t58.5 22.5t34 42.5t11 66.5q0 50 -21 78t-53 41.5t-72 16.5t-77 3h-43v-277h24zM493 -24q45 0 92 5t85 24.5t62 58t24 105.5q0 48 -16 86t-39 55l3 3
q28 -16 47.5 -53.5t19.5 -90.5q0 -72 -26.5 -113.5t-67 -62.5t-90 -26.5t-94.5 -5.5h-290l-20 15h310zM627 538q-23 -44 -39 -81.5t-34 -85.5l-14 12q18 44 33.5 84t43.5 86z" />
    <glyph glyph-name="afii10147" unicode="&#x472;" horiz-adv-x="655" 
d="M635 335q0 -78 -19.5 -148.5t-60 -123.5t-102 -84.5t-144.5 -31.5q-36 0 -67 7.5t-56 20.5t-43.5 29t-29.5 34l5 4q33 -35 80 -57.5t111 -22.5q79 0 137.5 29.5t97 80.5t57.5 119t19 144q0 51 -10 96.5t-27 84t-40 68.5t-48 50l6 3q65 -42 99.5 -120.5t34.5 -181.5z
M596 335q0 -74 -18.5 -137.5t-54.5 -110.5t-90 -74t-125 -27q-75 0 -129 28t-89.5 75.5t-52.5 111t-17 134.5q0 76 18.5 140t54.5 110.5t90 73t125 26.5q78 0 132.5 -29t89 -78t50.5 -112t16 -131zM475 335q0 39 -7.5 91t-26 98t-51 78t-82.5 32q-34 0 -59.5 -14.5
t-44 -38.5t-31 -55t-19.5 -64.5t-10 -66.5t-3 -60q0 -55 9 -108.5t29.5 -95.5t52 -68t76.5 -26q44 0 75.5 26t52 68t30 95.5t9.5 108.5zM405 553q-22 23 -45.5 32.5t-49.5 9.5q-39 0 -64.5 -29t-40 -69.5t-20 -85.5t-5.5 -76q0 -48 8 -93t22.5 -82t34.5 -62.5t44 -35.5
l-2 -7q-31 10 -53.5 36.5t-37.5 64.5t-22.5 84.5t-7.5 94.5q0 21 2.5 49t8.5 58.5t16.5 60.5t26.5 53.5t38 38t52 14.5q27 0 54.5 -12.5t46.5 -40.5zM263 344q-16 0 -26.5 -8.5t-19.5 -21.5l-33 35q14 26 31.5 39.5t46.5 13.5q19 0 33.5 -5.5t27 -12t24.5 -12t26 -5.5
q16 0 26 8.5t19 21.5l33 -35q-14 -26 -31 -39.5t-46 -13.5q-16 0 -29.5 5.5t-26.5 12t-26.5 12t-28.5 5.5zM222 287q8 20 20 27.5t25 7.5t26.5 -5.5t27 -12.5t28 -12.5t30.5 -5.5q30 0 49.5 15.5t33.5 44.5l11 -11q-14 -27 -36.5 -45t-57.5 -18q-16 0 -30.5 5.5t-28 11.5
t-26.5 11.5t-26 5.5q-15 0 -24 -11.5t-14 -25.5h-11l-47 53l5 13z" />
    <glyph glyph-name="afii10195" unicode="&#x473;" horiz-adv-x="655" 
d="M635 335q0 -78 -19.5 -148.5t-60 -123.5t-102 -84.5t-144.5 -31.5q-36 0 -67 7.5t-56 20.5t-43.5 29t-29.5 34l5 4q33 -35 80 -57.5t111 -22.5q79 0 137.5 29.5t97 80.5t57.5 119t19 144q0 51 -10 96.5t-27 84t-40 68.5t-48 50l6 3q65 -42 99.5 -120.5t34.5 -181.5z
M596 335q0 -74 -18.5 -137.5t-54.5 -110.5t-90 -74t-125 -27q-75 0 -129 28t-89.5 75.5t-52.5 111t-17 134.5q0 76 18.5 140t54.5 110.5t90 73t125 26.5q78 0 132.5 -29t89 -78t50.5 -112t16 -131zM475 335q0 39 -7.5 91t-26 98t-51 78t-82.5 32q-34 0 -59.5 -14.5
t-44 -38.5t-31 -55t-19.5 -64.5t-10 -66.5t-3 -60q0 -55 9 -108.5t29.5 -95.5t52 -68t76.5 -26q44 0 75.5 26t52 68t30 95.5t9.5 108.5zM405 553q-22 23 -45.5 32.5t-49.5 9.5q-39 0 -64.5 -29t-40 -69.5t-20 -85.5t-5.5 -76q0 -48 8 -93t22.5 -82t34.5 -62.5t44 -35.5
l-2 -7q-31 10 -53.5 36.5t-37.5 64.5t-22.5 84.5t-7.5 94.5q0 21 2.5 49t8.5 58.5t16.5 60.5t26.5 53.5t38 38t52 14.5q27 0 54.5 -12.5t46.5 -40.5zM263 344q-16 0 -26.5 -8.5t-19.5 -21.5l-33 35q14 26 31.5 39.5t46.5 13.5q19 0 33.5 -5.5t27 -12t24.5 -12t26 -5.5
q16 0 26 8.5t19 21.5l33 -35q-14 -26 -31 -39.5t-46 -13.5q-16 0 -29.5 5.5t-26.5 12t-26.5 12t-28.5 5.5zM222 287q8 20 20 27.5t25 7.5t26.5 -5.5t27 -12.5t28 -12.5t30.5 -5.5q30 0 49.5 15.5t33.5 44.5l11 -11q-14 -27 -36.5 -45t-57.5 -18q-16 0 -30.5 5.5t-28 11.5
t-26.5 11.5t-26 5.5q-15 0 -24 -11.5t-14 -25.5h-11l-47 53l5 13z" />
    <glyph glyph-name="afii10023" unicode="&#x401;" horiz-adv-x="652" 
d="M616 642q-33 -45 -53.5 -82.5t-36.5 -75.5l-13 10q6 16 16 36t22.5 41.5t26.5 43t29 39.5zM446 234v224l15 -14v-224zM32 0l76 69v227q-26 0 -46 -13t-29 -26l-12 9q15 18 36 31t51 14v24q-26 0 -53.5 -13.5t-44.5 -32.5q0 45 27.5 71t70.5 27v214l-76 70h556
q-29 -39 -51 -78.5t-44 -83.5q-11 24 -22.5 44.5t-27.5 35.5t-38.5 23t-55.5 8h-134v-233h24v209h110q14 0 31 -2t33.5 -8t30 -15.5t20.5 -24.5l-4 -3q-10 12 -24.5 19.5t-30.5 11.5t-31 5.5t-25 1.5h-95v-194h99l66 86h3v-224h-3l-66 86h-138v-284h24v260h114l11 -15h-110
v-245h49q42 0 71 3.5t51.5 16.5t42.5 37.5t43 66.5q10 -29 20 -51.5t21 -42.5t25 -39.5t32 -41.5h-577zM627 -39h-561l-13 15h565l20 23q-19 23 -33 42.5t-25.5 38t-20 37t-15.5 41.5l20 -8q5 -16 12.5 -31.5t18 -33.5t26 -39t37.5 -48zM455 765q0 -28 -16.5 -46.5
t-47.5 -18.5q-14 0 -27.5 7.5t-18.5 20.5l1 1q6 -7 16.5 -13t27.5 -6q28 0 42 17t14 40q0 10 -5.5 21.5t-11.5 16.5l1 1q9 -5 17 -16t8 -25zM282 774q0 -22 -14 -36.5t-35 -14.5q-22 0 -36 14.5t-14 36.5t14 36t36 14q21 0 35 -14t14 -36zM306 765q0 -28 -16.5 -46.5
t-47.5 -18.5q-14 0 -28 7.5t-18 20.5l1 1q5 -7 16 -13t27 -6q28 0 42.5 17t14.5 40q0 10 -6 21.5t-11 16.5l1 1q8 -5 16.5 -16t8.5 -25zM432 774q0 -22 -14 -36.5t-35 -14.5q-22 0 -36 14.5t-14 36.5t14 36t36 14q21 0 35 -14t14 -36z" />
    <glyph glyph-name="afii10071" unicode="&#x451;" horiz-adv-x="652" 
d="M616 642q-33 -45 -53.5 -82.5t-36.5 -75.5l-13 10q6 16 16 36t22.5 41.5t26.5 43t29 39.5zM446 234v224l15 -14v-224zM32 0l76 69v227q-26 0 -46 -13t-29 -26l-12 9q15 18 36 31t51 14v24q-26 0 -53.5 -13.5t-44.5 -32.5q0 45 27.5 71t70.5 27v214l-76 70h556
q-29 -39 -51 -78.5t-44 -83.5q-11 24 -22.5 44.5t-27.5 35.5t-38.5 23t-55.5 8h-134v-233h24v209h110q14 0 31 -2t33.5 -8t30 -15.5t20.5 -24.5l-4 -3q-10 12 -24.5 19.5t-30.5 11.5t-31 5.5t-25 1.5h-95v-194h99l66 86h3v-224h-3l-66 86h-138v-284h24v260h114l11 -15h-110
v-245h49q42 0 71 3.5t51.5 16.5t42.5 37.5t43 66.5q10 -29 20 -51.5t21 -42.5t25 -39.5t32 -41.5h-577zM627 -39h-561l-13 15h565l20 23q-19 23 -33 42.5t-25.5 38t-20 37t-15.5 41.5l20 -8q5 -16 12.5 -31.5t18 -33.5t26 -39t37.5 -48zM455 765q0 -28 -16.5 -46.5
t-47.5 -18.5q-14 0 -27.5 7.5t-18.5 20.5l1 1q6 -7 16.5 -13t27.5 -6q28 0 42 17t14 40q0 10 -5.5 21.5t-11.5 16.5l1 1q9 -5 17 -16t8 -25zM282 774q0 -22 -14 -36.5t-35 -14.5q-22 0 -36 14.5t-14 36.5t14 36t36 14q21 0 35 -14t14 -36zM306 765q0 -28 -16.5 -46.5
t-47.5 -18.5q-14 0 -28 7.5t-18 20.5l1 1q5 -7 16 -13t27 -6q28 0 42.5 17t14.5 40q0 10 -6 21.5t-11 16.5l1 1q8 -5 16.5 -16t8.5 -25zM432 774q0 -22 -14 -36.5t-35 -14.5q-22 0 -36 14.5t-14 36.5t14 36t36 14q21 0 35 -14t14 -36z" />
    <glyph glyph-name="afii10095" unicode="&#x44d;" horiz-adv-x="595" 
d="M241 37q51 0 85.5 26.5t56 68.5t31 95.5t9.5 107.5h-140l-66 -86h-3v224h3l66 -86h138q-3 40 -13.5 83.5t-31.5 80t-55 60t-84 23.5q-65 -4 -101 -43.5t-36 -94.5l-6 -2l-83 164l4 2q11 -7 24 -11.5t25 -4.5q22 0 39 6t36 13.5t43 14t60 7.5q75 0 131.5 -27t94 -74.5
t56.5 -111.5t19 -138q0 -72 -19 -135.5t-57 -111t-95 -75t-133 -27.5q-41 0 -80.5 8.5t-71 27t-51 46.5t-19.5 67q0 45 26 71.5t71 26.5q27 0 45 -9t28 -33q-15 11 -32 11q-23 0 -38 -20t-15 -50q0 -24 12 -41.5t31.5 -29t44.5 -17.5t51 -6zM255 -63h-11q-47 0 -81.5 11
t-60 28.5t-42 38t-26.5 39.5l5 4q28 -46 80.5 -75t133.5 -29q79 0 138.5 29.5t99 79.5t59 117.5t19.5 144.5q0 51 -10 99t-27.5 89t-40 73.5t-47.5 52.5l6 3q33 -21 58 -54t42 -74t25.5 -89.5t8.5 -99.5q0 -78 -20 -148.5t-61 -123.5t-103 -84.5t-145 -31.5zM100 438
q3 37 18 68t37.5 53t51 34.5t59.5 12.5q35 0 68 -15l-2 -17q-15 8 -32 12t-32 4q-30 0 -58.5 -12.5t-50.5 -36.5t-35 -59.5t-12 -82.5l-9 -7q-11 24 -25.5 56t-31 64.5t-32.5 63t-29 51.5l9 14q12 -20 26 -45t28 -52.5t27.5 -54.5t24.5 -51zM305 295l-44 -53h-18l55 68h132
l11 -15h-136zM234 55l-3 -9q-19 4 -36 10t-30.5 15t-22 22.5t-8.5 31.5q0 15 7 25.5t17 16t21 4.5t19 -8l-1 -12q-14 7 -29 3.5t-17 -26.5q-3 -30 21 -46.5t62 -26.5z" />
    <glyph glyph-name=".null" horiz-adv-x="500" 
 />
    <glyph glyph-name=".null" horiz-adv-x="500" 
 />
    <glyph glyph-name="afii10069" unicode="&#x434;" horiz-adv-x="683" 
d="M247 0q-34 0 -64.5 -2.5t-55 -14t-41 -34.5t-22.5 -64q-6 18 -14.5 39.5t-18 43.5t-19.5 43.5t-19 39.5h78q22 36 42.5 87.5t36 120t25 153.5t8.5 189l-77 70h496l-75 -70v-550h85q-20 -37 -39 -80.5t-32 -85.5q-6 41 -22.5 64t-41 34.5t-55.5 14t-65 2.5h-110zM420 621
l-179 -1q1 -74 -2.5 -147t-14 -144.5t-30.5 -141.5t-53 -136h279v570zM648 70q-20 -32 -34 -59t-24 -51t-18 -45.5t-17 -43.5l14 -12q9 24 18.5 48t21.5 51t28 58t38 69h-109v499l63 59l-10 11l-68 -64v-520h97zM176 68q40 71 65.5 204t23.5 324h134v-15h-119
q2 -190 -22.5 -316.5t-64.5 -195.5zM381 -24q48 0 88 -10.5t55 -42.5l-7 -2q-14 22 -46.5 30t-74.5 10h-149q-38 0 -63.5 -3t-42.5 -14.5t-27 -33.5t-17 -59l-12 7q6 40 18.5 63.5t32 35.5t47 15.5t64.5 3.5h134z" />
    </font>
</defs>
</svg>
