<svg width="66" height="66" xmlns="http://www.w3.org/2000/svg">

 <g>
  <title>background</title>
  <rect fill="none" id="canvas_background" height="68" width="68" y="-1" x="-1"/>
 </g>
 <g>
  <title>Layer 1</title>
  <g id="like">
   <path id="svg_1" fill-rule="evenodd" fill="#7eacd1" d="m59.939503,21.687212c-2.558064,-0.671236 -8.572598,-0.663054 -17.370285,-0.896345c0.415421,-1.919571 0.511616,-3.650873 0.511616,-6.724645c0,-7.342673 -5.349438,-13.809463 -10.080833,-13.809463c-3.341856,0 -6.096378,2.732013 -6.139357,6.092288c-0.045023,4.12156 -1.319962,11.23912 -8.18581,14.849061c-0.503428,0.266035 -1.944132,0.976154 -2.154913,1.068251l0.108461,0.092085c-1.074389,-0.927038 -2.564209,-1.637161 -4.092907,-1.637161l-6.139358,0c-3.384831,0 -6.139358,2.754528 -6.139358,6.13936l0,32.743242c0,3.38483 2.754527,6.139355 6.139358,6.139355l6.139358,0c2.435278,0 4.473547,-1.471405 5.459934,-3.534218c0.024559,0.008183 0.067533,0.020458 0.096184,0.024548c0.135069,0.036842 0.294693,0.075722 0.489103,0.126884c0.036835,0.010223 0.055254,0.014324 0.094137,0.024563c1.178757,0.292633 3.448275,0.834942 8.298367,1.950256c1.039598,0.237396 6.532278,1.407967 12.221411,1.407967l11.187954,0c3.409389,0 5.86718,-1.311775 7.330391,-3.945564c0.020462,-0.040924 0.491158,-0.959782 0.875885,-2.201981c0.288551,-0.935219 0.394962,-2.259285 0.04707,-3.601757c2.19788,-1.510273 2.90596,-3.794125 3.366421,-5.279846c0.771503,-2.437325 0.540257,-4.268898 0.004086,-5.580677c1.236061,-1.166473 2.28997,-2.944847 2.734055,-5.660484c0.276276,-1.682186 -0.020454,-3.413483 -0.796059,-4.854183c1.158295,-1.301548 1.686264,-2.938711 1.747665,-4.453083l0.024559,-0.42771c0.014336,-0.268089 0.026604,-0.433851 0.026604,-1.023226c0,-2.584671 -1.790649,-5.881508 -5.803738,-7.027517zm-45.357574,37.916674c0,1.131687 -0.914766,2.046452 -2.046453,2.046452l-6.139358,0c-1.131688,0 -2.046453,-0.914764 -2.046453,-2.046452l0,-32.743242c0,-1.131691 0.914765,-2.046453 2.046453,-2.046453l6.139358,0c1.131687,0 2.046453,0.914762 2.046453,2.046453l0,32.743242zm47.021332,-29.60194c-0.04092,1.010946 -0.464539,2.998055 -4.04583,2.998055c-3.069679,0 -4.092907,0 -4.092907,0c-0.566864,0 -1.023224,0.458401 -1.023224,1.023228s0.45636,1.023228 1.023224,1.023228c0,0 0.896347,0 3.96603,0s3.472828,2.545784 3.274315,3.773659c-0.253754,1.526653 -0.970013,4.412148 -4.426468,4.412148c-3.45237,0 -4.860329,0 -4.860329,0c-0.566868,0 -1.023228,0.45636 -1.023228,1.023228c0,0.562775 0.45636,1.023224 1.023228,1.023224c0,0 2.431187,0 4.029465,0c3.454403,0 3.14949,2.633793 2.654247,4.205463c-0.652821,2.064865 -1.05188,3.98035 -5.404682,3.98035c-1.471397,0 -3.337765,0 -3.337765,0c-0.566868,0 -1.023224,0.45636 -1.023224,1.023224c0,0.562778 0.456356,1.023228 1.023224,1.023228c0,0 1.418194,0 3.208839,0c2.238815,0 2.343197,2.118073 2.109898,2.877308c-0.25581,0.830864 -0.558689,1.446846 -0.570965,1.475491c-0.618027,1.115326 -1.614647,1.78656 -3.724545,1.78656l-11.187954,0c-5.619564,0 -11.194096,-1.274944 -11.337341,-1.307686c-8.500969,-1.958454 -8.949142,-2.10989 -9.483265,-2.261326c0,0 -1.7313,-0.292648 -1.7313,-1.802925l-0.014322,-28.265606c0,-0.959785 0.611887,-1.827482 1.62488,-2.132402c0.126881,-0.049116 0.298782,-0.102322 0.421572,-0.153486c9.348194,-3.871885 12.194809,-12.360571 12.278715,-19.330789c0.01228,-0.980252 0.767418,-2.046453 2.046452,-2.046453c2.163097,0 5.987926,4.342571 5.987926,9.716558c0,4.852136 -0.196468,5.69118 -1.89502,10.747968c20.464523,0 20.32127,0.294691 22.126244,0.76742c2.238811,0.640539 2.431187,2.494625 2.431187,3.13312c0,0.701935 -0.020473,0.599611 -0.047077,1.287216z" clip-rule="evenodd"/>
   <path id="svg_2" fill-rule="evenodd" fill="#7eacd1" d="m9.465796,53.464527c-1.69446,0 -3.069678,1.375217 -3.069678,3.069679s1.375218,3.069679 3.069678,3.069679s3.069679,-1.375229 3.069679,-3.069679s-1.375219,-3.069679 -3.069679,-3.069679zm0,4.092903c-0.562773,0 -1.023226,-0.460445 -1.023226,-1.023224s0.460453,-1.023228 1.023226,-1.023228s1.023226,0.460449 1.023226,1.023228s-0.460453,1.023224 -1.023226,1.023224z" clip-rule="evenodd"/>
  </g>
 </g>
</svg>