<svg width="66" height="66" xmlns="http://www.w3.org/2000/svg">
 <title/>
 <desc/>

 <g>
  <title>background</title>
  <rect fill="none" id="canvas_background" height="68" width="68" y="-1" x="-1"/>
 </g>
 <g>
  <title>Layer 1</title>
  <g id="People" fill-rule="evenodd" fill="none">
   <g id="Icon-17" fill="#000000">
    <path fill="#7eacd1" id="truck" d="m43.937721,60.344326c0,0.603756 -0.490009,1.093765 -1.093769,1.093765l-2.18755,0c-0.603756,0 -1.093773,-0.490009 -1.093773,-1.093765c0,-0.603771 0.490017,-1.093781 1.093773,-1.093781l2.18755,0c0.60376,0 1.093769,0.490009 1.093769,1.093781m21.875465,0c0,0.603756 -0.490021,1.093765 -1.093773,1.093765l-17.500378,0c-0.603752,0 -1.093769,-0.490009 -1.093769,-1.093765c0,-0.603771 0.490017,-1.093781 1.093769,-1.093781l17.500378,0c0.603752,0 1.093773,0.490009 1.093773,1.093781m-30.625648,0c0,0.603756 -0.490005,1.093765 -1.093769,1.093765l-10.937727,0c-0.603764,0 -1.093773,-0.490009 -1.093773,-1.093765c0,-0.603771 0.490009,-1.093781 1.093773,-1.093781l10.937727,0c0.603764,0 1.093769,0.490009 1.093769,1.093781m-17.500362,0c0,0.603756 -0.490005,1.093765 -1.093771,1.093765l-15.312819,0c-0.603763,0 -1.093773,-0.490009 -1.093773,-1.093765c0,-0.603771 0.49001,-1.093781 1.093773,-1.093781l15.312819,0c0.603765,0 1.093771,0.490009 1.093771,1.093781m-15.312817,-21.875462c0,-0.603764 0.49001,-1.093773 1.093773,-1.093773l3.106314,0l-0.462666,-3.120529c-0.088596,-0.597206 0.323757,-1.153938 0.920957,-1.242535c0.601575,-0.084217 1.155025,0.323757 1.24362,0.920959l0.510792,3.442104l7.806256,0c0.603765,0 1.093771,0.490009 1.093771,1.093773c0,0.603764 -0.490005,1.093773 -1.093771,1.093773l-13.125273,0c-0.603763,0 -1.093773,-0.490009 -1.093773,-1.093773m1.093773,-9.843954l1.705192,0l-0.462666,-3.120535c-0.088596,-0.5972 0.323756,-1.153931 0.920957,-1.242525c0.601575,-0.08313 1.155023,0.323755 1.242525,0.920956l0.511886,3.442104l9.20738,0c0.603765,0 1.093771,0.490007 1.093771,1.093773c0,0.603762 -0.490005,1.093773 -1.093771,1.093773l-13.125273,0c-0.603763,0 -1.093773,-0.490011 -1.093773,-1.093773c0,-0.603765 0.49001,-1.093773 1.093773,-1.093773m13.125273,21.875452c-0.602665,0 -1.093773,-0.4911 -1.093773,-1.093765c0,-0.60268 0.491108,-1.093777 1.093773,-1.093777c0.602667,0 1.093771,0.491096 1.093771,1.093777c0,0.602665 -0.491104,1.093765 -1.093771,1.093765m0,-4.375092c-1.809098,0 -3.281318,1.472225 -3.281318,3.281326c0,1.80909 1.472219,3.281315 3.281318,3.281315c1.809101,0 3.281319,-1.472225 3.281319,-3.281315c0,-1.809101 -1.472218,-3.281326 -3.281319,-3.281326m37.188272,4.375092c-0.602669,0 -1.093769,-0.4911 -1.093769,-1.093765c0,-0.60268 0.4911,-1.093777 1.093769,-1.093777c0.602665,0 1.093773,0.491096 1.093773,1.093777c0,0.602665 -0.491108,1.093765 -1.093773,1.093765m0,-4.375092c-1.809101,0 -3.281315,1.472225 -3.281315,3.281326c0,1.80909 1.472214,3.281315 3.281315,3.281315c1.809105,0 3.281315,-1.472225 3.281315,-3.281315c0,-1.809101 -1.47221,-3.281326 -3.281315,-3.281326m0,8.750191c-3.015533,0 -5.468864,-2.453342 -5.468864,-5.468864c0,-3.015537 2.453331,-5.468876 5.468864,-5.468876c3.015533,0 5.468864,2.453339 5.468864,5.468876c0,3.015522 -2.453331,5.468864 -5.468864,5.468864m10.617256,-22.648762l-2.998039,-2.998026l-1.056583,-12.635267c0,-3.015528 -2.453331,-5.468863 -5.468861,-5.468863l-7.656414,0c-0.603752,0 -1.093769,0.490011 -1.093769,1.093773c0,0.603764 0.490017,1.093773 1.093769,1.093773l7.656414,0c1.778469,0 3.281322,1.502846 3.284599,3.372103l0.995331,11.940718l-3.603977,0l1.396748,-2.792404c0.270157,-0.540323 0.050312,-1.196585 -0.490009,-1.467842c-0.541424,-0.270161 -1.19659,-0.050314 -1.467846,0.490007l-1.884575,3.770239l-5.886684,0c-0.603752,0 -1.093769,0.490007 -1.093769,1.093773c0,0.603762 0.490017,1.093773 1.093769,1.093773l12.672447,0l2.960846,2.96084c0.623455,0.623455 0.771122,2.057392 0.773296,2.508022l0,12.031502l-2.275043,0c-0.532665,-3.704613 -3.718826,-6.562637 -7.568905,-6.562637c-4.221966,0 -7.65641,3.434448 -7.65641,7.656414c0,4.221954 3.434444,7.656406 7.65641,7.656406c3.850079,0 7.03624,-2.858025 7.568905,-6.562641l3.368832,0c0.603752,0 1.093773,-0.490013 1.093773,-1.093765l0,-13.125278c0,-0.270161 -0.039375,-2.68084 -1.414253,-4.054619m-47.805529,22.648762c-3.015532,0 -5.468863,-2.453342 -5.468863,-5.468864c0,-3.015537 2.453332,-5.468876 5.468863,-5.468876c3.015533,0 5.468864,2.453339 5.468864,5.468876c0,3.015522 -2.453331,5.468864 -5.468864,5.468864m26.250547,-50.313553l-35.00073,0c-3.015532,0 -5.468863,2.453331 -5.468863,5.468864c0,0.054688 0.004375,0.108282 0.012032,0.161879l1.45253,9.682077l-2.558335,0c-0.603763,0 -1.093773,0.490009 -1.093773,1.093773c0,0.603762 0.49001,1.093771 1.093773,1.093771l15.312819,0c0.603765,0 1.093771,-0.490009 1.093771,-1.093771c0,-0.603764 -0.490005,-1.093773 -1.093771,-1.093773l-10.542876,0l-1.487531,-9.919428c0.04047,-1.774099 1.496281,-3.205847 3.280224,-3.205847l33.906953,0l0,41.563366l-17.587864,0c-0.532665,-3.704613 -3.718826,-6.562637 -7.568907,-6.562637c-4.221963,0 -7.65641,3.434448 -7.65641,7.656414c0,4.221954 3.434447,7.656406 7.65641,7.656406c3.85008,0 7.036242,-2.858025 7.568907,-6.562641l18.681641,0c0.60376,0 1.093769,-0.490013 1.093769,-1.093765l0,-43.750916c0,-0.603763 -0.490009,-1.093773 -1.093769,-1.093773"/>
   </g>
  </g>
 </g>
</svg>