<svg width="66" height="66" xmlns="http://www.w3.org/2000/svg">

 <g>
  <title>background</title>
  <rect fill="none" id="canvas_background" height="68" width="68" y="-1" x="-1"/>
 </g>
 <g>
  <title>Layer 1</title>
  <g id="layer1">
   <path clip-rule="nonzero" fill="#7eacd1" fill-rule="evenodd" stroke-width="1px" stroke-miterlimit="4" stroke-dashoffset="0" id="path5617-44-0-3-5-8" d="m18.131886,8.49531c-1.350863,-0.010285 -2.682277,0.231551 -3.925591,0.710459c-1.581081,0.606853 -3.01219,1.59653 -4.178467,2.898035a1.024342,1.03099 29.998981475830078 0 0 -0.413433,1.188114a1.024342,1.03099 29.998981475830078 0 0 0.80278,0.71046c1.531193,0.573359 2.847246,1.56191 3.837284,2.825784c-2.518724,2.015102 -4.527861,4.412529 -5.876345,7.080513l-0.939252,0c-3.967095,0 -7.192905,3.225674 -7.192905,7.192909l0,4.110231c0,3.966988 3.22581,7.192902 7.192905,7.192902l2.420381,0c1.872612,2.663979 4.421556,4.956169 7.477891,6.747368l0,7.325363a1.027661,1.027661 0 0 0 1.027557,1.027557l8.220465,0a1.027661,1.027661 0 0 0 1.027555,-1.027557l0,-3.660675c4.796156,0.808426 9.76359,0.550407 14.385813,-0.750603l0,4.411278a1.027661,1.027661 0 0 0 1.027557,1.027557l8.220463,0a1.027661,1.027661 0 0 0 1.027561,-1.027557l0,-9.65744c6.651638,-5.476463 9.021545,-13.403526 6.57476,-20.591295c2.933193,-2.000805 3.824459,-4.419174 3.929611,-6.602863c1.534893,-1.479622 2.821911,-3.760269 2.974285,-7.947517a1.027661,1.027661 0 0 0 -1.107819,-1.075726a1.027661,1.027661 0 0 0 -0.947289,1.003475c-0.087524,2.405453 -0.592484,3.928476 -1.160023,5.125748c-0.482086,-0.939127 -1.167713,-1.723217 -2.187572,-1.894562c-0.635937,-0.106869 -1.334732,0.055443 -1.90258,0.449558c-0.567837,0.39399 -1.023792,0.986668 -1.392822,1.754074a1.027661,1.027661 0 0 0 -0.040138,0.092319c-0.472641,1.297993 -0.202591,2.64127 0.630177,3.447937c0.766239,0.742319 1.928143,0.873655 3.046547,0.618141c-0.43755,0.99984 -1.262775,2.061132 -2.63311,3.066618c-0.561535,-1.181463 -1.251503,-2.332703 -2.091244,-3.439913c-4.7845,-6.308842 -13.042408,-10.002631 -21.787434,-10.26755c-2.892195,-0.087678 -5.835917,0.199316 -8.726217,0.891087c-1.622,-1.535567 -3.696625,-2.551209 -5.964655,-2.857896c-0.452454,-0.061087 -0.906408,-0.092947 -1.356697,-0.096334zm-0.028097,2.055116c0.364399,0.002885 0.729252,0.030731 1.095795,0.080277c2.932364,0.396625 5.476974,2.259951 6.76342,4.969206a1.024342,1.03099 29.998981475830078 1 0 1.850405,-0.8951c-0.246052,-0.518167 -0.541658,-0.999586 -0.858974,-1.465072c10.595631,-2.151199 21.801041,1.481252 27.374786,8.830577c5.64534,7.443897 4.345982,16.709349 -3.207104,23.027731a1.027661,1.027661 0 0 0 -0.90313,1.039597l0,9.312248l-6.165344,0l0,-4.688232a1.027661,1.027661 0 0 0 -0.987423,-1.095795l0,0.004013a1.027661,1.027661 0 0 0 -0.377304,0.052177c-4.965729,1.639565 -10.492577,1.959412 -15.714413,0.90313a1.028107,1.028107 0 0 0 -0.891083,0.240837a1.027661,1.027661 0 0 0 -0.004019,0.004013a1.027661,1.027661 0 0 0 -0.521803,0.911156l0,3.668701l-6.165348,0l0,-6.815598a1.027661,1.027661 0 0 0 -0.545889,-0.927216a1.0283,1.0283 0 0 0 -0.216749,-0.164566c-2.995564,-1.707664 -5.443986,-3.919319 -7.188891,-6.44632a1.027661,1.027661 0 0 0 -1.003477,-0.74659l-2.998382,0c-2.86411,0 -5.13779,-2.273743 -5.13779,-5.137787l0,-4.110231c0,-2.864166 2.27368,-5.137787 5.13779,-5.137787l1.557393,0a1.027661,1.027661 0 0 0 1.003475,-0.750599a1.027661,1.027661 0 0 0 0.056194,-0.108379c1.167339,-2.418621 2.979797,-4.618992 5.278275,-6.502514c0.21414,0.465485 0.404215,0.943766 0.537865,1.44902a1.024342,1.03099 29.998981475830078 1 0 1.982863,-0.537867c-0.78956,-2.985083 -2.787698,-5.457521 -5.454885,-6.867779c1.595776,-1.359204 3.613198,-2.112062 5.703746,-2.095254zm41.905092,6.309848l0,0.004013c0.226357,0.039011 0.701687,0.395748 0.959328,1.176071c0.058357,0.176739 -0.080204,0.491203 -0.048172,0.69842c-0.190941,0.119165 -0.404377,0.497347 -0.573986,0.549902c-0.608768,0.18903 -1.041729,0.035374 -1.272411,-0.188652c-0.223339,-0.216373 -0.350388,-0.557552 -0.124424,-1.224237c0.244518,-0.481291 0.494087,-0.780828 0.670319,-0.903128c0.186543,-0.129448 0.276165,-0.130827 0.389347,-0.112389zm-41.266884,8.075962c-1.122839,0 -2.055113,0.932228 -2.055113,2.055119c0,1.122761 0.932274,2.055115 2.055113,2.055115c1.122841,0 2.055117,-0.932354 2.055117,-2.055115c0,-1.12289 -0.932276,-2.055119 -2.055117,-2.055119zm18.869339,0.862988c-0.40379,0 -0.806458,0.051807 -1.200153,0.152531c-1.574799,0.410667 -2.956081,1.583607 -3.929611,3.299423c-0.482038,0.849693 -0.844406,1.776276 -1.087765,2.745502l-2.010965,0l-0.875031,2.055124l2.572912,0c-0.053577,0.685242 -0.053167,1.370239 0.004013,2.055107l-1.906605,0l-0.875029,2.055115l3.114782,0c0.243113,0.943771 0.593349,1.852287 1.063686,2.68129c0.97353,1.715813 2.354813,2.892769 3.929611,3.303436c1.574795,0.410675 3.289768,-0.020439 4.672176,-1.192131l0.782707,-0.666306l-1.332615,-1.561401l-0.782707,0.666306c-0.955841,0.81633 -1.893135,1.004982 -2.82177,0.762642c-0.928635,-0.242088 -1.899246,-0.981026 -2.661213,-2.324051c-0.286724,-0.505371 -0.503536,-1.077728 -0.682369,-1.669785l4.118259,0l0.875031,-2.055115l-5.394676,0c-0.062866,-0.68148 -0.063072,-1.372879 -0.004013,-2.055107l4.728371,0l0.875031,-2.055124l-5.218067,0c0.181267,-0.616001 0.405281,-1.206299 0.702435,-1.729988c0.761967,-1.343025 1.732578,-2.085972 2.661213,-2.328056c0.928635,-0.242344 1.865929,-0.049175 2.82177,0.766647l0.782707,0.666317l1.332615,-1.561417l-0.782707,-0.670315c-0.691208,-0.590168 -1.464882,-0.990681 -2.26384,-1.192131l0,0.004017c-0.399479,-0.100723 -0.804394,-0.152531 -1.208183,-0.152531z"/>
  </g>
 </g>
</svg>