<svg width="66" height="66" xmlns="http://www.w3.org/2000/svg">

 <g>
  <title>background</title>
  <rect fill="none" id="canvas_background" height="68" width="68" y="-1" x="-1"/>
 </g>
 <g>
  <title>Layer 1</title>
  <g id="layer1">
   <path clip-rule="nonzero" fill="#7eacd1" fill-rule="nonzero" stroke-linecap="round" stroke-linejoin="round" stroke-miterlimit="4.1" stroke-dashoffset="0" id="rect4745" d="m27.14959,0.206569a1.17125,1.17125 0 0 0 -1.157408,0.997293l-1.10251,7.429376c-1.156799,0.385993 -2.281013,0.849757 -3.371584,1.395295l-6.029505,-4.474095a1.17125,1.17125 0 0 0 -1.527963,0.114369l-8.284853,8.284851a1.17125,1.17125 0 0 0 -0.114368,1.523389l4.46952,6.02493c-0.545074,1.093077 -1.010598,2.221609 -1.395295,3.380733l-7.420227,1.097939a1.17125,1.17125 0 0 0 -1.001868,1.161983l0,11.711329a1.17125,1.17125 0 0 0 0.997293,1.15741l7.433951,1.102516c0.385302,1.154549 0.850862,2.2785 1.395295,3.367008l-4.478669,6.034077a1.17125,1.17125 0 0 0 0.114368,1.527962l8.284853,8.284859a1.17125,1.17125 0 0 0 1.527963,0.109791l6.020355,-4.464951c1.094318,0.545681 2.224619,1.010025 3.385307,1.395298l1.088787,7.356182a1.17125,1.17125 0 0 0 0,0.009155l0.00915,0.054886a1.17125,1.17125 0 0 0 1.335825,1.001869l11.3545,0a1.17125,1.17125 0 0 0 1.349548,-1.093361l1.088787,-7.337883c1.156803,-0.385994 2.281013,-0.849754 3.371582,-1.39529l6.02951,4.474094a1.17125,1.17125 0 0 0 1.527958,-0.114368l8.284855,-8.284855a1.17125,1.17125 0 0 0 0.114368,-1.523388l-4.469517,-6.029507c0.545071,-1.093079 1.010593,-2.21703 1.395294,-3.376156l7.420227,-1.102512a1.17125,1.17125 0 0 0 1.001869,-1.152836l0,-11.711329a1.17125,1.17125 0 0 0 -0.997299,-1.161983l-7.433945,-1.102512c-0.3853,-1.154551 -0.850872,-2.278509 -1.395298,-3.36701l4.478668,-6.03408a1.17125,1.17125 0 0 0 -0.114368,-1.523389l-8.284855,-8.284851a1.17125,1.17125 0 0 0 -1.527958,-0.118943l-6.020359,4.464945c-1.094318,-0.54568 -2.224617,-1.010015 -3.385307,-1.395295l-1.097939,-7.420227a1.17125,1.17125 0 0 0 -1.157406,-0.992718l-11.711334,0zm1.011021,2.342267l9.689297,0l1.047615,7.067971a1.17125,1.17125 0 0 0 0.823452,0.951547c1.524727,0.454615 2.999599,1.062626 4.400902,1.816171a1.17125,1.17125 0 0 0 1.253475,-0.091495l5.732147,-4.254507l6.857536,6.852959l-4.268234,5.750446a1.17125,1.17125 0 0 0 -0.086918,1.253479c0.752422,1.396011 1.360493,2.86393 1.81617,4.382599a1.17125,1.17125 0 0 0 0.946972,0.823454l7.081696,1.047615l0,9.693874l-7.06797,1.043037a1.17125,1.17125 0 0 0 -0.951542,0.823456c-0.454594,1.524815 -1.062683,2.999741 -1.816177,4.400898a1.17125,1.17125 0 0 0 0.086922,1.253475l4.259083,5.736725l-6.857536,6.852959l-5.745872,-4.263657a1.17125,1.17125 0 0 0 -1.253479,-0.091492c-1.299026,0.700218 -2.668659,1.26263 -4.076092,1.706375l0,-10.155926c4.193466,-2.434898 7.026802,-6.963318 7.026802,-12.150501c-0.006092,-5.273102 -2.970192,-10.101311 -7.667263,-12.498188a1.17125,1.17125 0 0 0 -1.701805,1.038465l0,10.796385l-4.684528,2.808887l-4.684536,-2.808887l0,-10.810108a1.17125,1.17125 0 0 0 -1.207731,-1.171133a1.17125,1.17125 0 0 0 -0.494072,0.128094c-4.701803,2.399448 -7.666708,7.237665 -7.667261,12.516485c0,5.187183 2.83333,9.715603 7.026798,12.150501l0,10.165073c-1.412661,-0.442894 -2.7855,-1.005013 -4.089817,-1.706375a1.17125,1.17125 0 0 0 -1.253477,0.091492l-5.732149,4.254509l-6.857533,-6.852959l4.268231,-5.750446a1.17125,1.17125 0 0 0 0.086921,-1.253479c-0.752411,-1.396008 -1.36049,-2.86393 -1.816173,-4.382603a1.17125,1.17125 0 0 0 -0.94697,-0.823452l-7.081696,-1.047611l0,-9.689299l7.067971,-1.047617a1.17125,1.17125 0 0 0 0.951547,-0.823454c0.454589,-1.524818 1.062689,-2.999741 1.816171,-4.400896a1.17125,1.17125 0 0 0 -0.086919,-1.253479l-4.259083,-5.736723l6.857533,-6.852959l5.745872,4.263657a1.17125,1.17125 0 0 0 1.253479,0.091495c1.395746,-0.752401 2.868429,-1.364988 4.387175,-1.820746a1.17125,1.17125 0 0 0 0.818878,-0.94697l1.052191,-7.077121zm-2.182152,21.592767l0,8.856695a1.17125,1.17125 0 0 0 0.567266,1.001869l5.855669,3.513397a1.17125,1.17125 0 0 0 1.207729,0l5.855667,-3.513397a1.17125,1.17125 0 0 0 0.567265,-1.001869l0,-8.842972c2.741642,2.192587 4.680363,5.247082 4.684536,8.842972c0,6.481689 -5.229473,11.71133 -11.71133,11.71133c-6.481863,0 -11.711334,-5.229641 -11.711334,-11.71133c0.00038,-3.59989 1.940149,-6.661249 4.684532,-8.856695zm2.342266,22.086843c1.4685,0.522087 3.039467,0.823452 4.684536,0.823452c1.645061,0 3.21603,-0.301365 4.684528,-0.823452l0,17.219315l-9.369064,0l0,-17.219315z"/>
  </g>
 </g>
</svg>