<svg width="17" height="17" xmlns="http://www.w3.org/2000/svg">

 <g>
  <title>background</title>
  <rect fill="none" id="canvas_background" height="19" width="19" y="-1" x="-1"/>
 </g>
 <g>
  <title>Layer 1</title>
  <path fill="#adadad" id="svg_1" d="m6.684391,1.237556q-0.501186,0 -0.855799,0.354613t-0.354609,0.85579l0,8.472857l-1.427906,-1.91018q-0.387708,-0.510627 -1.011822,-0.510627q-0.491727,0 -0.841611,0.359329t-0.349884,0.851073q0,0.406612 0.245864,0.728127l3.631222,4.841631q0.359337,0.482278 0.964543,0.482278l6.789626,0q0.208039,0 0.373525,-0.127667t0.21277,-0.326246l0.869975,-3.47991q0.226948,-0.907807 0.226948,-1.834532l0,-2.052009q0,-0.387713 -0.264771,-0.671393t-0.643025,-0.283698t-0.643031,0.26478t-0.264776,0.643027l-0.302605,0l0,-0.576844q0,-0.453895 -0.302601,-0.770674t-0.756505,-0.316796q-0.43499,0 -0.747045,0.312063t-0.312059,0.747041l0,0.605211l-0.302601,0l0,-0.851075q0,-0.520092 -0.349884,-0.893623t-0.860524,-0.373511q-0.501184,0 -0.855798,0.354612t-0.354609,0.85579l0,0.907807l-0.302605,0l0,-5.390091q0,-0.520094 -0.34988,-0.893623t-0.860524,-0.373529zm0,-1.210403q1.011823,0 1.71632,0.732859t0.704492,1.744697l0,2.080378q0.208038,-0.0189 0.302605,-0.0189q0.936174,0 1.635941,0.652476q0.444445,-0.198581 0.936172,-0.198581q1.068564,0 1.739962,0.822691q0.255322,-0.066182 0.529556,-0.066182q0.888888,0 1.50355,0.638292t0.61466,1.527201l0,2.052009q0,1.096939 -0.264778,2.127678l-0.869976,3.47991q-0.151307,0.605211 -0.643035,0.988188t-1.115842,0.382982l-6.789626,0q-0.567381,0 -1.082746,-0.260048t-0.8558,-0.704489l-3.631223,-4.841633q-0.482269,-0.643026 -0.482269,-1.456268q0,-0.992922 0.704497,-1.706863t1.697405,-0.71396q0.671398,0 1.229321,0.33098l0,-5.172609q0,-1.002355 0.709221,-1.711581t1.711594,-0.709226zm1.210403,13.314469l0,-3.63121l-0.302601,0l0,3.63121l0.302601,0zm2.420814,0l0,-3.63121l-0.302598,0l0,3.63121l0.302598,0zm2.420816,0l0,-3.63121l-0.3026,0l0,3.63121l0.3026,0z"/>
 </g>
</svg>