<svg width="17" height="17" xmlns="http://www.w3.org/2000/svg">
 <title/>

 <desc/>
 <g>
  <title>background</title>
  <rect x="-1" y="-1" width="19" height="19" id="canvas_background" fill="none"/>
 </g>
 <g>
  <title>Layer 1</title>
  <g fill="none" fill-rule="evenodd" id="Page-1">
   <g fill="#929292" id="icon-111-search">
    <path d="m10.640195,12.217222c-1.095329,0.780487 -2.435538,1.239564 -3.882965,1.239564c-3.69958,0 -6.698684,-2.999107 -6.698684,-6.698687c0,-3.69958 2.999104,-6.698684 6.698684,-6.698684c3.69958,0 6.698683,2.999104 6.698683,6.698684c0,1.447428 -0.459078,2.787637 -1.239561,3.882967l4.401276,4.401269c0.433601,0.433608 0.429983,1.127391 -0.000154,1.557538l-0.018475,0.018475c-0.429047,0.429039 -1.127479,0.43021 -1.557537,0.000153l-4.401267,-4.401278l0,0zm-3.882965,-0.336597c2.829091,0 5.122517,-2.293434 5.122517,-5.122526c0,-2.829089 -2.293427,-5.122517 -5.122517,-5.122517c-2.82909,0 -5.122519,2.293428 -5.122519,5.122517c0,2.829092 2.293428,5.122526 5.122519,5.122526l0,0z" id="search" fill="#adadad"/>
   </g>
  </g>
 </g>
</svg>